<svg xmlns="http://www.w3.org/2000/svg" width="1028.999" height="688.329" viewBox="0 0 1028.999 688.329">
  <g id="Grupo_1014277" data-name="Grupo 1014277" transform="translate(-306.001 -408.836)">
    <g id="Grupo_1005351" data-name="Grupo 1005351" transform="translate(-15.249 -208.164)">
      <rect id="Rectángulo_34091" data-name="Rectángulo 34091" width="295.501" height="49" rx="24.5" transform="translate(662.249 617)" fill="#0b481e"/>
      <text id="Ganadería_agroecológica_" data-name="Ganadería agroecológica
" transform="translate(813.999 646.5)" fill="#fff" font-size="20" font-family="Roboto-Black, Roboto" font-weight="800"><tspan x="-112.49" y="0">Ganadería agroecológica</tspan><tspan x="0" y="27"></tspan></text>
    </g>
    <g id="Grupo_1004731" data-name="Grupo 1004731" transform="translate(-4.333 -294.906)">
      <line id="Línea_154" data-name="Línea 154" x1="0.167" y2="60.667" transform="translate(799.166 746.742)" fill="none" stroke="#0b481e" stroke-width="3"/>
      <path id="Trazado_118034" data-name="Trazado 118034" d="M-11969.333-9290.667l10,6,10-6" transform="translate(12758.666 10092.409)" fill="none" stroke="#0b481e" stroke-linecap="round" stroke-width="3"/>
    </g>
    <g id="Grupo_1005356" data-name="Grupo 1005356" transform="translate(-30.667 56.295)">
      <rect id="Rectángulo_347812" data-name="Rectángulo 347812" width="190" height="55" rx="27.5" transform="translate(600 817.499)" fill="#cee284"/>
      <text id="Monogástrico_" data-name="Monogástrico
" transform="translate(695 848.671)" fill="#12263f" font-size="16" font-family="Roboto-Black, Roboto" font-weight="800"><tspan x="-50.078" y="0">Monogástrico</tspan><tspan x="0" y="24"></tspan></text>
    </g>
    <g id="Grupo_1014272" data-name="Grupo 1014272" transform="translate(265.167 56.295)">
      <rect id="Rectángulo_347812-2" data-name="Rectángulo 347812" width="190" height="55" rx="27.5" transform="translate(600 817.499)" fill="#cee284"/>
      <text id="Poligástrico_" data-name="Poligástrico 
" transform="translate(698.833 851.671)" fill="#12263f" font-size="16" font-family="Roboto-Black, Roboto" font-weight="800"><tspan x="-45.609" y="0">Poligástrico </tspan><tspan x="0" y="24"></tspan></text>
    </g>
    <rect id="Rectángulo_330004" data-name="Rectángulo 330004" width="150.999" height="36.749" rx="18.375" transform="translate(588.333 974.416)" fill="#eff5d6"/>
    <rect id="Rectángulo_351598" data-name="Rectángulo 351598" width="219.999" height="36.749" rx="18.375" transform="translate(851.001 974.416)" fill="#eff5d6"/>
    <rect id="Rectángulo_351596" data-name="Rectángulo 351596" width="150.999" height="36.749" rx="18.375" transform="translate(588.333 1060.416)" fill="#eff5d6"/>
    <rect id="Rectángulo_351597" data-name="Rectángulo 351597" width="182.834" height="36.749" rx="18.375" transform="translate(865.167 1060.416)" fill="#eff5d6"/>
    <text id="Pastoreo" transform="translate(664.333 997.791)" fill="#12263f" font-size="16" font-family="Roboto-Regular, Roboto"><tspan x="-32.086" y="0">Pastoreo</tspan></text>
    <text id="Conservación_de_forrajes" data-name="Conservación de forrajes" transform="translate(959.001 997.791)" fill="#12263f" font-size="16" font-family="Roboto-Regular, Roboto"><tspan x="-88.531" y="0">Conservación de forrajes</tspan></text>
    <text id="Tipos_de_pastoreo" data-name="Tipos de pastoreo" transform="translate(664.333 1085.791)" fill="#12263f" font-size="16" font-family="Roboto-Regular, Roboto"><tspan x="-64.172" y="0">Tipos de pastoreo</tspan></text>
    <text id="Heno_ensilaje_y_BMN" data-name="Heno, ensilaje y BMN" transform="translate(959.001 1085.791)" fill="#12263f" font-size="16" font-family="Roboto-Regular, Roboto"><tspan x="-75.043" y="0">Heno, ensilaje y BMN</tspan></text>
    <g id="Grupo_1004715" data-name="Grupo 1004715" transform="translate(-409.834 -117.408)">
      <line id="Línea_154-2" data-name="Línea 154" x1="0.167" y2="39" transform="translate(799.166 746.742)" fill="none" stroke="#0b481e" stroke-width="3"/>
      <path id="Trazado_118034-2" data-name="Trazado 118034" d="M-11969.333-9290.667l10,6,10-6" transform="translate(12758.666 10070.742)" fill="none" stroke="#0b481e" stroke-linecap="round" stroke-width="3"/>
    </g>
    <g id="Grupo_1014266" data-name="Grupo 1014266" transform="translate(2058.834 1544.91) rotate(180)">
      <line id="Línea_154-3" data-name="Línea 154" x1="0.167" y2="39" transform="translate(799.166 746.742)" fill="none" stroke="#0b481e" stroke-width="3"/>
      <path id="Trazado_118034-3" data-name="Trazado 118034" d="M-11969.333-9290.667l10,6,10-6" transform="translate(12758.666 10070.742)" fill="none" stroke="#0b481e" stroke-linecap="round" stroke-width="3"/>
    </g>
    <g id="Grupo_1014263" data-name="Grupo 1014263" transform="translate(-211.166 -117.408)">
      <line id="Línea_154-4" data-name="Línea 154" x1="0.167" y2="39" transform="translate(799.166 746.742)" fill="none" stroke="#0b481e" stroke-width="3"/>
      <path id="Trazado_118034-4" data-name="Trazado 118034" d="M-11969.333-9290.667l10,6,10-6" transform="translate(12758.666 10070.742)" fill="none" stroke="#0b481e" stroke-linecap="round" stroke-width="3"/>
    </g>
    <g id="Grupo_1014264" data-name="Grupo 1014264" transform="translate(0.667 -143.574)">
      <line id="Línea_154-5" data-name="Línea 154" x1="0.167" y2="65.166" transform="translate(799.166 746.742)" fill="none" stroke="#0b481e" stroke-width="3"/>
      <path id="Trazado_118034-5" data-name="Trazado 118034" d="M-11969.333-9290.667l10,6,10-6" transform="translate(12758.666 10096.908)" fill="none" stroke="#0b481e" stroke-linecap="round" stroke-width="3"/>
    </g>
    <g id="Grupo_1014270" data-name="Grupo 1014270" transform="translate(-135 51.592)">
      <line id="Línea_154-6" data-name="Línea 154" x1="0.167" y2="65.166" transform="translate(799.166 746.742)" fill="none" stroke="#0b481e" stroke-width="3"/>
      <path id="Trazado_118034-6" data-name="Trazado 118034" d="M-11969.333-9290.667l10,6,10-6" transform="translate(12758.666 10096.908)" fill="none" stroke="#0b481e" stroke-linecap="round" stroke-width="3"/>
    </g>
    <g id="Grupo_1014271" data-name="Grupo 1014271" transform="translate(157.001 51.592)">
      <line id="Línea_154-7" data-name="Línea 154" x1="0.167" y2="65.166" transform="translate(799.166 746.742)" fill="none" stroke="#0b481e" stroke-width="3"/>
      <path id="Trazado_118034-7" data-name="Trazado 118034" d="M-11969.333-9290.667l10,6,10-6" transform="translate(12758.666 10096.908)" fill="none" stroke="#0b481e" stroke-linecap="round" stroke-width="3"/>
    </g>
    <g id="Grupo_1004721" data-name="Grupo 1004721" transform="translate(224.334 -117.408)">
      <line id="Línea_154-8" data-name="Línea 154" x1="0.167" y2="39" transform="translate(799.166 746.742)" fill="none" stroke="#0b481e" stroke-width="3"/>
      <path id="Trazado_118034-8" data-name="Trazado 118034" d="M-11969.333-9290.667l10,6,10-6" transform="translate(12758.666 10070.742)" fill="none" stroke="#0b481e" stroke-linecap="round" stroke-width="3"/>
    </g>
    <g id="Grupo_1004726" data-name="Grupo 1004726" transform="translate(460.667 -114.908)">
      <line id="Línea_154-9" data-name="Línea 154" x1="0.167" y2="39" transform="translate(799.166 746.742)" fill="none" stroke="#0b481e" stroke-width="3"/>
      <path id="Trazado_118034-9" data-name="Trazado 118034" d="M-11969.333-9290.667l10,6,10-6" transform="translate(12758.666 10070.742)" fill="none" stroke="#0b481e" stroke-linecap="round" stroke-width="3"/>
    </g>
    <g id="Grupo_1014265" data-name="Grupo 1014265" transform="translate(1188.333 1544.91) rotate(180)">
      <line id="Línea_154-10" data-name="Línea 154" x1="0.167" y2="39" transform="translate(799.166 746.742)" fill="none" stroke="#0b481e" stroke-width="3"/>
      <path id="Trazado_118034-10" data-name="Trazado 118034" d="M-11969.333-9290.667l10,6,10-6" transform="translate(12758.666 10070.742)" fill="none" stroke="#0b481e" stroke-linecap="round" stroke-width="3"/>
    </g>
    <g id="Grupo_1014267" data-name="Grupo 1014267" transform="translate(1393.333 1544.91) rotate(180)">
      <line id="Línea_154-11" data-name="Línea 154" x1="0.167" y2="39" transform="translate(799.166 746.742)" fill="none" stroke="#0b481e" stroke-width="3"/>
      <path id="Trazado_118034-11" data-name="Trazado 118034" d="M-11969.333-9290.667l10,6,10-6" transform="translate(12758.666 10070.742)" fill="none" stroke="#0b481e" stroke-linecap="round" stroke-width="3"/>
    </g>
    <g id="Grupo_1014273" data-name="Grupo 1014273" transform="translate(-135 182.76)">
      <line id="Línea_154-12" data-name="Línea 154" x1="0.167" y2="39" transform="translate(799.166 746.742)" fill="none" stroke="#0b481e" stroke-width="3"/>
      <path id="Trazado_118034-12" data-name="Trazado 118034" d="M-11969.333-9290.667l10,6,10-6" transform="translate(12758.666 10070.742)" fill="none" stroke="#0b481e" stroke-linecap="round" stroke-width="3"/>
    </g>
    <g id="Grupo_1014276" data-name="Grupo 1014276" transform="translate(159.668 182.76)">
      <line id="Línea_154-13" data-name="Línea 154" x1="0.167" y2="39" transform="translate(799.166 746.742)" fill="none" stroke="#0b481e" stroke-width="3"/>
      <path id="Trazado_118034-13" data-name="Trazado 118034" d="M-11969.333-9290.667l10,6,10-6" transform="translate(12758.666 10070.742)" fill="none" stroke="#0b481e" stroke-linecap="round" stroke-width="3"/>
    </g>
    <g id="Grupo_1014274" data-name="Grupo 1014274" transform="translate(-135 268.76)">
      <line id="Línea_154-14" data-name="Línea 154" x1="0.167" y2="39" transform="translate(799.166 746.742)" fill="none" stroke="#0b481e" stroke-width="3"/>
      <path id="Trazado_118034-14" data-name="Trazado 118034" d="M-11969.333-9290.667l10,6,10-6" transform="translate(12758.666 10070.742)" fill="none" stroke="#0b481e" stroke-linecap="round" stroke-width="3"/>
    </g>
    <g id="Grupo_1014275" data-name="Grupo 1014275" transform="translate(159.668 268.76)">
      <line id="Línea_154-15" data-name="Línea 154" x1="0.167" y2="39" transform="translate(799.166 746.742)" fill="none" stroke="#0b481e" stroke-width="3"/>
      <path id="Trazado_118034-15" data-name="Trazado 118034" d="M-11969.333-9290.667l10,6,10-6" transform="translate(12758.666 10070.742)" fill="none" stroke="#0b481e" stroke-linecap="round" stroke-width="3"/>
    </g>
    <g id="Grupo_1014268" data-name="Grupo 1014268" transform="translate(1603.333 1544.91) rotate(180)">
      <line id="Línea_154-16" data-name="Línea 154" x1="0.167" y2="39" transform="translate(799.166 746.742)" fill="none" stroke="#0b481e" stroke-width="3"/>
      <path id="Trazado_118034-16" data-name="Trazado 118034" d="M-11969.333-9290.667l10,6,10-6" transform="translate(12758.666 10070.742)" fill="none" stroke="#0b481e" stroke-linecap="round" stroke-width="3"/>
    </g>
    <g id="Grupo_1014269" data-name="Grupo 1014269" transform="translate(1833.333 1544.91) rotate(180)">
      <line id="Línea_154-17" data-name="Línea 154" x1="0.167" y2="39" transform="translate(799.166 746.742)" fill="none" stroke="#0b481e" stroke-width="3"/>
      <path id="Trazado_118034-17" data-name="Trazado 118034" d="M-11969.333-9290.667l10,6,10-6" transform="translate(12758.666 10070.742)" fill="none" stroke="#0b481e" stroke-linecap="round" stroke-width="3"/>
    </g>
    <g id="Grupo_1005358" data-name="Grupo 1005358" transform="translate(126.001 -122.746)">
      <rect id="Rectángulo_34788" data-name="Rectángulo 34788" width="168.999" height="52.5" rx="26.25" transform="translate(180 815.332)" fill="#ffa686"/>
      <text id="Bienestar_animal" data-name="Bienestar animal" transform="translate(266.666 847.832)" fill="#12263f" font-size="16" font-family="Roboto-Black, Roboto" font-weight="800"><tspan x="-60.988" y="0">Bienestar animal</tspan></text>
    </g>
    <g id="Grupo_1014257" data-name="Grupo 1014257" transform="translate(532.336 -126.957)">
      <rect id="Rectángulo_34788-2" data-name="Rectángulo 34788" width="168.999" height="52.5" rx="26.25" transform="translate(180 815.332)" fill="#ffa686"/>
      <text id="Alojamiento_" data-name="Alojamiento
" transform="translate(266.666 847.832)" fill="#12263f" font-size="16" font-family="Roboto-Black, Roboto" font-weight="800"><tspan x="-43.625" y="0">Alojamiento</tspan><tspan x="0" y="24"></tspan></text>
    </g>
    <g id="Grupo_1014259" data-name="Grupo 1014259" transform="translate(728.668 -141.166)">
      <rect id="Rectángulo_34788-3" data-name="Rectángulo 34788" width="230" height="75.174" rx="36" transform="translate(180 815.332)" fill="#ffa686"/>
      <text id="Alimentación_gramíne_a_y_leguminosa" data-name="Alimentación gramíne
a y leguminosa" transform="translate(295 849)" fill="#12263f" font-size="16" font-family="Roboto-Black, Roboto" font-weight="800"><tspan x="-79.75" y="0">Alimentación gramíne</tspan><tspan x="-54.48" y="24">a y leguminosa</tspan></text>
    </g>
    <g id="Grupo_1005357" data-name="Grupo 1005357" transform="translate(115 -141.166)">
      <rect id="Rectángulo_347811" data-name="Rectángulo 347811" width="168.999" height="73.5" rx="36" transform="translate(390 815.332)" fill="#ffa686"/>
      <text id="Buenas_prácticas_pecuarias_" data-name="Buenas prácticas
 pecuarias 
" transform="translate(476.666 847.832)" fill="#12263f" font-size="16" font-family="Roboto-Black, Roboto" font-weight="800"><tspan x="-62.258" y="0">Buenas prácticas</tspan><tspan x="-39.332" y="24" xml:space="preserve"> pecuarias </tspan><tspan x="0" y="48"></tspan></text>
    </g>
    <g id="Grupo_1014261" data-name="Grupo 1014261" transform="translate(776.001 -141.498)">
      <rect id="Rectángulo_347811-2" data-name="Rectángulo 347811" width="168.999" height="73.5" rx="36" transform="translate(390 815.332)" fill="#ffa686"/>
      <text id="Equipos_insumos_y_herramientas" data-name="Equipos, insumos y herramientas" transform="translate(476.666 847.832)" fill="#12263f" font-size="16" font-family="Roboto-Black, Roboto" font-weight="800"><tspan x="-63.727" y="0">Equipos, insumos</tspan><tspan x="-56.238" y="24" xml:space="preserve"> y herramientas</tspan></text>
    </g>
    <path id="Trazado_632196" data-name="Trazado 632196" d="M-11997.333-9482.99v870" transform="translate(9872.989 -11367.998) rotate(-90)" fill="none" stroke="#0b481e" stroke-width="3"/>
    <path id="Trazado_714010" data-name="Trazado 714010" d="M-11997.333-9482.99v870" transform="translate(9871.99 -11198.998) rotate(-90)" fill="none" stroke="#0b481e" stroke-width="3"/>
    <text id="Proceso_agroalimentario_en_los_territorios_rurales_que_busca_alternativas_de_alimentación_aprovechando_los_recursos_naturales" data-name="Proceso agroalimentario en los territorios rurales que busca alternativas de alimentación aprovechando los recursos naturales" transform="translate(585.001 527.836)" fill="#12263f" font-size="16" font-family="Roboto-Regular, Roboto">
    <tspan x="15" y="17">Proceso agroalimentario en los territorios rurales que </tspan>
    <tspan x="15" y="41">busca alternativas de alimentación aprovechando los </tspan>
    <tspan x="150" y="65">recursos naturales</tspan></text>
  </g>
</svg>
