<svg id="pollo" xmlns="http://www.w3.org/2000/svg" width="70.026" height="73.169" viewBox="0 0 70.026 73.169">
  <path id="Trazado_713980" data-name="Trazado 713980" d="M46.011,22A35.013,35.013,0,0,0,11,57.009c0,.079,0,.157,0,.236L65.153,86.328A35.014,35.014,0,0,0,46.011,22Z" transform="translate(-10.998 -18.853)" fill="#02c0fc"/>
  <path id="Trazado_713981" data-name="Trazado 713981" d="M285.2,3.373a.84.84,0,0,1-1.2-.8,5.933,5.933,0,0,1,.287-1.473A.844.844,0,0,0,283.266.027c-2.4.6-6.6,2.356-5.214,7.07a3.481,3.481,0,0,0,2.762,2.744,7.8,7.8,0,0,1,5.48-2.308c-2.831-.977-1.558-3.429-1.1-4.16Z" transform="translate(-239.653 0)" fill="#ff0363"/>
  <path id="Trazado_713982" data-name="Trazado 713982" d="M331.9,17.241c-1.861-1.49-3.308-1.734-3.567-2.606a1.8,1.8,0,0,0-2.127-1.283,3.519,3.519,0,0,0-2.036,1.16.847.847,0,0,1-.657.344c-.494.819-1.6,3.16,1.188,4.1l.006,0c.29-.022.588-.036.9-.036,3.226,0,4.946,1.093,6.009,2.354C332.482,20.583,334.029,18.942,331.9,17.241Z" transform="translate(-278.309 -11.403)" fill="#fe3d97"/>
  <path id="Trazado_713983" data-name="Trazado 713983" d="M386.957,95.322l.433.281,4.209.836a1.148,1.148,0,0,0,1.3-1.525,5.931,5.931,0,0,0-4.534-3.837h-.286A3.4,3.4,0,0,0,386.957,95.322Z" transform="translate(-332.917 -78.061)" fill="#fef156"/>
  <path id="Trazado_713984" data-name="Trazado 713984" d="M212.618,259.006c-8.031,3.811-9.572-3.46-9.572-3.46l-13.879-10q-.288.34-.611.652l1.431,20.893c-.206.5-1.677,4.344.149,7.738,1.292,2.4,3.919,3.968,7.809,4.656a8.934,8.934,0,0,1,6.146,3.642,34.8,34.8,0,0,0,13.245-5.2,31.252,31.252,0,0,0,5.078-10.814,25.915,25.915,0,0,0,.482-3.3C216.883,263.265,219.519,255.731,212.618,259.006Z" transform="translate(-163.181 -210.459)" fill="#bc6b58"/>
  <path id="Trazado_713985" data-name="Trazado 713985" d="M45.817,281.97c-12.1-2.144-7.778-12.147-7.778-12.147l-1.448-21.132a8.722,8.722,0,0,1-2.733,1.909c-6.284,2.822-16.631,1.884-22.839.943a34.972,34.972,0,0,0,1.716,10.616l8.353,13.715a35.061,35.061,0,0,0,31.071,9.909A9.049,9.049,0,0,0,45.817,281.97Z" transform="translate(-11.016 -213.151)" fill="#9e533b"/>
  <path id="Trazado_713986" data-name="Trazado 713986" d="M223.176,81.241l.059,0a1.239,1.239,0,0,0,1.058-1.72,17.33,17.33,0,0,0-2.5-4.09,6.1,6.1,0,0,1-7.626.818,8.052,8.052,0,0,1-3.647-6.958c-.122-4.048,2.226-6.383,5.713-6.993a3.381,3.381,0,0,1,1.4-.361c.243-.009.47-.03.685-.058a5.573,5.573,0,0,0-.649-.153,2.866,2.866,0,0,1-2.2-1.29,3.17,3.17,0,0,1,.007-2.452l.013-.029,0-.031c.109-.914-.349-2.8-2.86-3.413a1.7,1.7,0,0,1-1.331-.956c-.365-1,.641-2.389.652-2.4l.108-.158A7.385,7.385,0,0,0,206.486,54a12.592,12.592,0,0,1-3.462,3.28c-8.416,5.455-6.418,16.261-11.254,21.687l14.03,10.1s1.541,7.271,9.572,3.46c6.892-3.271,4.272,4.241,10.257,4.81a21.909,21.909,0,0,0-3.4-14.183,1.237,1.237,0,0,1,.948-1.921Z" transform="translate(-165.936 -43.702)" fill="#d18171"/>
  <path id="Trazado_713987" data-name="Trazado 713987" d="M327.12,50.669c-.019.026-2.174,2.969.8,3.693s2.7,3.18,2.7,3.18a2.768,2.768,0,0,0,2.357,4.039,6.263,6.263,0,0,0,2.777-.69,3.39,3.39,0,0,1,.977-4.525c-1.25-1.25-1.572-5.788-8.146-5.788a11.476,11.476,0,0,0-1.465.091Z" transform="translate(-281.282 -43.35)" fill="#e2978a"/>
  <path id="Trazado_713988" data-name="Trazado 713988" d="M325.757,135.239a4.3,4.3,0,0,1,3.478-1.3c-3.059-2.621-.472-6.37-.472-6.37s-7.55-.044-7.327,7.36a8.242,8.242,0,0,0,3.745,7.131,6.308,6.308,0,0,0,1.255.625A4.893,4.893,0,0,1,325.757,135.239Z" transform="translate(-277.068 -109.342)" fill="#ff0363"/>
  <g id="Grupo_1014216" data-name="Grupo 1014216" transform="translate(43.945 10.533)">
    <path id="Trazado_713989" data-name="Trazado 713989" d="M323.752,77.977a1.143,1.143,0,0,1-1.141-1.085.947.947,0,0,0-1.86-.2,1.143,1.143,0,1,1-2.208-.594,3.233,3.233,0,0,1,6.351.675,1.143,1.143,0,0,1-1.083,1.2Z" transform="translate(-318.504 -73.706)" fill="#9e533b"/>
  </g>
  <path id="Trazado_713990" data-name="Trazado 713990" d="M77.161,260.691c-2.783-1.363-4.546-3.214-5.241-5.5a9.275,9.275,0,0,1,.177-5.436,14.621,14.621,0,0,1-3.542.986l-.125.019c-2.469,1.672-3.008,3.293-2.948,4.471a1.733,1.733,0,0,1-1.2,1.756c-2.772.856-4.118,2.291-3.791,4.041a1.732,1.732,0,0,1-.81,1.816c-1.48.865-3.755,2.827-2.372,6.249a1.7,1.7,0,0,1-.281,1.717,13.759,13.759,0,0,0-1.15,1.61,35.21,35.21,0,0,0,3.661,4.371c.086.017.173.031.259.049,4.682.977,9.342,3.013,14.922,3.013a15.924,15.924,0,0,0,3.005-.294c-.018-.024-.037-.048-.055-.073-2.849-3.977-.848-7.357.918-10.34,1.148-1.939,2.233-3.771,1.727-5.465C79.974,262.542,78.942,261.563,77.161,260.691Z" transform="translate(-49.463 -214.061)" fill="#d18171"/>
  <path id="Trazado_713991" data-name="Trazado 713991" d="M30.687,261.635a1.907,1.907,0,0,1-1.627,1.7c-1.782.245-4.185.97-4.137,3.1a1.9,1.9,0,0,1-1.21,1.833,7.51,7.51,0,0,0-.715.317,34.9,34.9,0,0,0,4.836,9.548,13.362,13.362,0,0,1,1.177-1.665,1.914,1.914,0,0,0,.315-1.935c-1.3-3.212.737-5.081,2.282-5.984a1.939,1.939,0,0,0,.912-2.041c-.4-2.132,1.895-3.257,3.643-3.8a1.941,1.941,0,0,0,1.354-1.972c-.058-1.151.5-2.818,3.256-4.545-.131.023-.263.045-.4.066-7.84,1.18-9.5,3.715-9.689,5.376Z" transform="translate(-21.284 -219.582)" fill="#bc6b58"/>
  <path id="Trazado_713992" data-name="Trazado 713992" d="M186.993,241.318a13.8,13.8,0,0,0-3.169-8.53,12.6,12.6,0,0,0-16.712-2.741,14.225,14.225,0,0,1-2.343,1.2c-.847,2.813-1.225,7.861,5.232,11.024,9.333,4.571-5.564,10.345.421,18.718C178.761,259.506,186.993,251.577,186.993,241.318Z" transform="translate(-142.396 -195.448)" fill="#e2978a"/>
  <path id="Trazado_713993" data-name="Trazado 713993" d="M349.783,177.188c.932-1.667.934-3.484-2.174-4.553a7.753,7.753,0,0,1-2.785-1.55,4.315,4.315,0,0,0-3.617,1.284c-2.031,2.062-1.964,5.379.76,7.514A6.26,6.26,0,0,0,349.783,177.188Z" transform="translate(-292.802 -146.615)" fill="#fe3d97"/>
  <ellipse id="Elipse_7930" data-name="Elipse 7930" cx="2.388" cy="2.388" rx="2.388" ry="2.388" transform="translate(52.848 26.361)" fill="#fd77a6"/>
  <g id="Grupo_1014217" data-name="Grupo 1014217" transform="translate(0.747 3.655)">
    <path id="Trazado_713994" data-name="Trazado 713994" d="M446.226,155.039c-4.61,5.042-8.78,13.65,3.195,22.833a35.143,35.143,0,0,0-3.195-22.833Z" transform="translate(-380.809 -136.538)" fill="#2fd0e2"/>
    <path id="Trazado_713995" data-name="Trazado 713995" d="M16.222,52.861l.114.04c16.99,5.82,22.167-4.627,26.946-15.428,2.241-5.065,2.052-9.07,1.219-11.895A35.047,35.047,0,0,0,16.222,52.861Z" transform="translate(-16.222 -25.578)" fill="#2fd0e2"/>
  </g>
</svg>
