<svg id="jeringuilla" xmlns="http://www.w3.org/2000/svg" width="73.167" height="73.168" viewBox="0 0 73.167 73.168">
  <g id="Grupo_1014143" data-name="Grupo 1014143">
    <g id="Grupo_1014142" data-name="Grupo 1014142">
      <circle id="Elipse_7928" data-name="Elipse 7928" cx="36.5" cy="36.5" r="36.5" fill="#00ddc1"/>
    </g>
  </g>
  <path id="Trazado_713903" data-name="Trazado 713903" d="M93.743,158.568l14.294,14.294a36.587,36.587,0,0,0,45.335-38.71l-16.56-16.561Z" transform="translate(-80.346 -100.786)" fill="#00baa0"/>
  <g id="Grupo_1014146" data-name="Grupo 1014146" transform="translate(13.397 48.593)">
    <g id="Grupo_1014144" data-name="Grupo 1014144">
      <path id="Trazado_713904" data-name="Trazado 713904" d="M97.785,349.215H93.743l9.189-9.189,2.021,2.021Z" transform="translate(-93.743 -340.026)" fill="#eef4ff"/>
    </g>
    <g id="Grupo_1014145" data-name="Grupo 1014145" transform="translate(2.021 1.011)">
      <path id="Trazado_713905" data-name="Trazado 713905" d="M109.907,355.276h-2.021l8.178-8.179,1.011,1.01Z" transform="translate(-107.886 -347.097)" fill="#d6e9f8"/>
    </g>
  </g>
  <g id="Grupo_1014147" data-name="Grupo 1014147" transform="translate(21.772 17.774)">
    <path id="Trazado_713906" data-name="Trazado 713906" d="M0,0H17.721V29.868H0Z" transform="translate(21.116 0) rotate(45)" fill="#eef4ff"/>
    <path id="Trazado_713907" data-name="Trazado 713907" d="M0,0H8.789V29.868H0Z" transform="translate(27.432 6.315) rotate(45)" fill="#d6e9f8"/>
  </g>
  <g id="Grupo_1014148" data-name="Grupo 1014148" transform="translate(24.462 22.025)">
    <path id="Trazado_713908" data-name="Trazado 713908" d="M0,0H24.646V13.148H0Z" transform="translate(26.72 9.295) rotate(135)" fill="#d6e9f8"/>
    <path id="Trazado_713909" data-name="Trazado 713909" d="M0,0H24.646V6.5H0Z" transform="translate(26.721 9.296) rotate(135)" fill="#b2d7f3"/>
  </g>
  <g id="Grupo_1014149" data-name="Grupo 1014149" transform="translate(19.65 44.653)">
    <path id="Trazado_713910" data-name="Trazado 713910" d="M0,0H6.288V6.288H0Z" transform="translate(4.446 0) rotate(45)" fill="#7a3eb4"/>
    <path id="Trazado_713911" data-name="Trazado 713911" d="M0,0H3.144V6.288H0Z" transform="translate(6.669 2.223) rotate(45)" fill="#613393"/>
  </g>
  <g id="Grupo_1014150" data-name="Grupo 1014150" transform="translate(21.341 37.834)">
    <path id="Trazado_713912" data-name="Trazado 713912" d="M156.3,277.485l-6.962-6.962.429-4.718,1.065-1.065,9.106,9.106Z" transform="translate(-149.334 -264.74)" fill="#eef4ff"/>
    <path id="Trazado_713913" data-name="Trazado 713913" d="M182.592,316.644l-4.071-4.071,3.639-3.639,5.2,5.2-.055,2.076Z" transform="translate(-174.35 -302.618)" fill="#d6e9f8"/>
  </g>
  <g id="Grupo_1014151" data-name="Grupo 1014151" transform="translate(23.38 33.94)">
    <path id="Trazado_713914" data-name="Trazado 713914" d="M0,0H9.3V13.148H0Z" transform="translate(0 6.575) rotate(-45)" fill="#ff6379"/>
    <path id="Trazado_713915" data-name="Trazado 713915" d="M0,0H9.3V6.5H0Z" transform="translate(4.698 11.273) rotate(-45)" fill="#ff415b"/>
  </g>
  <g id="Grupo_1014152" data-name="Grupo 1014152" transform="translate(29.257 33.125)">
    <path id="Trazado_713916" data-name="Trazado 713916" d="M0,0H8.041V2.144H0Z" transform="translate(1.516 0) rotate(45)" fill="#b2d7f3"/>
    <path id="Trazado_713917" data-name="Trazado 713917" d="M0,0H6.5V2.144H0Z" transform="translate(6.214 4.698) rotate(45)" fill="#8bbbff"/>
  </g>
  <g id="Grupo_1014153" data-name="Grupo 1014153" transform="translate(33.342 17.351)">
    <path id="Trazado_713918" data-name="Trazado 713918" d="M0,0H28.11V3.716H0Z" transform="translate(0 19.874) rotate(-45)" fill="#b2d7f3"/>
    <path id="Trazado_713919" data-name="Trazado 713919" d="M0,0H28.11V1.786H0Z" transform="translate(1.364 21.238) rotate(-45)" fill="#8bbbff"/>
  </g>
  <g id="Grupo_1014154" data-name="Grupo 1014154" transform="translate(46.524 10.498)">
    <path id="Trazado_713920" data-name="Trazado 713920" d="M0,0H17.721V5.145H0Z" transform="translate(3.637 0) rotate(45)" fill="#d6e9f8"/>
    <path id="Trazado_713921" data-name="Trazado 713921" d="M0,0H8.789V5.145H0Z" transform="translate(9.953 6.315) rotate(45)" fill="#b2d7f3"/>
  </g>
  <g id="Grupo_1014155" data-name="Grupo 1014155" transform="translate(40.261 17.773)">
    <path id="Trazado_713922" data-name="Trazado 713922" d="M0,0H8.932V3.716H0Z" transform="translate(2.627 0) rotate(45)" fill="#eef4ff"/>
    <path id="Trazado_713923" data-name="Trazado 713923" d="M0,0H8.789V3.716H0Z" transform="translate(8.943 6.314) rotate(45)" fill="#d6e9f8"/>
  </g>
</svg>
