<svg id="medicamento" xmlns="http://www.w3.org/2000/svg" width="70.025" height="73.169" viewBox="0 0 70.025 73.169">
  <g id="Grupo_1014157" data-name="Grupo 1014157" transform="translate(0 3.144)">
    <path id="Trazado_713924" data-name="Trazado 713924" d="M16.859,131.3A34.846,34.846,0,0,0,11,150.691a35.252,35.252,0,0,0,.468,5.719h5.392Z" transform="translate(-11 -115.678)" fill="#99e6fc"/>
    <g id="Grupo_1014156" data-name="Grupo 1014156" transform="translate(18.478)">
      <path id="Trazado_713925" data-name="Trazado 713925" d="M159.321,22.089c-.822-.058-1.651-.089-2.487-.089A34.855,34.855,0,0,0,140.3,26.144H156A13.6,13.6,0,0,1,159.321,22.089Z" transform="translate(-140.299 -22)" fill="#99e6fc"/>
      <path id="Trazado_713926" data-name="Trazado 713926" d="M344,92.5c0,.143.008.286.008.429a13.427,13.427,0,0,1-.973,5.04,9.107,9.107,0,0,0-11.45,8.421c-.365.029-.728.044-1.082.044-.167,0-.334,0-.5-.01v12.3h16.872a1.365,1.365,0,0,1,1.363,1.363v3.07h5.734A35.039,35.039,0,0,0,344,92.5Z" transform="translate(-302.89 -82.421)" fill="#99e6fc"/>
    </g>
  </g>
  <g id="Grupo_1014158" data-name="Grupo 1014158" transform="translate(0.444 43.733)">
    <path id="Trazado_713927" data-name="Trazado 713927" d="M443.806,306.021v1.592a1.365,1.365,0,0,1-1.364,1.363H441.5v14.336a34.88,34.88,0,0,0,8.058-17.292Z" transform="translate(-380.426 -306.021)" fill="#01d0fb"/>
    <path id="Trazado_713928" data-name="Trazado 713928" d="M139.21,463.3a1.741,1.741,0,0,1-1.739-1.739V460.6l-.17.033a1.3,1.3,0,0,1-.247.024h-30.67a35.022,35.022,0,0,0,38.807,2.648H139.21Z" transform="translate(-93.197 -438.507)" fill="#01d0fb"/>
    <path id="Trazado_713929" data-name="Trazado 713929" d="M19.521,306.021H14.106a34.809,34.809,0,0,0,5.415,13.814Z" transform="translate(-14.106 -306.021)" fill="#01d0fb"/>
  </g>
  <path id="Trazado_713930" data-name="Trazado 713930" d="M89.065,82.3h1.949V70A13.5,13.5,0,0,1,79.538,50H52.429A1.429,1.429,0,0,0,51,51.429v48.758a35.2,35.2,0,0,0,8.1,8.691H89.585a1.429,1.429,0,0,0,.417-.062V89.543h-.937A1.365,1.365,0,0,1,87.7,88.18V83.661A1.365,1.365,0,0,1,89.065,82.3Z" transform="translate(-45.284 -42.855)" fill="#f2fbff"/>
  <g id="Grupo_1014160" data-name="Grupo 1014160" transform="translate(5.716 7.145)">
    <g id="Grupo_1014159" data-name="Grupo 1014159">
      <path id="Trazado_713931" data-name="Trazado 713931" d="M59,51.429A1.429,1.429,0,0,1,60.432,50h-8A1.429,1.429,0,0,0,51,51.429v48.758a35.2,35.2,0,0,0,8,8.615Z" transform="translate(-51 -50)" fill="#dff6fd"/>
    </g>
  </g>
  <g id="Grupo_1014167" data-name="Grupo 1014167" transform="translate(42.275 39.3)">
    <g id="Grupo_1014161" data-name="Grupo 1014161" transform="translate(2.301 7.23)">
      <path id="Trazado_713932" data-name="Trazado 713932" d="M340.007,345.854V325.6h-17.09v20.259a1.882,1.882,0,0,0,1.882,1.882h13.326A1.882,1.882,0,0,0,340.007,345.854Z" transform="translate(-322.917 -325.595)" fill="#ffc344"/>
    </g>
    <g id="Grupo_1014162" data-name="Grupo 1014162" transform="translate(2.301 7.23)">
      <path id="Trazado_713933" data-name="Trazado 713933" d="M322.917,325.6v20.326A1.883,1.883,0,0,0,324.8,347.8H328V325.6Z" transform="translate(-322.917 -325.595)" fill="#f6ab31"/>
    </g>
    <g id="Grupo_1014163" data-name="Grupo 1014163" transform="translate(9.942 10.459)">
      <path id="Trazado_713934" data-name="Trazado 713934" d="M377.517,362.651h8.319V348.19h-8.319a1.13,1.13,0,0,0-1.13,1.13v12.2A1.13,1.13,0,0,0,377.517,362.651Z" transform="translate(-376.387 -348.19)" fill="#fff"/>
    </g>
    <path id="Trazado_713935" data-name="Trazado 713935" d="M380.029,361.521v-12.2a1.13,1.13,0,0,1,1.13-1.13h-3.643a1.13,1.13,0,0,0-1.13,1.13v12.2a1.13,1.13,0,0,0,1.13,1.13h3.643A1.13,1.13,0,0,1,380.029,361.521Z" transform="translate(-366.444 -337.731)" fill="#f2fbff"/>
    <g id="Grupo_1014164" data-name="Grupo 1014164" transform="translate(9.942 19.408)">
      <path id="Trazado_713936" data-name="Trazado 713936" d="M376.387,415.192a1.13,1.13,0,0,0,1.13,1.13h8.319V410.81h-9.449Z" transform="translate(-376.387 -410.81)" fill="#dff6fd"/>
    </g>
    <path id="Trazado_713937" data-name="Trazado 713937" d="M380.029,415.192V410.81h-3.643v4.382a1.13,1.13,0,0,0,1.13,1.13h3.643A1.13,1.13,0,0,1,380.029,415.192Z" transform="translate(-366.444 -391.402)" fill="#c8effe"/>
    <g id="Grupo_1014165" data-name="Grupo 1014165">
      <path id="Trazado_713938" data-name="Trazado 713938" d="M327,275H308.324a1.506,1.506,0,0,0-1.506,1.506v4.519a1.506,1.506,0,0,0,1.506,1.506H327a1.506,1.506,0,0,0,1.506-1.506v-4.519A1.506,1.506,0,0,0,327,275Z" transform="translate(-306.818 -275)" fill="#fff0ad"/>
    </g>
    <g id="Grupo_1014166" data-name="Grupo 1014166" transform="translate(0 0)">
      <path id="Trazado_713939" data-name="Trazado 713939" d="M314.35,279.82a1.506,1.506,0,0,1-1.506-1.506V275h-4.519a1.506,1.506,0,0,0-1.506,1.506v4.519a1.506,1.506,0,0,0,1.506,1.506H327a1.506,1.506,0,0,0,1.506-1.506V279.82Z" transform="translate(-306.818 -275)" fill="#ffe177"/>
    </g>
  </g>
  <g id="Grupo_1014202" data-name="Grupo 1014202" transform="translate(11.433 12.147)">
    <g id="Grupo_1014168" data-name="Grupo 1014168">
      <path id="Trazado_713940" data-name="Trazado 713940" d="M107.577,87.858H91.429A.429.429,0,0,1,91,87.429v-2A.429.429,0,0,1,91.429,85h16.149a.429.429,0,0,1,.429.429v2A.429.429,0,0,1,107.577,87.858Z" transform="translate(-91 -85)" fill="#8ebac5"/>
    </g>
    <g id="Grupo_1014169" data-name="Grupo 1014169" transform="translate(0 5.145)">
      <path id="Trazado_713941" data-name="Trazado 713941" d="M107.577,122.429H91.429A.429.429,0,0,1,91,122v-.572a.429.429,0,0,1,.429-.429h16.149a.429.429,0,0,1,.429.429V122A.429.429,0,0,1,107.577,122.429Z" transform="translate(-91 -121)" fill="#8ebac5"/>
    </g>
    <g id="Grupo_1014175" data-name="Grupo 1014175" transform="translate(0 10.004)">
      <g id="Grupo_1014170" data-name="Grupo 1014170">
        <path id="Trazado_713942" data-name="Trazado 713942" d="M107.577,156.429H91.429A.429.429,0,0,1,91,156v-.572a.429.429,0,0,1,.429-.429h16.149a.429.429,0,0,1,.429.429V156A.429.429,0,0,1,107.577,156.429Z" transform="translate(-91 -155)" fill="#a8d3d8"/>
      </g>
      <g id="Grupo_1014171" data-name="Grupo 1014171" transform="translate(0 4.287)">
        <path id="Trazado_713943" data-name="Trazado 713943" d="M107.577,186.429H91.429A.429.429,0,0,1,91,186v-.572a.429.429,0,0,1,.429-.429h16.149a.429.429,0,0,1,.429.429V186A.429.429,0,0,1,107.577,186.429Z" transform="translate(-91 -185)" fill="#a8d3d8"/>
      </g>
      <g id="Grupo_1014172" data-name="Grupo 1014172" transform="translate(0 8.574)">
        <path id="Trazado_713944" data-name="Trazado 713944" d="M107.577,216.429H91.429A.429.429,0,0,1,91,216v-.572a.429.429,0,0,1,.429-.429h16.149a.429.429,0,0,1,.429.429V216A.429.429,0,0,1,107.577,216.429Z" transform="translate(-91 -215)" fill="#a8d3d8"/>
      </g>
      <g id="Grupo_1014173" data-name="Grupo 1014173" transform="translate(0 12.862)">
        <path id="Trazado_713945" data-name="Trazado 713945" d="M107.577,246.429H91.429A.429.429,0,0,1,91,246v-.572a.429.429,0,0,1,.429-.429h16.149a.429.429,0,0,1,.429.429V246A.429.429,0,0,1,107.577,246.429Z" transform="translate(-91 -245)" fill="#a8d3d8"/>
      </g>
      <g id="Grupo_1014174" data-name="Grupo 1014174" transform="translate(0 17.149)">
        <path id="Trazado_713946" data-name="Trazado 713946" d="M107.577,276.429H91.429A.429.429,0,0,1,91,276v-.572a.429.429,0,0,1,.429-.429h16.149a.429.429,0,0,1,.429.429V276A.429.429,0,0,1,107.577,276.429Z" transform="translate(-91 -275)" fill="#a8d3d8"/>
      </g>
    </g>
    <g id="Grupo_1014181" data-name="Grupo 1014181" transform="translate(20.436 10.004)">
      <g id="Grupo_1014176" data-name="Grupo 1014176">
        <path id="Trazado_713947" data-name="Trazado 713947" d="M235.572,156.429h-1.143A.429.429,0,0,1,234,156v-.572a.429.429,0,0,1,.429-.429h1.143a.429.429,0,0,1,.429.429V156A.429.429,0,0,1,235.572,156.429Z" transform="translate(-234 -155)" fill="#a8d3d8"/>
      </g>
      <g id="Grupo_1014177" data-name="Grupo 1014177" transform="translate(0 4.287)">
        <path id="Trazado_713948" data-name="Trazado 713948" d="M235.572,186.429h-1.143A.429.429,0,0,1,234,186v-.572a.429.429,0,0,1,.429-.429h1.143a.429.429,0,0,1,.429.429V186A.429.429,0,0,1,235.572,186.429Z" transform="translate(-234 -185)" fill="#a8d3d8"/>
      </g>
      <g id="Grupo_1014178" data-name="Grupo 1014178" transform="translate(0 8.574)">
        <path id="Trazado_713949" data-name="Trazado 713949" d="M235.572,216.429h-1.143A.429.429,0,0,1,234,216v-.572a.429.429,0,0,1,.429-.429h1.143a.429.429,0,0,1,.429.429V216A.429.429,0,0,1,235.572,216.429Z" transform="translate(-234 -215)" fill="#a8d3d8"/>
      </g>
      <g id="Grupo_1014179" data-name="Grupo 1014179" transform="translate(0 12.862)">
        <path id="Trazado_713950" data-name="Trazado 713950" d="M235.572,246.429h-1.143A.429.429,0,0,1,234,246v-.572a.429.429,0,0,1,.429-.429h1.143a.429.429,0,0,1,.429.429V246A.429.429,0,0,1,235.572,246.429Z" transform="translate(-234 -245)" fill="#a8d3d8"/>
      </g>
      <g id="Grupo_1014180" data-name="Grupo 1014180" transform="translate(0 17.149)">
        <path id="Trazado_713951" data-name="Trazado 713951" d="M235.572,276.429h-1.143A.429.429,0,0,1,234,276v-.572a.429.429,0,0,1,.429-.429h1.143a.429.429,0,0,1,.429.429V276A.429.429,0,0,1,235.572,276.429Z" transform="translate(-234 -275)" fill="#a8d3d8"/>
      </g>
    </g>
    <g id="Grupo_1014186" data-name="Grupo 1014186" transform="translate(25.866 14.291)">
      <g id="Grupo_1014182" data-name="Grupo 1014182">
        <path id="Trazado_713952" data-name="Trazado 713952" d="M273.572,186.429h-1.143A.429.429,0,0,1,272,186v-.572a.429.429,0,0,1,.429-.429h1.143a.429.429,0,0,1,.429.429V186A.429.429,0,0,1,273.572,186.429Z" transform="translate(-272 -185)" fill="#a8d3d8"/>
      </g>
      <g id="Grupo_1014183" data-name="Grupo 1014183" transform="translate(0 4.287)">
        <path id="Trazado_713953" data-name="Trazado 713953" d="M273.572,216.429h-1.143A.429.429,0,0,1,272,216v-.572a.429.429,0,0,1,.429-.429h1.143a.429.429,0,0,1,.429.429V216A.429.429,0,0,1,273.572,216.429Z" transform="translate(-272 -215)" fill="#a8d3d8"/>
      </g>
      <g id="Grupo_1014184" data-name="Grupo 1014184" transform="translate(0 8.574)">
        <path id="Trazado_713954" data-name="Trazado 713954" d="M273.572,246.429h-1.143A.429.429,0,0,1,272,246v-.572a.429.429,0,0,1,.429-.429h1.143a.429.429,0,0,1,.429.429V246A.429.429,0,0,1,273.572,246.429Z" transform="translate(-272 -245)" fill="#a8d3d8"/>
      </g>
      <g id="Grupo_1014185" data-name="Grupo 1014185" transform="translate(0 12.862)">
        <path id="Trazado_713955" data-name="Trazado 713955" d="M273.572,276.429h-1.143A.429.429,0,0,1,272,276v-.572a.429.429,0,0,1,.429-.429h1.143a.429.429,0,0,1,.429.429V276A.429.429,0,0,1,273.572,276.429Z" transform="translate(-272 -275)" fill="#a8d3d8"/>
      </g>
    </g>
    <g id="Grupo_1014191" data-name="Grupo 1014191" transform="translate(0 33.583)">
      <g id="Grupo_1014187" data-name="Grupo 1014187">
        <path id="Trazado_713956" data-name="Trazado 713956" d="M107.577,321.429H91.429A.429.429,0,0,1,91,321v-.572a.429.429,0,0,1,.429-.429h16.149a.429.429,0,0,1,.429.429V321A.429.429,0,0,1,107.577,321.429Z" transform="translate(-91 -320)" fill="#a8d3d8"/>
      </g>
      <g id="Grupo_1014188" data-name="Grupo 1014188" transform="translate(0 4.287)">
        <path id="Trazado_713957" data-name="Trazado 713957" d="M107.577,351.429H91.429A.429.429,0,0,1,91,351v-.572a.429.429,0,0,1,.429-.429h16.149a.429.429,0,0,1,.429.429V351A.429.429,0,0,1,107.577,351.429Z" transform="translate(-91 -350)" fill="#a8d3d8"/>
      </g>
      <g id="Grupo_1014189" data-name="Grupo 1014189" transform="translate(0 8.574)">
        <path id="Trazado_713958" data-name="Trazado 713958" d="M107.577,381.429H91.429A.429.429,0,0,1,91,381v-.572a.429.429,0,0,1,.429-.429h16.149a.429.429,0,0,1,.429.429V381A.429.429,0,0,1,107.577,381.429Z" transform="translate(-91 -380)" fill="#a8d3d8"/>
      </g>
      <g id="Grupo_1014190" data-name="Grupo 1014190" transform="translate(0 12.862)">
        <path id="Trazado_713959" data-name="Trazado 713959" d="M107.577,411.429H91.429A.429.429,0,0,1,91,411v-.572a.429.429,0,0,1,.429-.429h16.149a.429.429,0,0,1,.429.429V411A.429.429,0,0,1,107.577,411.429Z" transform="translate(-91 -410)" fill="#a8d3d8"/>
      </g>
    </g>
    <g id="Grupo_1014196" data-name="Grupo 1014196" transform="translate(20.436 33.583)">
      <g id="Grupo_1014192" data-name="Grupo 1014192">
        <path id="Trazado_713960" data-name="Trazado 713960" d="M235.572,321.429h-1.143A.429.429,0,0,1,234,321v-.572a.429.429,0,0,1,.429-.429h1.143a.429.429,0,0,1,.429.429V321A.429.429,0,0,1,235.572,321.429Z" transform="translate(-234 -320)" fill="#a8d3d8"/>
      </g>
      <g id="Grupo_1014193" data-name="Grupo 1014193" transform="translate(0 4.287)">
        <path id="Trazado_713961" data-name="Trazado 713961" d="M235.572,351.429h-1.143A.429.429,0,0,1,234,351v-.572a.429.429,0,0,1,.429-.429h1.143a.429.429,0,0,1,.429.429V351A.429.429,0,0,1,235.572,351.429Z" transform="translate(-234 -350)" fill="#a8d3d8"/>
      </g>
      <g id="Grupo_1014194" data-name="Grupo 1014194" transform="translate(0 8.574)">
        <path id="Trazado_713962" data-name="Trazado 713962" d="M235.572,381.429h-1.143A.429.429,0,0,1,234,381v-.572a.429.429,0,0,1,.429-.429h1.143a.429.429,0,0,1,.429.429V381A.429.429,0,0,1,235.572,381.429Z" transform="translate(-234 -380)" fill="#a8d3d8"/>
      </g>
      <g id="Grupo_1014195" data-name="Grupo 1014195" transform="translate(0 12.862)">
        <path id="Trazado_713963" data-name="Trazado 713963" d="M235.572,411.429h-1.143A.429.429,0,0,1,234,411v-.572a.429.429,0,0,1,.429-.429h1.143a.429.429,0,0,1,.429.429V411A.429.429,0,0,1,235.572,411.429Z" transform="translate(-234 -410)" fill="#a8d3d8"/>
      </g>
    </g>
    <g id="Grupo_1014201" data-name="Grupo 1014201" transform="translate(25.866 33.583)">
      <g id="Grupo_1014197" data-name="Grupo 1014197">
        <path id="Trazado_713964" data-name="Trazado 713964" d="M273.572,321.429h-1.143A.429.429,0,0,1,272,321v-.572a.429.429,0,0,1,.429-.429h1.143a.429.429,0,0,1,.429.429V321A.429.429,0,0,1,273.572,321.429Z" transform="translate(-272 -320)" fill="#a8d3d8"/>
      </g>
      <g id="Grupo_1014198" data-name="Grupo 1014198" transform="translate(0 4.287)">
        <path id="Trazado_713965" data-name="Trazado 713965" d="M273.572,351.429h-1.143A.429.429,0,0,1,272,351v-.572a.429.429,0,0,1,.429-.429h1.143a.429.429,0,0,1,.429.429V351A.429.429,0,0,1,273.572,351.429Z" transform="translate(-272 -350)" fill="#a8d3d8"/>
      </g>
      <g id="Grupo_1014199" data-name="Grupo 1014199" transform="translate(0 8.574)">
        <path id="Trazado_713966" data-name="Trazado 713966" d="M273.572,381.429h-1.143A.429.429,0,0,1,272,381v-.572a.429.429,0,0,1,.429-.429h1.143a.429.429,0,0,1,.429.429V381A.429.429,0,0,1,273.572,381.429Z" transform="translate(-272 -380)" fill="#a8d3d8"/>
      </g>
      <g id="Grupo_1014200" data-name="Grupo 1014200" transform="translate(0 12.862)">
        <path id="Trazado_713967" data-name="Trazado 713967" d="M273.572,411.429h-1.143A.429.429,0,0,1,272,411v-.572a.429.429,0,0,1,.429-.429h1.143a.429.429,0,0,1,.429.429V411A.429.429,0,0,1,273.572,411.429Z" transform="translate(-272 -410)" fill="#a8d3d8"/>
      </g>
    </g>
  </g>
  <g id="Grupo_1014209" data-name="Grupo 1014209" transform="translate(32.44)">
    <path id="Trazado_713968" data-name="Trazado 713968" d="M261.824,18.518a8.933,8.933,0,0,1,2.44.34A13.649,13.649,0,1,0,251.648,27.3c.412,0,.819-.019,1.221-.055A8.97,8.97,0,0,1,261.824,18.518Z" transform="translate(-238)" fill="#01c0fa"/>
    <path id="Trazado_713969" data-name="Trazado 713969" d="M253.062,25.6a13.65,13.65,0,0,1,2.587-25,13.649,13.649,0,1,0-4,26.7c.412,0,.818-.02,1.221-.056A8.945,8.945,0,0,1,253.062,25.6Z" transform="translate(-238 0)" fill="#08a9f1"/>
    <path id="Trazado_713970" data-name="Trazado 713970" d="M282,40.28a10.042,10.042,0,1,0-6.532,4.808A8.985,8.985,0,0,1,282,40.28Z" transform="translate(-259.639 -21.639)" fill="#dff6fd"/>
    <path id="Trazado_713971" data-name="Trazado 713971" d="M271.951,25.885a10.038,10.038,0,0,0,0,19.9,13.639,13.639,0,0,1,0-19.9Z" transform="translate(-259.639 -22.186)" fill="#c8effe"/>
    <g id="Grupo_1014208" data-name="Grupo 1014208" transform="translate(8.506 8.506)">
      <g id="Grupo_1014203" data-name="Grupo 1014203" transform="translate(0 3.259)">
        <path id="Trazado_713972" data-name="Trazado 713972" d="M302.066,88.57l2.479-2.479-.12-.293L301.131,82.5l-.351-.178L298.3,84.805a2.662,2.662,0,0,0,3.765,3.765Z" transform="translate(-297.522 -82.326)" fill="#fe76a8"/>
      </g>
      <g id="Grupo_1014205" data-name="Grupo 1014205" transform="translate(0 3.259)">
        <g id="Grupo_1014204" data-name="Grupo 1014204">
          <path id="Trazado_713973" data-name="Trazado 713973" d="M299.177,89.154a2.663,2.663,0,0,1,.583-2.889l2.479-2.479-1.458-1.458L298.3,84.806a2.663,2.663,0,0,0,.876,4.348Z" transform="translate(-297.522 -82.327)" fill="#fe5694"/>
        </g>
      </g>
      <g id="Grupo_1014206" data-name="Grupo 1014206" transform="translate(3.259)">
        <path id="Trazado_713974" data-name="Trazado 713974" d="M324.092,66.546l2.479-2.479a2.662,2.662,0,0,0-3.765-3.765l-2.479,2.479Z" transform="translate(-320.327 -59.522)" fill="#62dbfb"/>
      </g>
      <g id="Grupo_1014207" data-name="Grupo 1014207" transform="translate(3.259)">
        <path id="Trazado_713975" data-name="Trazado 713975" d="M321.785,64.239l2.479-2.479a2.663,2.663,0,0,1,2.889-.583,2.663,2.663,0,0,0-4.348-.876l-2.479,2.479Z" transform="translate(-320.327 -59.522)" fill="#01d0fb"/>
      </g>
    </g>
  </g>
  <g id="Grupo_1014213" data-name="Grupo 1014213" transform="translate(47.16 18.375)">
    <g id="Grupo_1014210" data-name="Grupo 1014210">
      <ellipse id="Elipse_7929" data-name="Elipse 7929" cx="9.105" cy="9.105" rx="9.105" ry="9.105" fill="#05e39c"/>
    </g>
    <g id="Grupo_1014211" data-name="Grupo 1014211">
      <path id="Trazado_713976" data-name="Trazado 713976" d="M346.788,137.687A9.106,9.106,0,0,1,353,129.054a9.1,9.1,0,1,0,0,17.264A9.106,9.106,0,0,1,346.788,137.687Z" transform="translate(-341 -128.582)" fill="#0ed290"/>
    </g>
    <g id="Grupo_1014212" data-name="Grupo 1014212" transform="translate(4.138 6.01)">
      <path id="Trazado_713977" data-name="Trazado 713977" d="M374.164,177.431a1.068,1.068,0,0,1-.758-.314l-3.136-3.136a1.072,1.072,0,0,1,1.516-1.516l2.378,2.378,3.9-3.9a1.072,1.072,0,0,1,1.516,1.516l-4.653,4.653a1.068,1.068,0,0,1-.758.314Z" transform="translate(-369.956 -170.634)" fill="#fff"/>
    </g>
  </g>
  <g id="Grupo_1014214" data-name="Grupo 1014214" transform="translate(54.305 51.733)">
    <path id="Trazado_713978" data-name="Trazado 713978" d="M393.858,363.429h-2.429A.429.429,0,0,1,391,363v-.572a.429.429,0,0,1,.429-.429h2.429a.429.429,0,0,1,.429.429V363A.429.429,0,0,1,393.858,363.429Z" transform="translate(-391 -362)" fill="#a8d3d8"/>
  </g>
  <g id="Grupo_1014215" data-name="Grupo 1014215" transform="translate(54.305 54.591)">
    <path id="Trazado_713979" data-name="Trazado 713979" d="M393.858,383.429h-2.429A.429.429,0,0,1,391,383v-.572a.429.429,0,0,1,.429-.429h2.429a.429.429,0,0,1,.429.429V383A.429.429,0,0,1,393.858,383.429Z" transform="translate(-391 -382)" fill="#a8d3d8"/>
  </g>
</svg>
