<svg xmlns="http://www.w3.org/2000/svg" width="73" height="73.169" viewBox="0 0 73 73.169">
  <g id="virus_1_" data-name="virus (1)" transform="translate(-0.351)">
    <g id="Grupo_1014223" data-name="Grupo 1014223">
      <g id="Grupo_1014222" data-name="Grupo 1014222">
        <g id="Grupo_1014221" data-name="Grupo 1014221">
          <g id="Grupo_1014220" data-name="Grupo 1014220">
            <g id="Grupo_1014219" data-name="Grupo 1014219">
              <g id="Grupo_1014218" data-name="Grupo 1014218">
                <circle id="Elipse_7931" data-name="Elipse 7931" cx="36.5" cy="36.5" r="36.5" transform="translate(0.351)" fill="#2fddd0"/>
              </g>
            </g>
          </g>
        </g>
      </g>
    </g>
    <path id="Trazado_713996" data-name="Trazado 713996" d="M120.954,84.368a36.987,36.987,0,0,0-.229-4.115L104.305,63.834l-3.541,3.594L89.087,55.751l-9.436,4.287,14.3,14.3-6.422,6.518-18.5-18.5L62.1,68.767,80.908,87.58,74.486,94.1,60.039,79.65l-4.287,9.436L67.676,101.01,64.134,104.6l16.12,16.12a37.018,37.018,0,0,0,4.115.229,36.584,36.584,0,0,0,36.585-36.585Z" transform="translate(-47.785 -47.784)" fill="#11bfae"/>
    <path id="Trazado_713997" data-name="Trazado 713997" d="M332.382,97.73l-6.672-6.672-3.032,3.032,1.82,1.82-6.883,6.883,3.032,3.032,6.883-6.883,1.82,1.82Z" transform="translate(-272.226 -78.045)" fill="#c10000"/>
    <path id="Trazado_713998" data-name="Trazado 713998" d="M105.825,320.648l-3.032-3.032L95.911,324.5l-1.82-1.82-3.032,3.032,6.672,6.672,3.032-3.032-1.82-1.82Z" transform="translate(-78.046 -272.226)" fill="#f92814"/>
    <path id="Trazado_713999" data-name="Trazado 713999" d="M329.351,322.678l-1.82,1.82-6.883-6.883-3.032,3.032,6.883,6.883-1.82,1.82,3.032,3.032,6.672-6.672Z" transform="translate(-272.226 -272.226)" fill="#c10000"/>
    <path id="Trazado_714000" data-name="Trazado 714000" d="M105.825,102.793l-6.883-6.883,1.82-1.82-3.032-3.032-6.672,6.672,3.032,3.032,1.82-1.82,6.883,6.883Z" transform="translate(-78.046 -78.046)" fill="#f92814"/>
    <g id="Grupo_1014229" data-name="Grupo 1014229" transform="translate(10.508 10.515)">
      <g id="Grupo_1014228" data-name="Grupo 1014228">
        <g id="Grupo_1014227" data-name="Grupo 1014227">
          <g id="Grupo_1014226" data-name="Grupo 1014226">
            <g id="Grupo_1014225" data-name="Grupo 1014225">
              <g id="Grupo_1014224" data-name="Grupo 1014224">
                <circle id="Elipse_7932" data-name="Elipse 7932" cx="18.436" cy="18.436" r="18.436" transform="translate(0 26.069) rotate(-45)" fill="#ff583e"/>
              </g>
            </g>
          </g>
        </g>
      </g>
    </g>
    <g id="Grupo_1014235" data-name="Grupo 1014235" transform="translate(36.585 18.148)">
      <g id="Grupo_1014234" data-name="Grupo 1014234">
        <g id="Grupo_1014233" data-name="Grupo 1014233">
          <g id="Grupo_1014232" data-name="Grupo 1014232">
            <g id="Grupo_1014231" data-name="Grupo 1014231">
              <g id="Grupo_1014230" data-name="Grupo 1014230">
                <path id="Trazado_714001" data-name="Trazado 714001" d="M274.436,145.427A18.436,18.436,0,0,0,256,126.991v36.873A18.436,18.436,0,0,0,274.436,145.427Z" transform="translate(-256 -126.991)" fill="#f92814"/>
              </g>
            </g>
          </g>
        </g>
      </g>
    </g>
    <path id="Trazado_714002" data-name="Trazado 714002" d="M232.422,55.751h-9.436v4.287h2.574v9.734h4.287V60.038h2.574Z" transform="translate(-191.119 -47.784)" fill="#f92814"/>
    <path id="Trazado_714003" data-name="Trazado 714003" d="M260.718,55.751H256V69.772h2.144V60.038h2.574Z" transform="translate(-219.415 -47.784)" fill="#c10000"/>
    <path id="Trazado_714004" data-name="Trazado 714004" d="M229.848,367.872v-9.734H225.56v9.734h-2.574v4.287h9.436v-4.287Z" transform="translate(-191.119 -306.957)" fill="#f92814"/>
    <path id="Trazado_714005" data-name="Trazado 714005" d="M258.144,367.872v-9.734H256v14.021h4.718v-4.287Z" transform="translate(-219.415 -306.957)" fill="#c10000"/>
    <path id="Trazado_714006" data-name="Trazado 714006" d="M367.872,222.987v2.574h-9.734v4.287h9.734v2.574h4.287v-9.436Z" transform="translate(-306.957 -191.12)" fill="#c10000"/>
    <path id="Trazado_714007" data-name="Trazado 714007" d="M69.773,225.561H60.039v-2.574H55.752v9.436h4.287v-2.574h9.733Z" transform="translate(-47.785 -191.12)" fill="#f92814"/>
    <g id="Grupo_1014238" data-name="Grupo 1014238" transform="translate(26.304 26.304)">
      <g id="Grupo_1014236" data-name="Grupo 1014236">
        <ellipse id="Elipse_7933" data-name="Elipse 7933" cx="3.017" cy="3.017" rx="3.017" ry="3.017" fill="#f92814"/>
      </g>
      <g id="Grupo_1014237" data-name="Grupo 1014237" transform="translate(14.526 14.526)">
        <ellipse id="Elipse_7934" data-name="Elipse 7934" cx="3.017" cy="3.017" rx="3.017" ry="3.017" fill="#c10000"/>
      </g>
    </g>
    <g id="Grupo_1014243" data-name="Grupo 1014243" transform="translate(26.304 26.304)">
      <g id="Grupo_1014239" data-name="Grupo 1014239" transform="translate(14.526)">
        <ellipse id="Elipse_7935" data-name="Elipse 7935" cx="3.017" cy="3.017" rx="3.017" ry="3.017" fill="#c10000"/>
      </g>
      <g id="Grupo_1014240" data-name="Grupo 1014240" transform="translate(6.006 6.014)">
        <circle id="Elipse_7936" data-name="Elipse 7936" cx="3.017" cy="3.017" r="3.017" transform="translate(0 4.266) rotate(-45)" fill="#f92814"/>
      </g>
      <g id="Grupo_1014241" data-name="Grupo 1014241" transform="translate(10.28 7.263)">
        <path id="Trazado_714008" data-name="Trazado 714008" d="M256,234.887v6.034a3.017,3.017,0,0,0,0-6.034Z" transform="translate(-256 -234.887)" fill="#c10000"/>
      </g>
      <g id="Grupo_1014242" data-name="Grupo 1014242" transform="translate(0 14.526)">
        <ellipse id="Elipse_7937" data-name="Elipse 7937" cx="3.017" cy="3.017" rx="3.017" ry="3.017" fill="#f92814"/>
      </g>
    </g>
  </g>
</svg>
