<svg xmlns="http://www.w3.org/2000/svg" width="75.333" height="75.333" viewBox="0 0 75.333 75.333">
  <g id="cerdo" transform="translate(0)">
    <path id="Trazado_715190" data-name="Trazado 715190" d="M75.333,37.667a37.571,37.571,0,0,1-12.143,27.7c-6.711,6.186-14.77-1.892-24.617-1.892-4.364,0-8.02.379-11.919-.986-4.9-1.716-10.775,6.322-14.511,2.878a37.667,37.667,0,1,1,63.19-27.7Z" transform="translate(0)" fill="#b3f1ff"/>
    <path id="Trazado_715191" data-name="Trazado 715191" d="M133.577,301.082a37.668,37.668,0,0,1-51.047,0L85.6,286.362a10.545,10.545,0,0,1,7.616-8.041,57.687,57.687,0,0,1,29.674,0,10.545,10.545,0,0,1,7.616,8.041Z" transform="translate(-70.387 -235.715)" fill="#ffe0a7"/>
    <path id="Trazado_715192" data-name="Trazado 715192" d="M115.406,276.851a57.8,57.8,0,0,0-7.482,1.47,10.543,10.543,0,0,0-7.617,8.041L95.6,308.939a37.654,37.654,0,0,1-13.069-7.857L85.6,286.362a10.551,10.551,0,0,1,7.616-8.041,57.68,57.68,0,0,1,22.191-1.47Z" transform="translate(-70.387 -235.715)" fill="#ffd797"/>
    <g id="Grupo_1016539" data-name="Grupo 1016539" transform="translate(0 2.862)">
      <path id="Trazado_715193" data-name="Trazado 715193" d="M20.435,49.921a7.583,7.583,0,0,0-3.9,3.155,2.822,2.822,0,0,1-2.99,1.2C-1.327,50.836-.578,38.088.519,32.5l18.621,5.6Z" transform="translate(0 -30.58)" fill="#ffc1ae"/>
      <path id="Trazado_715194" data-name="Trazado 715194" d="M28.853,34.571l-3.338,3.9a6.633,6.633,0,0,0-2.069.321l-2.362-6.86a7.967,7.967,0,0,0-4.306-4.69L3.53,21.37a2.386,2.386,0,0,1,3.14-1.782l16.269,5.763a4.628,4.628,0,0,1,2.629,2.363Z" transform="translate(-3.011 -19.45)" fill="#ffe0a7"/>
    </g>
    <g id="Grupo_1016540" data-name="Grupo 1016540" transform="translate(49.49 2.862)">
      <path id="Trazado_715195" data-name="Trazado 715195" d="M373.11,49.921a7.583,7.583,0,0,1,3.9,3.155,2.822,2.822,0,0,0,2.99,1.2c14.869-3.436,14.121-16.183,13.023-21.772L374.4,38.1Z" transform="translate(-367.703 -30.58)" fill="#ffc1ae"/>
      <path id="Trazado_715196" data-name="Trazado 715196" d="M336.36,34.571l3.339,3.9a6.633,6.633,0,0,1,2.069.321l2.362-6.86a7.967,7.967,0,0,1,4.306-4.69l13.248-5.871a2.386,2.386,0,0,0-3.14-1.782l-16.269,5.763a4.628,4.628,0,0,0-2.629,2.363Z" transform="translate(-336.36 -19.45)" fill="#ffe0a7"/>
    </g>
    <path id="Trazado_715197" data-name="Trazado 715197" d="M127.667,133.7l9.549-5.73a11,11,0,0,0,5.111-11.683l-5.491-26.326a8.457,8.457,0,0,0-6.105-6.446,46.273,46.273,0,0,0-23.787,0c-3.09.822-.948,6.517-1.6,9.647l-10,23.125c-.956,4.585,2.173,7.368,6.19,9.778l9.261,6.01c2.159,1.3,3.741,3.7,6.158,3.968a17.157,17.157,0,0,0,10.712-2.343Z" transform="translate(-81.17 -69.905)" fill="#ffe5bf"/>
    <path id="Trazado_715198" data-name="Trazado 715198" d="M116.566,135.988c.016.019.032.038.05.057a17.107,17.107,0,0,1-6.949-2.342l-9.548-5.729a11,11,0,0,1-5.111-11.684L100.5,89.964a8.459,8.459,0,0,1,6.1-6.446h0A46.277,46.277,0,0,1,120.331,82a13.847,13.847,0,0,0-5.4,1.588h0c-1.645.858-2.9,3.462-3.252,6.73l-2.924,27.489c-.509,4.788.583,9.683,2.722,12.2Z" transform="translate(-80.831 -69.904)" fill="#ffe0a7"/>
    <circle id="Elipse_7960" data-name="Elipse 7960" cx="8.039" cy="8.039" r="8.039" transform="translate(29.627 41.151)" fill="#f4ad9d"/>
    <ellipse id="Elipse_7961" data-name="Elipse 7961" cx="4.622" cy="3.679" rx="4.622" ry="3.679" transform="translate(33.045 45.599)" fill="#fd5758"/>
    <path id="Trazado_715199" data-name="Trazado 715199" d="M194.058,247.06l-4.99-4.99a8.2,8.2,0,0,0-11.589,0l-4.99,4.99a6.016,6.016,0,0,0,0,8.508c.906.906,2.028.494,3.2.7s2.394,1.033,3.5.543A6,6,0,0,0,181,255.568a3.219,3.219,0,0,1,4.553,0,6.016,6.016,0,0,0,8.508-8.508Z" transform="translate(-145.607 -204.406)" fill="#ffc1ae"/>
    <path id="Trazado_715200" data-name="Trazado 715200" d="M177.382,247.055a6.018,6.018,0,0,0,1.811,9.752,6.017,6.017,0,0,1-6.7-9.752l4.991-4.991a8.193,8.193,0,0,1,8.238-2.029,8.156,8.156,0,0,0-3.352,2.029Z" transform="translate(-145.612 -204.401)" fill="#f4ad9d"/>
    <g id="Grupo_1016541" data-name="Grupo 1016541" transform="translate(28.443 42.512)">
      <ellipse id="Elipse_7962" data-name="Elipse 7962" cx="3.186" cy="1.979" rx="3.186" ry="1.979" transform="translate(0 4.505) rotate(-45)" fill="#516666"/>
      <ellipse id="Elipse_7963" data-name="Elipse 7963" cx="1.979" cy="3.186" rx="1.979" ry="3.186" transform="translate(11.126 2.8) rotate(-45)" fill="#516666"/>
    </g>
    <g id="Grupo_1016542" data-name="Grupo 1016542" transform="translate(19.071 29.131)">
      <ellipse id="Elipse_7964" data-name="Elipse 7964" cx="2.55" cy="3.084" rx="2.55" ry="3.084" transform="translate(0 0)" fill="#516666"/>
      <path id="Trazado_715201" data-name="Trazado 715201" d="M133.445,203.741a2.211,2.211,0,0,1-1.275.413,3.14,3.14,0,0,1,0-6.168,2.211,2.211,0,0,1,1.275.413,3.435,3.435,0,0,0,0,5.341Z" transform="translate(-129.62 -197.987)" fill="#384948"/>
      <ellipse id="Elipse_7965" data-name="Elipse 7965" cx="2.55" cy="3.084" rx="2.55" ry="3.084" transform="translate(32.089 0)" fill="#516666"/>
      <path id="Trazado_715202" data-name="Trazado 715202" d="M351.536,203.741a2.21,2.21,0,0,1-1.274.413,3.14,3.14,0,0,1,0-6.168,2.211,2.211,0,0,1,1.274.413,3.435,3.435,0,0,0,0,5.341Z" transform="translate(-315.622 -197.987)" fill="#384948"/>
    </g>
  </g>
</svg>
