<svg xmlns="http://www.w3.org/2000/svg" xmlns:xlink="http://www.w3.org/1999/xlink" width="96" height="95" viewBox="0 0 96 95">
  <defs>
    <linearGradient id="linear-gradient" x1="0.5" x2="0.5" y2="1" gradientUnits="objectBoundingBox">
      <stop offset="0" stop-color="#fff"/>
      <stop offset="1" stop-color="#e9e9e9"/>
    </linearGradient>
    <filter id="Elipse_7971" x="0" y="0" width="96" height="95" filterUnits="userSpaceOnUse">
      <feOffset dy="3" input="SourceAlpha"/>
      <feGaussianBlur stdDeviation="3" result="blur"/>
      <feFlood flood-opacity="0.161"/>
      <feComposite operator="in" in2="blur"/>
      <feComposite in="SourceGraphic"/>
    </filter>
  </defs>
  <g id="Grupo_1017126" data-name="Grupo 1017126" transform="translate(-329 -4072)">
    <g transform="matrix(1, 0, 0, 1, 329, 4072)" filter="url(#Elipse_7971)">
      <ellipse id="Elipse_7971-2" data-name="Elipse 7971" cx="39" cy="38.5" rx="39" ry="38.5" transform="translate(9 6)" fill="url(#linear-gradient)"/>
    </g>
    <g id="medicamentos" transform="translate(344.654 4085.22)">
      <path id="Trazado_716474" data-name="Trazado 716474" d="M.415,37.113A31.953,31.953,0,1,1,63.9,31.951a32.175,32.175,0,0,1-.414,5.158A1.3,1.3,0,0,1,62.21,38.2H1.692a1.3,1.3,0,0,1-1.277-1.09Z" transform="translate(0 0)" fill="#0a66ea"/>
      <path id="Trazado_716475" data-name="Trazado 716475" d="M66.356,297.025a31.956,31.956,0,0,1-51.8,19.592c-.238-.2.042-.91-.19-1.112a31.458,31.458,0,0,1-5.211-6.06c-.211-.307-1.1-.068-1.3-.383A31.755,31.755,0,0,1,3.27,297.025Z" transform="translate(-2.862 -259.954)" fill="#0a4499"/>
      <path id="Trazado_716476" data-name="Trazado 716476" d="M173.732,1.248V26.21a1.248,1.248,0,0,1-1.248,1.248h-9.236A1.248,1.248,0,0,1,162,26.21V1.248A1.248,1.248,0,0,1,163.248,0h9.236A1.248,1.248,0,0,1,173.732,1.248Z" transform="translate(-141.781 0)" fill="#ffb52d"/>
      <path id="Trazado_716477" data-name="Trazado 716477" d="M263.714,1.248V26.21a1.248,1.248,0,0,1-1.248,1.248H241.248A1.248,1.248,0,0,1,240,26.21V0h11.108l.935.582,4.474.048L257.349,0h5.117A1.248,1.248,0,0,1,263.714,1.248Z" transform="translate(-210.046 0)" fill="#ffc14f"/>
      <path id="Trazado_716478" data-name="Trazado 716478" d="M271.954,226.712H243.248A1.248,1.248,0,0,1,242,225.464V203.248A1.248,1.248,0,0,1,243.248,202h28.706a1.248,1.248,0,0,1,1.248,1.248v22.216A1.248,1.248,0,0,1,271.954,226.712Z" transform="translate(-211.796 -176.789)" fill="#76b6fa"/>
      <path id="Trazado_716479" data-name="Trazado 716479" d="M367.388,226.712h-15.1a1.248,1.248,0,0,1-1.248-1.248V203.248A1.248,1.248,0,0,1,352.291,202h15.1a1.248,1.248,0,0,1,1.248,1.248v22.216A1.248,1.248,0,0,1,367.388,226.712Z" transform="translate(-307.229 -176.789)" fill="#86befb"/>
      <path id="Trazado_716480" data-name="Trazado 716480" d="M345.656,230.189a2.828,2.828,0,1,1-2.828-2.828A2.828,2.828,0,0,1,345.656,230.189Zm7.07,2.828a2.828,2.828,0,1,0-2.828-2.828A2.828,2.828,0,0,0,352.726,233.017Zm-9.9,7.07a2.828,2.828,0,1,0,2.828,2.828A2.828,2.828,0,0,0,342.828,240.087Zm9.9,0a2.828,2.828,0,1,0,2.828,2.828A2.828,2.828,0,0,0,352.726,240.087Z" transform="translate(-297.565 -198.984)" fill="#fff5f5"/>
      <path id="Trazado_716481" data-name="Trazado 716481" d="M288.21,296.624a.624.624,0,0,1-.624.624H262.624a.624.624,0,1,1,0-1.248h24.962A.624.624,0,0,1,288.21,296.624Z" transform="translate(-229.3 -259.056)" fill="#55a4f9"/>
      <path id="Trazado_716482" data-name="Trazado 716482" d="M335.241,0V13.3a.624.624,0,0,1-.624.624h-4.992A.624.624,0,0,1,329,13.3V0Z" transform="translate(-287.938 0)" fill="#ffe7c0"/>
      <path id="Trazado_716483" data-name="Trazado 716483" d="M340.242,14.915a.624.624,0,0,1-.624.624h-1.04v1.04a.624.624,0,0,1-1.248,0v-1.04h-1.04a.624.624,0,1,1,0-1.248h1.04v-1.04a.624.624,0,0,1,1.248,0v1.04h1.04A.624.624,0,0,1,340.242,14.915Z" transform="translate(-293.772 -11.051)" fill="#f44545"/>
      <path id="Trazado_716484" data-name="Trazado 716484" d="M340.242,63.311a.624.624,0,0,1-.624.624H336.29a.624.624,0,1,1,0-1.248h3.328A.624.624,0,0,1,340.242,63.311Zm-.927,1.49h-2.723a.637.637,0,0,0,0,1.248h2.723a.637.637,0,0,0,0-1.248Z" transform="translate(-293.772 -54.863)" fill="#ff9d60"/>
      <path id="Trazado_716485" data-name="Trazado 716485" d="M176.456,219.208H161.248A1.248,1.248,0,0,1,160,217.96V193.248A1.248,1.248,0,0,1,161.248,192h15.208a1.248,1.248,0,0,1,1.248,1.248V217.96A1.248,1.248,0,0,1,176.456,219.208Z" transform="translate(-140.03 -168.037)" fill="#169b62"/>
      <path id="Trazado_716486" data-name="Trazado 716486" d="M281.039,219.208h-2.882a1.248,1.248,0,0,1-1.248-1.248V193.248A1.248,1.248,0,0,1,278.157,192h2.882a1.248,1.248,0,0,1,1.248,1.248V217.96A1.248,1.248,0,0,1,281.039,219.208Z" transform="translate(-242.348 -168.037)" fill="#1ab975"/>
      <path id="Trazado_716487" data-name="Trazado 716487" d="M206.21,391.29a3.12,3.12,0,0,1-3.12,3.12H183.12a3.12,3.12,0,1,1,0-6.24H203.09A3.12,3.12,0,0,1,206.21,391.29Z" transform="translate(-157.534 -339.723)" fill="#ffcd71"/>
      <path id="Trazado_716488" data-name="Trazado 716488" d="M80.053,107.489H72.5a2.5,2.5,0,0,1-2.5-2.5v-2.5a2.5,2.5,0,0,1,2.5-2.5h7.556a2.5,2.5,0,0,1,2.5,2.5v2.5A2.5,2.5,0,0,1,80.053,107.489Z" transform="translate(-61.263 -87.519)" fill="#d63030"/>
      <path id="Trazado_716489" data-name="Trazado 716489" d="M130.934,107.489h-7.353a2.5,2.5,0,0,1-2.5-2.5v-2.5a2.5,2.5,0,0,1,2.5-2.5h7.353a2.5,2.5,0,0,1,2.5,2.5v2.5A2.5,2.5,0,0,1,130.934,107.489Z" transform="translate(-105.972 -87.519)" fill="#f44545"/>
      <path id="Trazado_716490" data-name="Trazado 716490" d="M66.21,154.992V182.95a4.992,4.992,0,0,1-4.992,4.992H46.7a32.119,32.119,0,0,1-6.7-7.555v-2.929l.582-.778.191-18.259L40,157.489v-2.5A4.992,4.992,0,0,1,44.992,150H61.218a4.992,4.992,0,0,1,4.992,4.992Z" transform="translate(-35.007 -131.279)" fill="#c8e2fd"/>
      <path id="Trazado_716491" data-name="Trazado 716491" d="M98.17,181.951a10.106,10.106,0,0,1-10.106-10.106V154.992A4.992,4.992,0,0,1,93.056,150h10.226a4.992,4.992,0,0,1,4.992,4.992v16.853A10.106,10.106,0,0,1,98.17,181.951Z" transform="translate(-77.073 -131.279)" fill="#e9f3fe"/>
      <path id="Trazado_716492" data-name="Trazado 716492" d="M267.489,398.794v2.5a.624.624,0,0,1-.624.624h-6.24a.624.624,0,0,1-.624-.624v-2.5a.624.624,0,0,1,.624-.624h6.24A.624.624,0,0,1,267.489,398.794Z" transform="translate(-227.549 -348.475)" fill="#f29500"/>
      <path id="Trazado_716493" data-name="Trazado 716493" d="M47.809,229.969H40V210h6.106a2.612,2.612,0,0,1,2.612,2.612V229.06A.91.91,0,0,1,47.809,229.969Z" transform="translate(-35.007 -183.79)" fill="#ffc14f"/>
      <path id="Trazado_716494" data-name="Trazado 716494" d="M97.042,210.624v18.721a.624.624,0,0,1-.624.624H89.765a10.059,10.059,0,0,1-1.7-5.612V210h8.354A.624.624,0,0,1,97.042,210.624Z" transform="translate(-77.073 -183.79)" fill="#ffcd71"/>
      <path id="Trazado_716495" data-name="Trazado 716495" d="M70,240.624a.624.624,0,0,1,.624-.624h7.489a.624.624,0,0,1,0,1.248H70.624A.624.624,0,0,1,70,240.624Zm1.872,5.616h6.24a.624.624,0,0,0,0-1.248h-6.24a.624.624,0,0,0,0,1.248Zm3.744,7.489h2.5a.624.624,0,0,0,0-1.248h-2.5a.624.624,0,0,0,0,1.248Zm-1.248-9.985h3.744a.624.624,0,0,0,0-1.248H74.368a.624.624,0,0,0,0,1.248Z" transform="translate(-61.263 -210.046)" fill="#ffa90b"/>
      <path id="Trazado_716496" data-name="Trazado 716496" d="M289.992,461.914h-3.12a1.872,1.872,0,1,1,0-3.744h3.12a1.872,1.872,0,1,1,0,3.744Z" transform="translate(-249.429 -400.986)" fill="#fff5f5"/>
      <path id="Trazado_716497" data-name="Trazado 716497" d="M265.868,461.914h-3a1.872,1.872,0,1,1,0-3.744h3Z" transform="translate(-228.425 -400.986)" fill="#f44545"/>
    </g>
  </g>
</svg>
