<svg xmlns="http://www.w3.org/2000/svg" xmlns:xlink="http://www.w3.org/1999/xlink" width="96" height="95" viewBox="0 0 96 95">
  <defs>
    <linearGradient id="linear-gradient" x1="0.5" x2="0.5" y2="1" gradientUnits="objectBoundingBox">
      <stop offset="0" stop-color="#fff"/>
      <stop offset="1" stop-color="#e9e9e9"/>
    </linearGradient>
    <filter id="Elipse_7969" x="0" y="0" width="96" height="95" filterUnits="userSpaceOnUse">
      <feOffset dy="3" input="SourceAlpha"/>
      <feGaussianBlur stdDeviation="3" result="blur"/>
      <feFlood flood-opacity="0.161"/>
      <feComposite operator="in" in2="blur"/>
      <feComposite in="SourceGraphic"/>
    </filter>
  </defs>
  <g id="Grupo_1017125" data-name="Grupo 1017125" transform="translate(-749 -3855)">
    <g transform="matrix(1, 0, 0, 1, 749, 3855)" filter="url(#Elipse_7969)">
      <ellipse id="Elipse_7969-2" data-name="Elipse 7969" cx="39" cy="38.5" rx="39" ry="38.5" transform="translate(9 6)" fill="url(#linear-gradient)"/>
    </g>
    <g id="grasas-trans" transform="translate(764.598 3866.857)">
      <path id="Trazado_716468" data-name="Trazado 716468" d="M63.9,31.951A31.951,31.951,0,1,1,31.951,0,31.8,31.8,0,0,1,63.9,31.951Z" transform="translate(0 0)" fill="#c4e2ff"/>
      <path id="Trazado_716469" data-name="Trazado 716469" d="M274.066,169.981a14.806,14.806,0,0,1-.14,2.036,32.094,32.094,0,0,1-12.432,12.638,14.86,14.86,0,0,1-17.124-14.674c0-8.2,14.849-27.321,14.849-27.321S274.066,161.78,274.066,169.981Z" transform="translate(-213.87 -124.855)" fill="#f1d333"/>
      <path id="Trazado_716470" data-name="Trazado 716470" d="M259.222,184.828a14.848,14.848,0,0,1-14.849-14.847c0-8.2,14.849-27.321,14.849-27.321s-8.1,19.12-8.1,27.321S254.748,184.828,259.222,184.828Z" transform="translate(-213.873 -124.855)" fill="#e7a52e"/>
      <path id="Trazado_716471" data-name="Trazado 716471" d="M64.715,31.219C64.715,21.849,47.748,0,47.748,0S30.781,21.849,30.781,31.219a16.967,16.967,0,0,0,33.934,0Z" transform="translate(-26.939 0)" fill="#f1d333"/>
      <path id="Trazado_716472" data-name="Trazado 716472" d="M47.748,48.186A16.966,16.966,0,0,1,30.781,31.22C30.781,21.849,47.748,0,47.748,0S39.86,21.849,39.86,31.22,43.392,48.186,47.748,48.186Z" transform="translate(-26.939 0)" fill="#e7a52e"/>
      <g id="Grupo_1017119" data-name="Grupo 1017119" transform="translate(30.327 26.77)">
        <ellipse id="Elipse_7992" data-name="Elipse 7992" cx="2.241" cy="4.815" rx="2.241" ry="4.815" fill="#f9ef63"/>
        <ellipse id="Elipse_7993" data-name="Elipse 7993" cx="2.241" cy="4.815" rx="2.241" ry="4.815" transform="translate(22.894 14.028)" fill="#f9ef63"/>
      </g>
    </g>
  </g>
</svg>
