<svg xmlns="http://www.w3.org/2000/svg" width="782" height="379.488" viewBox="0 0 782 379.488">
  <g id="Grupo_1017130" data-name="Grupo 1017130" transform="translate(7634.667 5616.285)">
    <text id="Alimentación_" data-name="Alimentación " transform="translate(-7572.042 -5432.384)" fill="#12263f" font-size="16" font-family="Roboto-Bold, Roboto" font-weight="700"><tspan x="0" y="17">Alimentación </tspan></text>
    <text id="Sanidad_y_Bioseguridad" data-name="Sanidad y Bioseguridad" transform="translate(-7601.282 -5311.014)" fill="#12263f" font-size="16" font-family="Roboto-Bold, Roboto" font-weight="700"><tspan x="46.356" y="17">Sanidad y </tspan><tspan x="33.902" y="41">Bioseguridad</tspan></text>
    <text id="Transporte" transform="translate(-7290.091 -5433.176)" fill="#12263f" font-size="16" font-family="Roboto-Bold, Roboto" font-weight="700"><tspan x="0" y="17">Transporte</tspan></text>
    <text id="Instalaciones_y_Bienestar_" data-name="Instalaciones y Bienestar
" transform="translate(-7597.546 -5588.788)" fill="#12263f" font-size="16" font-family="Roboto-Bold, Roboto" font-weight="700"><tspan x="25.538" y="17">Instalaciones y </tspan><tspan x="45.23" y="41">Bienestar</tspan></text>
    <text id="Saneamiento_Básico" data-name="Saneamiento Básico" transform="translate(-7338.417 -5297.797)" fill="#12263f" font-size="16" font-family="Roboto-Bold, Roboto" font-weight="700"><tspan x="16.77" y="17">Saneamiento Básico</tspan></text>
    <text id="Registro_y_Documentación_" data-name="Registro y Documentación
" transform="translate(-7058.809 -5585.348)" fill="#12263f" font-size="16" font-family="Roboto-Bold, Roboto" font-weight="700"><tspan x="54.106" y="17">Registro y </tspan><tspan x="33.957" y="41">Documentación</tspan></text>
    <text id="MIP" transform="translate(-7057.875 -5441.801)" fill="#12263f" font-size="16" font-family="Roboto-Bold, Roboto" font-weight="700"><tspan x="75.848" y="17">MIP</tspan></text>
    <text id="Almacenamiento_de_Insumos_" data-name="Almacenamiento de Insumos
" transform="translate(-7058.809 -5301.727)" fill="#12263f" font-size="16" font-family="Roboto-Bold, Roboto" font-weight="700"><tspan x="18.578" y="17">Almacenamiento de </tspan><tspan x="59.383" y="41">Insumos</tspan></text>
    <text id="Medicamentos_Veterinarios_" data-name="Medicamentos Veterinarios
" transform="translate(-7338.417 -5586.13)" fill="#12263f" font-size="16" font-family="Roboto-Bold, Roboto" font-weight="700"><tspan x="36.973" y="17">Medicamentos </tspan><tspan x="46.281" y="41">Veterinarios</tspan></text>
    <g id="Rectángulo_351587" data-name="Rectángulo 351587" transform="translate(-7634.667 -5475.541)" fill="none" stroke="#ffa686" stroke-width="1">
      <rect width="229.722" height="95.25" rx="26" stroke="none"/>
      <rect x="0.5" y="0.5" width="228.722" height="94.25" rx="25.5" fill="none"/>
    </g>
    <g id="Rectángulo_351588" data-name="Rectángulo 351588" transform="translate(-7634.667 -5335.467)" fill="none" stroke="#ffa686" stroke-width="1">
      <rect width="229.722" height="95.25" rx="26" stroke="none"/>
      <rect x="0.5" y="0.5" width="228.722" height="94.25" rx="25.5" fill="none"/>
    </g>
    <g id="Rectángulo_351589" data-name="Rectángulo 351589" transform="translate(-7362.93 -5476.333)" fill="none" stroke="#ffa686" stroke-width="1">
      <rect width="229.722" height="95.25" rx="26" stroke="none"/>
      <rect x="0.5" y="0.5" width="228.722" height="94.25" rx="25.5" fill="none"/>
    </g>
    <g id="Rectángulo_351593" data-name="Rectángulo 351593" transform="translate(-7634.667 -5616.285)" fill="none" stroke="#ffa686" stroke-width="1">
      <rect width="229.716" height="95.332" rx="26" stroke="none"/>
      <rect x="0.5" y="0.5" width="228.716" height="94.332" rx="25.5" fill="none"/>
    </g>
    <g id="Rectángulo_351590" data-name="Rectángulo 351590" transform="translate(-7362.93 -5335.588)" fill="none" stroke="#ffa686" stroke-width="1">
      <rect width="229.722" height="95.25" rx="26" stroke="none"/>
      <rect x="0.5" y="0.5" width="228.722" height="94.25" rx="25.5" fill="none"/>
    </g>
    <g id="Rectángulo_351591" data-name="Rectángulo 351591" transform="translate(-7083.322 -5610.104)" fill="none" stroke="#ffa686" stroke-width="1">
      <rect width="229.722" height="95.25" rx="26" stroke="none"/>
      <rect x="0.5" y="0.5" width="228.722" height="94.25" rx="25.5" fill="none"/>
    </g>
    <g id="Rectángulo_351595" data-name="Rectángulo 351595" transform="translate(-7082.388 -5475.876)" fill="none" stroke="#ffa686" stroke-width="1">
      <rect width="229.722" height="95.25" rx="26" stroke="none"/>
      <rect x="0.5" y="0.5" width="228.722" height="94.25" rx="25.5" fill="none"/>
    </g>
    <g id="Rectángulo_351592" data-name="Rectángulo 351592" transform="translate(-7083.322 -5332.329)" fill="none" stroke="#ffa686" stroke-width="1">
      <rect width="229.722" height="95.25" rx="26" stroke="none"/>
      <rect x="0.5" y="0.5" width="228.722" height="94.25" rx="25.5" fill="none"/>
    </g>
    <g id="Rectángulo_351594" data-name="Rectángulo 351594" transform="translate(-7362.93 -5613.361)" fill="none" stroke="#ffa686" stroke-width="1">
      <rect width="229.722" height="95.25" rx="26" stroke="none"/>
      <rect x="0.5" y="0.5" width="228.722" height="94.25" rx="25.5" fill="none"/>
    </g>
    <g id="Grupo_1014254" data-name="Grupo 1014254" transform="translate(549.941 37.891)">
      <path id="Trazado_714009" data-name="Trazado 714009" d="M-7515.809-5552.745v35.412" transform="translate(-0.691)" fill="none" stroke="#ffa686" stroke-width="1"/>
      <circle id="Elipse_7938" data-name="Elipse 7938" cx="4.5" cy="4.5" r="4.5" transform="translate(-7521 -5526)" fill="#ffa686"/>
    </g>
    <g id="Grupo_1014252" data-name="Grupo 1014252" transform="translate(-14760.069 -11028.286) rotate(180)">
      <path id="Trazado_714009-2" data-name="Trazado 714009" d="M-7515.809-5552.745v35.412" transform="translate(-0.691)" fill="none" stroke="#ffa686" stroke-width="1"/>
      <circle id="Elipse_7938-2" data-name="Elipse 7938" cx="4.5" cy="4.5" r="4.5" transform="translate(-7521 -5526)" fill="#ffa686"/>
    </g>
    <g id="Grupo_1014255" data-name="Grupo 1014255" transform="translate(549.941 171.662)">
      <path id="Trazado_714009-3" data-name="Trazado 714009" d="M-7515.809-5552.745v35.412" transform="translate(-0.691)" fill="none" stroke="#ffa686" stroke-width="1"/>
      <circle id="Elipse_7938-3" data-name="Elipse 7938" cx="4.5" cy="4.5" r="4.5" transform="translate(-7521 -5526)" fill="#ffa686"/>
    </g>
    <g id="Grupo_1014251" data-name="Grupo 1014251" transform="translate(-14760.069 -10888.212) rotate(180)">
      <path id="Trazado_714009-4" data-name="Trazado 714009" d="M-7515.809-5552.745v35.412" transform="translate(-0.691)" fill="none" stroke="#ffa686" stroke-width="1"/>
      <circle id="Elipse_7938-4" data-name="Elipse 7938" cx="4.5" cy="4.5" r="4.5" transform="translate(-7521 -5526)" fill="#ffa686"/>
    </g>
    <g id="Grupo_1014250" data-name="Grupo 1014250" transform="translate(-1852.2 -12800.412) rotate(-90)">
      <path id="Trazado_714009-5" data-name="Trazado 714009" d="M-7515.809-5552.745v35.412" transform="translate(-0.691)" fill="none" stroke="#ffa686" stroke-width="1"/>
      <circle id="Elipse_7938-5" data-name="Elipse 7938" cx="4.5" cy="4.5" r="4.5" transform="translate(-7521 -5526)" fill="#ffa686"/>
    </g>
    <g id="Grupo_1014253" data-name="Grupo 1014253" transform="translate(-1580.463 -13082.236) rotate(-90)">
      <path id="Trazado_714009-6" data-name="Trazado 714009" d="M-7515.809-5552.745v35.412" transform="translate(-0.691)" fill="none" stroke="#ffa686" stroke-width="1"/>
      <circle id="Elipse_7938-6" data-name="Elipse 7938" cx="4.5" cy="4.5" r="4.5" transform="translate(-7521 -5526)" fill="#ffa686"/>
    </g>
  </g>
</svg>
