<svg xmlns="http://www.w3.org/2000/svg" xmlns:xlink="http://www.w3.org/1999/xlink" width="1070" height="538.427" viewBox="0 0 1070 538.427">
  <defs>
    <clipPath id="clip-path">
      <rect id="Rectángulo_352355" data-name="Rectángulo 352355" width="303" height="114" transform="translate(0.03 0.261)" fill="#eff5d6"/>
    </clipPath>
    <clipPath id="clip-path-2">
      <rect id="Rectángulo_352358" data-name="Rectángulo 352358" width="461.948" height="222.139" fill="none" stroke="#adce32" stroke-width="1"/>
    </clipPath>
    <clipPath id="clip-path-3">
      <rect id="Rectángulo_352362" data-name="Rectángulo 352362" width="204" height="114" rx="47" transform="translate(-0.026 0.24)" fill="#eff5d6"/>
    </clipPath>
    <clipPath id="clip-path-4">
      <rect id="Rectángulo_352361" data-name="Rectángulo 352361" width="456.719" height="222.139" fill="none" stroke="#0b481e" stroke-width="1"/>
    </clipPath>
    <clipPath id="clip-path-5">
      <rect id="Rectángulo_352360" data-name="Rectángulo 352360" width="303" height="114" transform="translate(0.353 0.261)" fill="#fff"/>
    </clipPath>
    <clipPath id="clip-path-6">
      <rect id="Rectángulo_352359" data-name="Rectángulo 352359" width="461.948" height="143.355" fill="#fff" stroke="#ffa686" stroke-width="1" stroke-dasharray="5"/>
    </clipPath>
    <clipPath id="clip-path-7">
      <rect id="Rectángulo_347796" data-name="Rectángulo 347796" width="40.952" height="97.262" fill="none"/>
    </clipPath>
  </defs>
  <g id="Grupo_1016561" data-name="Grupo 1016561" transform="translate(-265 -4694.145)">
    <g id="Grupo_1016546" data-name="Grupo 1016546" transform="translate(284.696 4694.145)">
      <rect id="Rectángulo_352345" data-name="Rectángulo 352345" width="505" height="252" rx="40" transform="translate(0.304)" fill="#f6f6f6"/>
      <rect id="Rectángulo_352346" data-name="Rectángulo 352346" width="505" height="252" rx="40" transform="translate(525.304)" fill="#f6f6f6"/>
      <rect id="Rectángulo_352347" data-name="Rectángulo 352347" width="505" height="252" rx="40" transform="translate(0.304 267)" fill="#f6f6f6"/>
      <rect id="Rectángulo_352348" data-name="Rectángulo 352348" width="505" height="252" rx="40" transform="translate(525.304 267)" fill="#f6f6f6"/>
    </g>
    <text id="Gestación_1" data-name="Gestación 1" transform="translate(333.61 5140.476)" fill="#12263f" font-size="16" font-family="Roboto-Bold, Roboto" font-weight="700"><tspan x="33.922" y="17">Gestación 1</tspan></text>
    <text id="Gestación_2" data-name="Gestación 2" transform="translate(984.742 5074.977)" fill="#12263f" font-size="16" font-family="Roboto-Bold, Roboto" font-weight="700"><tspan x="33.922" y="17">Gestación 2</tspan></text>
    <g id="Rectángulo_352353" data-name="Rectángulo 352353" transform="translate(336.067 5130.283)" fill="none" stroke="#ffa686" stroke-width="1">
      <rect width="150.903" height="39.812" rx="19.906" stroke="none"/>
      <rect x="0.5" y="0.5" width="149.903" height="38.812" rx="19.406" fill="none"/>
    </g>
    <g id="Rectángulo_352354" data-name="Rectángulo 352354" transform="translate(987.199 5064.785)" fill="none" stroke="#ffa686" stroke-width="1">
      <rect width="150.903" height="39.812" rx="19.906" stroke="none"/>
      <rect x="0.5" y="0.5" width="149.903" height="38.812" rx="19.406" fill="none"/>
    </g>
    <text id="Recría_2_" data-name="Recría 2
" transform="translate(434.748 4739.297)" fill="#12263f" font-size="16" font-family="Roboto-Bold, Roboto" font-weight="700"><tspan x="47.098" y="17">Recría 2</tspan></text>
    <text id="Recría_1_" data-name="Recría 1
" transform="translate(1060.835 4739.297)" fill="#12263f" font-size="16" font-family="Roboto-Bold, Roboto" font-weight="700"><tspan x="47.098" y="17">Recría 1</tspan></text>
    <g id="Rectángulo_352349" data-name="Rectángulo 352349" transform="translate(437.205 4729.105)" fill="none" stroke="#ffa686" stroke-width="1">
      <rect width="150.903" height="39.812" rx="19.906" stroke="none"/>
      <rect x="0.5" y="0.5" width="149.903" height="38.812" rx="19.406" fill="none"/>
    </g>
    <g id="Rectángulo_352352" data-name="Rectángulo 352352" transform="translate(1063.293 4729.105)" fill="none" stroke="#ffa686" stroke-width="1">
      <rect width="150.903" height="39.812" rx="19.906" stroke="none"/>
      <rect x="0.5" y="0.5" width="149.903" height="38.812" rx="19.406" fill="none"/>
    </g>
    <g id="Grupo_1016551" data-name="Grupo 1016551" transform="translate(1104.149 4830.279) rotate(180)">
      <path id="Trazado_714009" data-name="Trazado 714009" d="M0,0V58.307" transform="translate(10.836)" fill="#0b481e" stroke="#0b481e" stroke-width="2"/>
      <path id="Trazado_715203" data-name="Trazado 715203" d="M12.907,0,6.165,8.669,0,0" transform="translate(4.383 49.637)" fill="none" stroke="#0b481e" stroke-width="2"/>
      <path id="Trazado_715204" data-name="Trazado 715204" d="M22.154,0H0" transform="translate(0 0.562)" fill="none" stroke="#0b481e" stroke-width="2"/>
    </g>
    <g id="Grupo_1016558" data-name="Grupo 1016558" transform="translate(1073.728 5064.785) rotate(180)">
      <path id="Trazado_714009-2" data-name="Trazado 714009" d="M0,0V58.307" transform="translate(10.836)" fill="#0b481e" stroke="#ffa686" stroke-width="2"/>
      <path id="Trazado_715203-2" data-name="Trazado 715203" d="M12.907,0,6.165,8.669,0,0" transform="translate(4.383 49.637)" fill="none" stroke="#ffa686" stroke-width="2"/>
      <path id="Trazado_715204-2" data-name="Trazado 715204" d="M22.154,0H0" transform="translate(0 0.562)" fill="none" stroke="#ffa686" stroke-width="2"/>
    </g>
    <g id="Grupo_1016554" data-name="Grupo 1016554" transform="translate(488.463 4768.917)">
      <path id="Trazado_714009-3" data-name="Trazado 714009" d="M-7515.809-5552.742v58.307" transform="translate(7522.262 5552.742)" fill="#0b481e" stroke="#0b481e" stroke-width="2"/>
      <path id="Trazado_715203-3" data-name="Trazado 715203" d="M-7510.493-5541.265l-6.743,8.669-6.165-8.669" transform="translate(7523.4 5590.902)" fill="none" stroke="#0b481e" stroke-width="2"/>
    </g>
    <g id="Grupo_1016559" data-name="Grupo 1016559" transform="translate(1053.468 4931.615) rotate(66)">
      <path id="Trazado_714009-4" data-name="Trazado 714009" d="M0,0V245.03" transform="translate(9.767 12.97)" fill="none" stroke="#ffa686" stroke-width="2"/>
      <path id="Trazado_715203-4" data-name="Trazado 715203" d="M16.7,0,7.974,11.214,0,0" transform="translate(1.418 246.785)" fill="none" stroke="#ffa686" stroke-width="2"/>
      <path id="Trazado_715205" data-name="Trazado 715205" d="M0,0,34.907,15.542" transform="translate(0 34.907) rotate(-90)" fill="none" stroke="#ffa686" stroke-width="2"/>
    </g>
    <g id="Grupo_1016552" data-name="Grupo 1016552" transform="translate(1056.981 4742.557) rotate(90)">
      <path id="Trazado_714009-5" data-name="Trazado 714009" d="M0,0V463.094" transform="translate(6.454)" fill="#0b481e" stroke="#0b481e" stroke-width="2"/>
      <path id="Trazado_715203-5" data-name="Trazado 715203" d="M12.907,0,6.165,8.669,0,0" transform="translate(0 453.46)" fill="none" stroke="#0b481e" stroke-width="2"/>
    </g>
    <g id="Grupo_1016560" data-name="Grupo 1016560" transform="translate(588.108 5195.289) rotate(-90)">
      <path id="Trazado_714009-6" data-name="Trazado 714009" d="M0,0V463.094" transform="translate(6.454)" fill="#0b481e" stroke="#0b481e" stroke-width="2"/>
      <path id="Trazado_715203-6" data-name="Trazado 715203" d="M12.907,0,6.165,8.669,0,0" transform="translate(0 453.46)" fill="none" stroke="#0b481e" stroke-width="2"/>
    </g>
    <rect id="Rectángulo_352357" data-name="Rectángulo 352357" width="168.081" height="52.333" rx="26" transform="translate(877.313 4867.445)" fill="#ffa686"/>
    <g id="Enmascarar_grupo_868545" data-name="Enmascarar grupo 868545" transform="translate(486.97 4831.884)" clip-path="url(#clip-path)">
      <g id="Grupo_1016548" data-name="Grupo 1016548" transform="translate(-92.468 -44.044)">
        <g id="Grupo_1016547" data-name="Grupo 1016547" clip-path="url(#clip-path-2)">
          <line id="Línea_181" data-name="Línea 181" y1="221.903" x2="129.369" transform="translate(177.372 0.118)" fill="none" stroke="#adce32" stroke-miterlimit="10" stroke-width="1"/>
          <line id="Línea_182" data-name="Línea 182" y1="221.903" x2="129.369" transform="translate(199.535 0.118)" fill="none" stroke="#adce32" stroke-miterlimit="10" stroke-width="1"/>
          <line id="Línea_183" data-name="Línea 183" y1="221.903" x2="129.369" transform="translate(221.698 0.118)" fill="none" stroke="#adce32" stroke-miterlimit="10" stroke-width="1"/>
          <line id="Línea_184" data-name="Línea 184" y1="221.903" x2="129.369" transform="translate(243.861 0.118)" fill="none" stroke="#adce32" stroke-miterlimit="10" stroke-width="1"/>
          <line id="Línea_185" data-name="Línea 185" y1="221.903" x2="129.369" transform="translate(266.025 0.118)" fill="none" stroke="#adce32" stroke-miterlimit="10" stroke-width="1"/>
          <line id="Línea_186" data-name="Línea 186" y1="221.903" x2="129.369" transform="translate(288.188 0.118)" fill="none" stroke="#adce32" stroke-miterlimit="10" stroke-width="1"/>
          <line id="Línea_187" data-name="Línea 187" y1="221.903" x2="129.369" transform="translate(310.352 0.118)" fill="none" stroke="#adce32" stroke-miterlimit="10" stroke-width="1"/>
          <line id="Línea_188" data-name="Línea 188" y1="221.903" x2="129.369" transform="translate(332.515 0.118)" fill="none" stroke="#adce32" stroke-miterlimit="10" stroke-width="1"/>
          <line id="Línea_189" data-name="Línea 189" y1="221.903" x2="129.369" transform="translate(0.065 0.118)" fill="none" stroke="#adce32" stroke-miterlimit="10" stroke-width="1"/>
          <line id="Línea_190" data-name="Línea 190" y1="221.903" x2="129.369" transform="translate(22.228 0.118)" fill="none" stroke="#adce32" stroke-miterlimit="10" stroke-width="1"/>
          <line id="Línea_191" data-name="Línea 191" y1="221.903" x2="129.369" transform="translate(44.392 0.118)" fill="none" stroke="#adce32" stroke-miterlimit="10" stroke-width="1"/>
          <line id="Línea_192" data-name="Línea 192" y1="221.903" x2="129.369" transform="translate(66.555 0.118)" fill="none" stroke="#adce32" stroke-miterlimit="10" stroke-width="1"/>
          <line id="Línea_193" data-name="Línea 193" y1="221.903" x2="129.369" transform="translate(88.718 0.118)" fill="none" stroke="#adce32" stroke-miterlimit="10" stroke-width="1"/>
          <line id="Línea_194" data-name="Línea 194" y1="221.903" x2="129.369" transform="translate(110.882 0.118)" fill="none" stroke="#adce32" stroke-miterlimit="10" stroke-width="1"/>
          <line id="Línea_195" data-name="Línea 195" y1="221.903" x2="129.369" transform="translate(133.045 0.118)" fill="none" stroke="#adce32" stroke-miterlimit="10" stroke-width="1"/>
          <line id="Línea_196" data-name="Línea 196" y1="221.903" x2="129.369" transform="translate(155.208 0.118)" fill="none" stroke="#adce32" stroke-miterlimit="10" stroke-width="1"/>
        </g>
      </g>
    </g>
    <g id="Enmascarar_grupo_868547" data-name="Enmascarar grupo 868547" transform="translate(675.76 5166.119) rotate(-90)" clip-path="url(#clip-path-3)">
      <g id="Grupo_1016557" data-name="Grupo 1016557" transform="translate(-187.198 -44.044)">
        <g id="Grupo_1016556" data-name="Grupo 1016556" clip-path="url(#clip-path-4)">
          <line id="Línea_213" data-name="Línea 213" y1="221.903" x2="127.904" transform="translate(175.364 0.118)" fill="none" stroke="#0b481e" stroke-miterlimit="10" stroke-width="1"/>
          <line id="Línea_214" data-name="Línea 214" y1="221.903" x2="127.904" transform="translate(197.276 0.118)" fill="none" stroke="#0b481e" stroke-miterlimit="10" stroke-width="1"/>
          <line id="Línea_215" data-name="Línea 215" y1="221.903" x2="127.904" transform="translate(219.188 0.118)" fill="none" stroke="#0b481e" stroke-miterlimit="10" stroke-width="1"/>
          <line id="Línea_216" data-name="Línea 216" y1="221.903" x2="127.904" transform="translate(241.101 0.118)" fill="none" stroke="#0b481e" stroke-miterlimit="10" stroke-width="1"/>
          <line id="Línea_217" data-name="Línea 217" y1="221.903" x2="127.904" transform="translate(263.013 0.118)" fill="none" stroke="#0b481e" stroke-miterlimit="10" stroke-width="1"/>
          <line id="Línea_218" data-name="Línea 218" y1="221.903" x2="127.904" transform="translate(284.926 0.118)" fill="none" stroke="#0b481e" stroke-miterlimit="10" stroke-width="1"/>
          <line id="Línea_219" data-name="Línea 219" y1="221.903" x2="127.904" transform="translate(306.838 0.118)" fill="none" stroke="#0b481e" stroke-miterlimit="10" stroke-width="1"/>
          <line id="Línea_220" data-name="Línea 220" y1="221.903" x2="127.904" transform="translate(328.75 0.118)" fill="none" stroke="#0b481e" stroke-miterlimit="10" stroke-width="1"/>
          <line id="Línea_221" data-name="Línea 221" y1="221.903" x2="127.904" transform="translate(0.064 0.118)" fill="none" stroke="#0b481e" stroke-miterlimit="10" stroke-width="1"/>
          <line id="Línea_222" data-name="Línea 222" y1="221.903" x2="127.904" transform="translate(21.977 0.118)" fill="none" stroke="#0b481e" stroke-miterlimit="10" stroke-width="1"/>
          <line id="Línea_223" data-name="Línea 223" y1="221.903" x2="127.904" transform="translate(43.889 0.118)" fill="none" stroke="#0b481e" stroke-miterlimit="10" stroke-width="1"/>
          <line id="Línea_224" data-name="Línea 224" y1="221.903" x2="127.904" transform="translate(65.801 0.118)" fill="none" stroke="#0b481e" stroke-miterlimit="10" stroke-width="1"/>
          <line id="Línea_225" data-name="Línea 225" y1="221.903" x2="127.904" transform="translate(87.714 0.118)" fill="none" stroke="#0b481e" stroke-miterlimit="10" stroke-width="1"/>
          <line id="Línea_226" data-name="Línea 226" y1="221.903" x2="127.904" transform="translate(109.626 0.118)" fill="none" stroke="#0b481e" stroke-miterlimit="10" stroke-width="1"/>
          <line id="Línea_227" data-name="Línea 227" y1="221.903" x2="127.904" transform="translate(131.539 0.118)" fill="none" stroke="#0b481e" stroke-miterlimit="10" stroke-width="1"/>
          <line id="Línea_228" data-name="Línea 228" y1="221.903" x2="127.904" transform="translate(153.451 0.118)" fill="none" stroke="#0b481e" stroke-miterlimit="10" stroke-width="1"/>
        </g>
      </g>
    </g>
    <g id="Enmascarar_grupo_868546" data-name="Enmascarar grupo 868546" transform="translate(809.647 4831.884)" clip-path="url(#clip-path-5)">
      <g id="Grupo_1016550" data-name="Grupo 1016550" transform="translate(-65.498 -7.542)" opacity="0.5">
        <g id="Grupo_1016549" data-name="Grupo 1016549" clip-path="url(#clip-path-6)">
          <line id="Línea_197" data-name="Línea 197" x2="129.369" y2="143.204" transform="translate(177.372 0.076)" fill="none" stroke="#ffa686" stroke-miterlimit="10" stroke-width="1" stroke-dasharray="5"/>
          <line id="Línea_198" data-name="Línea 198" x2="129.369" y2="143.204" transform="translate(199.535 0.076)" fill="none" stroke="#ffa686" stroke-miterlimit="10" stroke-width="1" stroke-dasharray="5"/>
          <line id="Línea_199" data-name="Línea 199" x2="129.369" y2="143.204" transform="translate(221.698 0.076)" fill="none" stroke="#ffa686" stroke-miterlimit="10" stroke-width="1" stroke-dasharray="5"/>
          <line id="Línea_200" data-name="Línea 200" x2="129.369" y2="143.204" transform="translate(243.861 0.076)" fill="none" stroke="#ffa686" stroke-miterlimit="10" stroke-width="1" stroke-dasharray="5"/>
          <line id="Línea_201" data-name="Línea 201" x2="129.369" y2="143.204" transform="translate(266.025 0.076)" fill="none" stroke="#ffa686" stroke-miterlimit="10" stroke-width="1" stroke-dasharray="5"/>
          <line id="Línea_202" data-name="Línea 202" x2="129.369" y2="143.204" transform="translate(288.188 0.076)" fill="none" stroke="#ffa686" stroke-miterlimit="10" stroke-width="1" stroke-dasharray="5"/>
          <line id="Línea_203" data-name="Línea 203" x2="129.369" y2="143.204" transform="translate(310.352 0.076)" fill="none" stroke="#ffa686" stroke-miterlimit="10" stroke-width="1" stroke-dasharray="5"/>
          <line id="Línea_204" data-name="Línea 204" x2="129.369" y2="143.204" transform="translate(332.515 0.076)" fill="none" stroke="#ffa686" stroke-miterlimit="10" stroke-width="1" stroke-dasharray="5"/>
          <line id="Línea_205" data-name="Línea 205" x2="129.369" y2="143.204" transform="translate(0.065 0.076)" fill="none" stroke="#ffa686" stroke-miterlimit="10" stroke-width="1" stroke-dasharray="5"/>
          <line id="Línea_206" data-name="Línea 206" x2="129.369" y2="143.204" transform="translate(22.228 0.076)" fill="none" stroke="#ffa686" stroke-miterlimit="10" stroke-width="1" stroke-dasharray="5"/>
          <line id="Línea_207" data-name="Línea 207" x2="129.369" y2="143.204" transform="translate(44.392 0.076)" fill="none" stroke="#ffa686" stroke-miterlimit="10" stroke-width="1" stroke-dasharray="5"/>
          <line id="Línea_208" data-name="Línea 208" x2="129.369" y2="143.204" transform="translate(66.555 0.076)" fill="none" stroke="#ffa686" stroke-miterlimit="10" stroke-width="1" stroke-dasharray="5"/>
          <line id="Línea_209" data-name="Línea 209" x2="129.369" y2="143.204" transform="translate(88.718 0.076)" fill="none" stroke="#ffa686" stroke-miterlimit="10" stroke-width="1" stroke-dasharray="5"/>
          <line id="Línea_210" data-name="Línea 210" x2="129.369" y2="143.204" transform="translate(110.882 0.076)" fill="none" stroke="#ffa686" stroke-miterlimit="10" stroke-width="1" stroke-dasharray="5"/>
          <line id="Línea_211" data-name="Línea 211" x2="129.369" y2="143.204" transform="translate(133.045 0.076)" fill="none" stroke="#ffa686" stroke-miterlimit="10" stroke-width="1" stroke-dasharray="5"/>
          <line id="Línea_212" data-name="Línea 212" x2="129.369" y2="143.204" transform="translate(155.208 0.076)" fill="none" stroke="#ffa686" stroke-miterlimit="10" stroke-width="1" stroke-dasharray="5"/>
        </g>
      </g>
    </g>
    <rect id="Rectángulo_352350" data-name="Rectángulo 352350" width="221.265" height="52.333" rx="26" transform="translate(534.649 4863.028)" fill="#deebad"/>
    <rect id="Rectángulo_352363" data-name="Rectángulo 352363" width="165.147" height="52.333" rx="26" transform="translate(708.509 5140.476) rotate(-90)" fill="#deebad"/>
    <text id="Pista_de_engorde_" data-name="Pista de engorde " transform="translate(568.602 4879.481)" fill="#12263f" font-size="16" font-family="Roboto-Bold, Roboto" font-weight="700"><tspan x="15.832" y="17">Pista de engorde </tspan></text>
    <text id="Padrillos" transform="translate(724.962 5134.582) rotate(-90)" fill="#12263f" font-size="16" font-family="Roboto-Bold, Roboto" font-weight="700"><tspan x="44.848" y="17">Padrillos</tspan></text>
    <text id="Maternidad_" data-name="Maternidad " transform="translate(911.265 4883.898)" fill="#12263f" font-size="16" font-family="Roboto-Bold, Roboto" font-weight="700"><tspan x="10.007" y="17">Maternidad </tspan></text>
    <g id="Grupo_1016553" data-name="Grupo 1016553" transform="translate(486.97 4877.877) rotate(90)">
      <path id="Trazado_714009-7" data-name="Trazado 714009" d="M0,0V210.236" transform="translate(11.077 0.001)" fill="#0b481e" stroke="#0b481e" stroke-width="2"/>
      <path id="Trazado_715203-7" data-name="Trazado 715203" d="M12.907,0,6.165,8.669,0,0" transform="translate(4.623 201.568)" fill="none" stroke="#0b481e" stroke-width="2"/>
      <path id="Trazado_715204-3" data-name="Trazado 715204" d="M22.154,0H0" fill="none" stroke="#0b481e" stroke-width="2"/>
    </g>
    <g id="Grupo_1016555" data-name="Grupo 1016555" transform="translate(675.624 5046.152) rotate(66)">
      <path id="Trazado_714009-8" data-name="Trazado 714009" d="M0,0V187.484" transform="translate(12.792 5.695)" fill="none" stroke="#ffa686" stroke-width="2"/>
      <path id="Trazado_715203-8" data-name="Trazado 715203" d="M12.775,0,6.1,8.58,0,0" transform="translate(6.405 184.598)" fill="none" stroke="#ffa686" stroke-width="2"/>
      <path id="Trazado_715205-2" data-name="Trazado 715205" d="M0,0,26.709,11.892" fill="none" stroke="#ffa686" stroke-width="2"/>
    </g>
    <path id="Trazado_715206" data-name="Trazado 715206" d="M404.124,288.459a9.414,9.414,0,0,0,1.513-4.035,10.367,10.367,0,0,0,3.353-9.92,9.883,9.883,0,0,1-3.322,8.459,7.489,7.489,0,0,0-.15-1.083,6.978,6.978,0,0,0-1.617-3.112,5.84,5.84,0,0,0-3.1-1.821,4.514,4.514,0,0,0-1.957.017,3.677,3.677,0,0,0-1.8,1.031,4.568,4.568,0,0,0-1.212,3.385,5.085,5.085,0,0,0,1.26,3.122,5.191,5.191,0,0,0,2.82,1.6,5.919,5.919,0,0,0,.828.109,5.717,5.717,0,0,1-1.384,1.173,2.814,2.814,0,0,1-.925.347c-9.853-9.557-29.256-12.022-50.128-12.68-30.354-.956-51.629,6.783-68.119,24.141-13.624,14.341-16.763,27.182-16.763,27.182-6.919-.532-11.443,6.919-17.564,7.008s3.459,5.234,6.919,6.032,7.806,3.815,12.064,3.992c.177,1.154-2.749,9.758-2.4,13.04s-5.588,6.121-5.943,7.1,2.839,7.806,7.452,7.451,10.467-4.879,10.467-4.879,20.58-11.975,24.927-18.362a11.47,11.47,0,0,1,1.086-1.347,7.147,7.147,0,0,1,1.436,5.309c-.494,3.473-1.844,9.764-1.49,11.547s-1.654,7-2.607,7.746-4.028,6.583-4.339,7.521,1.266,1.126,1.266,1.126,2.137,1.97,7.173-.751l2.423-3.378-.827,1.877s1.327.75,2.591-.939-.2-4.786,1.892-9.76,4.97-7.976,8.013-13.232a28.4,28.4,0,0,1,2.976-3.981c.6,3.469,1.088,8.187,1.393,9.726.354,1.783-1.654,7-2.607,7.746s-4.028,6.583-4.339,7.521,1.266,1.126,1.266,1.126,2.138,1.97,7.174-.751l2.423-3.378-.827,1.877s1.327.75,2.591-.939-.2-4.786,1.892-9.76,3.535-11.963,4.57-17.947a26.106,26.106,0,0,1,1.2-4.189c5.947,1.481,12.415,3.185,23.947,1.932a60.931,60.931,0,0,0,13.14-2.733,20.011,20.011,0,0,1,3.594,6.4c1.181,3.836,2.2,7.375,3.5,9.345s1.653,8.4.945,9.227-4.6,6.324-4.486,7.361,2.007,1.244,2.007,1.244a6.9,6.9,0,0,0,8.072-.117l1.063-3.733v2.074a1.756,1.756,0,0,0,2.479-1.037,9.211,9.211,0,0,0,.032-3.489,7.745,7.745,0,0,0,2.486-1.153l1.063-3.732v2.073a1.756,1.756,0,0,0,2.479-1.037c.59-1.866-.472-5.287-.59-10.782s1.653-8.813,2.479-14.619,10.014-8.42,9.319-35.858l-.141.077a22.417,22.417,0,0,0-3.687-10.705c.15-.1.3-.2.434-.3a9.984,9.984,0,0,0,2.315-2.494m-5.464-5.235a2.925,2.925,0,0,1-.516-1.857,2.1,2.1,0,0,1,.7-1.5.971.971,0,0,1,.549-.216,1.8,1.8,0,0,1,.716.1,3.293,3.293,0,0,1,2,2.768,4.265,4.265,0,0,1-.362,2.1,4.063,4.063,0,0,1-1.4-.2,3.306,3.306,0,0,1-1.687-1.195" transform="translate(886.858 4800.473)" fill="#e8e8e8"/>
    <path id="Trazado_715207" data-name="Trazado 715207" d="M198.1,138.913c-.779-.557-6.657-.354-8.139-3.094a127.445,127.445,0,0,0-7.529-10.5c1.028-2.711,1.393-7.059,1.993-9.046.677-2.24.606-9.335-1.585-5.827a5.36,5.36,0,0,1-.793.963c.558-2.576.382-8.73-1.689-5.415-2.191,3.508-8.7,3.857-10.76,8.014,0,0-5.623-2.61-23.628-4.993-16.615-2.2-30.518-.69-45.423-2.645-14.141-1.854-36.963-5.678-51.055,4.054a3.94,3.94,0,0,1-1.69-.062,4.542,4.542,0,0,1-2.325-1.612,4.036,4.036,0,0,0,.893.142,4.219,4.219,0,0,0,3.057-1.2,4.129,4.129,0,0,0,1.215-3.188,4.339,4.339,0,0,0-1.576-3.146,4.561,4.561,0,0,0-6.631.988,6.314,6.314,0,0,0-.84,1.691,10.885,10.885,0,0,1-.673-1.332,17.84,17.84,0,0,1-1.25-5.331,18.094,18.094,0,0,0,.742,5.519,11.264,11.264,0,0,0,.934,2.173c-.032.188-.068.375-.086.564-.009.147-.023.283-.026.44s0,.327.012.477a6.635,6.635,0,0,0,.116.887,8.786,8.786,0,0,0,.487,1.62,9.346,9.346,0,0,0,1.8,2.842,8.046,8.046,0,0,0,2.118,1.636,23.266,23.266,0,0,0-6.911,18.181l-.034-.015c.031.372.07.734.108,1.1.008.1.019.189.028.285.014.128.027.257.042.385q.06.552.14,1.093c2.124,15.575,9.907,21.827,10.537,26.86.666,5.331,5,9.751,6.936,14.41s1.343,6.684,1.818,8.4a1.352,1.352,0,0,0,2,.952v-1.9L60.75,186c3.522,2.761,6.283.762,6.283.762s2.055.511,2.151-.441-3.541-7.909-4.369-8.377-2.94-5.987-2.708-8.064,1.412-4.312,1.81-8.964c.034-.4.071-.845.117-1.316,1.488,4.08,4.633,7.7,6.208,11.483,1.941,4.658,1.343,6.684,1.818,8.4a1.352,1.352,0,0,0,2,.951v-1.9l.857,3.427c3.523,2.76,6.283.762,6.283.762s1.523-.19,1.618-1.143-3.54-7.909-4.369-8.377-2.94-5.986-2.708-8.064-.24-5.069.712-8.591c.18-.668.357-1.474.58-2.362,5.974,3.8,13.925,8.021,29.257,6.8a146.239,146.239,0,0,0,15.085-1.752,24.879,24.879,0,0,1,1.86,5.907c.666,5.331,2.094,8.377,2,13.422s-.952,8.186-.476,9.9a1.352,1.352,0,0,0,2,.952v-1.9l.857,3.426c3.523,2.761,6.283.762,6.283.762s1.523-.19,1.618-1.142-3.046-6-3.617-6.759-.285-6.663.762-8.472a38.94,38.94,0,0,0,2.592-7.559c.021.493.031,1,.021,1.53-.1,5.045-.952,8.186-.476,9.9a1.352,1.352,0,0,0,2,.951v-1.9l.857,3.427c3.522,2.76,6.283.761,6.283.761s1.523-.19,1.618-1.142-3.046-6-3.617-6.759-.285-6.664.762-8.472a34.953,34.953,0,0,0,2.392-6.835c7.173-.894,14.2-2.638,17.492-4.23,6.872-3.317,16.147-2.251,20.755-2.539,3.038-.19,10.8-1.734,11.611-4.4.51-.3.993-.588,1.438-.875,3.58-2.305,2.494-7.71,1.715-8.268M44.695,103.843a2.031,2.031,0,0,1,1.3-1.046,2.344,2.344,0,0,1,1.772.3,2.3,2.3,0,0,1,.987,1.582,2.351,2.351,0,0,1-.506,1.9,2.737,2.737,0,0,1-1.88.964,3.423,3.423,0,0,1-1.867-.512,3.69,3.69,0,0,1-.259-1.241,3.953,3.953,0,0,1,.456-1.941" transform="translate(288.084 4894.986)" fill="#e8e8e8"/>
    <path id="Trazado_715208" data-name="Trazado 715208" d="M165.117,322.546c-1.086-3.942-3.022-2.119-3.449-1.858-1.857,0-2.428-3.571-5.856-12.284-2.2-5.593-3.554-9.516-7.278-12.416.551-1.838.427-3.683.779-5.844.368-2.265,2.4-4.9,4.713-8.134,3.156-4.425-12.142-1.418-14.52.532a39.123,39.123,0,0,0-6.49,6.941c-.749-.53-1.511-1.03-2.281-1.486-2.646-1.566-18.224-2.207-14.431,1.685l.071.072c-1.768.071-3.259.185-4.364.3C98.586,291.5,63.078,310.316,57.767,317.3c-5.528,7.273-10.906,19.569-11.048,30.669a8.256,8.256,0,0,0-7,1.149,5.931,5.931,0,0,0-1.508,1.551,5.015,5.015,0,0,0-.253.435c-.091.011-.183.013-.273.027a5.484,5.484,0,0,0-3.715,2.08,3.865,3.865,0,0,0-.666,2.019,5.915,5.915,0,0,0,.3,2.056,4.384,4.384,0,0,1,.7-3.824,4.782,4.782,0,0,1,3.307-1.49,4.472,4.472,0,0,0-.179.836,6.462,6.462,0,0,0,4.269,6.344,4.276,4.276,0,0,0,2.129.077,3.456,3.456,0,0,0,1.915-1.149,3.085,3.085,0,0,0,.693-2.143,4.319,4.319,0,0,0-.625-1.906l-.031-.052-.008-.011a7.241,7.241,0,0,0-3.669-2.487,4.961,4.961,0,0,1,1.65-.295,4.191,4.191,0,0,1,2.153.532,2.569,2.569,0,0,1,1.149,1.4c.005.015.013.031.019.047.009.059.016.12.025.179,2.014,12.274,11.219,13.424,17.068,12.561,12.9,1.821,23.954,1.525,24.047.921a1.69,1.69,0,0,0-.222-1.085s4.186,2.1,12.064,1.549c1.729.065.7-2.649.7-2.649s3.625.186,3.392-.7-2.56-5.043-5.062-6.731c-2.777-1.874-9.111-1.122-14.4.733,9.049-2.767,13.664-10.666,15.258-14.009,1.194,5.235,6.329,9.625,7.813,13.918-.1,5.376-.956,7.062-.448,8.887a1.44,1.44,0,0,0,2.13,1.014V365.73l.913,3.652c3.753,2.941,6.695.811,6.695.811s1.622-.2,1.724-1.217-2.782-8.459-3.39-9.271-.739-8.437-1.673-10.458c-1.06-2.3-.979-6.484.169-10.755.825-.293,1.573-.573,2.26-.842.019.159.036.326.055.482.71,5.68,6.416,10.352,7.992,14.916-.1,5.376-.956,7.061-.448,8.887a1.44,1.44,0,0,0,2.13,1.014V360.92l.913,3.651c3.753,2.942,6.695.812,6.695.812s1.623-.2,1.725-1.217-2.782-8.459-3.39-9.271-.74-8.437-1.674-10.459c-1.267-2.745-.9-8.185.962-13.245,2.379-.753,4.411-1.383,4.411-1.383s1.438.332,7.383,1.875,14.384,2.1,17.094,0c5-2.5,6.543-4.041,5.138-9.138m-120.762,32.3a2.573,2.573,0,0,1,.273,1.137,1.18,1.18,0,0,1-.354.819,1.791,1.791,0,0,1-1.893.231,3.447,3.447,0,0,1-1.687-1.633,3.12,3.12,0,0,1-.453-2.172,1.993,1.993,0,0,1,.51-.9,8.656,8.656,0,0,1,.833.3,5.887,5.887,0,0,1,2.772,2.222" transform="translate(1104.133 4527.97)" fill="#e8e8e8"/>
    <path id="Trazado_715209" data-name="Trazado 715209" d="M386.646,100.671a5.373,5.373,0,0,0-4.373-2.646c-.088-.005-.174,0-.261,0a4.756,4.756,0,0,1,4.973-.966,5.183,5.183,0,0,0-4.021-.285,4.831,4.831,0,0,0-.963.451,3.812,3.812,0,0,0-.868.67c-.059.061-.108.13-.162.194a7.613,7.613,0,0,0-3.448,1.519,8.466,8.466,0,0,0-1,.913C363.11,88,338.245,94.44,328.122,93.207c-.543-.066-1.11-.129-1.69-.189-.072-5.8,1.423-8.531,1.865-9.327S322.968,81.916,319.86,86c-1.974,2.594-4.235,5.147-6.646,6.26-7.3-.136-14.108.191-16.441,1.124-4,1.6-7.815-2.4-10.924-6.483s-8.881-3.108-8.437-2.309,1.954,3.552,1.865,9.413,1.332,8.437,10.035,10.834c1.51,5.418-1.345,8.408-1.066,13.854a7.212,7.212,0,0,0,.616,4.3,7.306,7.306,0,0,0,2.848,2.985s.622.266,5.683,4.618,7.016,4,7.016,4a23.146,23.146,0,0,0,4.678,2.738,39.348,39.348,0,0,1,2.45,7.831c1.059,3.916,1.832,8.335,3,10.346s.476,8.025-.159,8.871-4.128,6.457-4.022,7.515,1.8,1.27,1.8,1.27,3.07,2.223,6.986-.846l.952-3.811v2.117a2.042,2.042,0,0,0,.928.184,11.161,11.161,0,0,0-1.556,3.523c.106,1.058,1.8,1.27,1.8,1.27s3.07,2.223,6.986-.847l.953-3.81v2.117A1.5,1.5,0,0,0,331.424,172a34.27,34.27,0,0,0,1.459-10.929c-.106-5.61,1.873-9.076,2.614-15a21.921,21.921,0,0,1,1.429-4.974,26.54,26.54,0,0,0,13.212-4.636c10.323,8.3,12.265,4.924,13.286,8.7,1.059,3.916,1.832,8.335,3,10.346s.476,8.025-.159,8.871-4.128,6.457-4.022,7.515,1.8,1.27,1.8,1.27a5.275,5.275,0,0,0,4.018.628c.317.846,1.739,1.026,1.739,1.026s3.069,2.223,6.986-.846l.953-3.811v2.117a1.5,1.5,0,0,0,2.223-1.058,34.278,34.278,0,0,0,1.459-10.929c-.106-5.61,1.873-9.076,2.614-15,.678-5.43,3.427-16.481,1.012-29.2a25.4,25.4,0,0,0-.759-3.39c-.013-.048-.023-.1-.036-.144l-.007,0a26.29,26.29,0,0,0-5.35-9.56,4.168,4.168,0,0,1,.725-.906c.043-.043.09-.082.135-.123,0,.011,0,.021,0,.032a4.361,4.361,0,0,0,.812,2.2,3.964,3.964,0,0,0,4.581,1.326,3.444,3.444,0,0,0,1.172-.764,2.934,2.934,0,0,0,.755-1.333,3.823,3.823,0,0,0-.426-2.757m-63.161,66.143c-.133.177-.395.57-.718,1.08a34,34,0,0,0,1.006-9.258,22.524,22.524,0,0,1,.127-2.839,10.033,10.033,0,0,0,.727,1.676c1.165,2.011-.506,8.5-1.141,9.341m60.9-63.006a2.32,2.32,0,0,1-2.713-.506,3.039,3.039,0,0,1-.734-1.47,3.592,3.592,0,0,1-.068-.637,3.625,3.625,0,0,1,1.361-.38,2.849,2.849,0,0,1,2.42,1.065,1.692,1.692,0,0,1,.364,1.1,1.088,1.088,0,0,1-.631.826" transform="translate(47.578 4663.346)" fill="#e8e8e8"/>
    <g id="Grupo_1005319" data-name="Grupo 1005319" transform="translate(1294.048 4723.341)">
      <g id="Grupo_1005318" data-name="Grupo 1005318" clip-path="url(#clip-path-7)">
        <path id="Trazado_643915" data-name="Trazado 643915" d="M18.156,123.2c.76-7.68,2.259-15.322,1.39-23.071A47.714,47.714,0,0,0,17.1,89.4a32.07,32.07,0,0,0-4.651-9.1c-1.676-2.116-4.221-4.781-7.21-4.305-2.507.4-4.142,2.722-4.837,5C-1.718,87.9,5.1,92.934,9.074,97.517c4.82,5.568,7.173,12.408,7.866,19.554a12.272,12.272,0,0,0,.1,6.231.583.583,0,0,0,1.114-.1" transform="translate(0 -27.999)" fill="#add031"/>
        <path id="Trazado_643916" data-name="Trazado 643916" d="M36.123,40.921q.041,5.452.345,10.893A99.753,99.753,0,0,0,37.707,62.05c.324,2.057.562,4.115.94,6.163.16.865.335,1.729.529,2.586.068.3.1.922.393,1.128a.483.483,0,0,0,.472.057.4.4,0,0,0,.1.008l.129-.029a.523.523,0,0,0,.217-.15l-.083.074c.073-.066.16-.125.227-.2.04-.043.075-.091.114-.136a2.945,2.945,0,0,1,.243-.251l.064-.053c.453.2,1.088-.024.97-.641-2.3-12.007-.1-24.21,2.447-35.984a88.052,88.052,0,0,1,2.718-9.917c1.076-3.152,2.66-6.057,3.885-9.153,1.336-3.376,3.076-6.812,3.192-10.518C54.359,2.068,52.4-.62,49.156.125,46,.847,43.621,4.147,42.2,6.846c-2.511,4.769-3.841,10.393-4.712,15.671a108.289,108.289,0,0,0-1.365,18.4" transform="translate(-13.317 0)" fill="#add031"/>
        <path id="Trazado_643917" data-name="Trazado 643917" d="M9.785,83.213c5.3,6.15,10.053,13.413,11.22,21.6a58.265,58.265,0,0,1,.263,11.662c-.113,1.915-.368,3.809-.6,5.711a15.358,15.358,0,0,0-.1,5.483c.062.254.441.186.481-.042.364-2.059.441-4.173.735-6.245.287-2.025.458-4.046.545-6.089a54.6,54.6,0,0,0-.476-11.715c-1.369-7.851-6.178-15.122-11.785-20.626-.157-.153-.434.091-.288.261" transform="translate(-3.593 -30.569)" fill="#4f9638"/>
        <path id="Trazado_643918" data-name="Trazado 643918" d="M51.066,3.334a11.694,11.694,0,0,0-3.074,4.582c-1.01,2.16-2.208,4.215-3.186,6.393a69.448,69.448,0,0,0-4.258,14.256,121.589,121.589,0,0,0-2.6,29.224c.162,4.94.5,10.4,2.81,14.856.18.349.646.03.566-.294a60.356,60.356,0,0,1-2.169-13.158c-.116-4.658-.15-9.3.176-13.953.321-4.58,1.011-9.082,1.783-13.6a89.624,89.624,0,0,1,3.227-14.189,42.662,42.662,0,0,1,3.386-7.277c1.189-2.079,1.8-4.733,3.712-6.3.326-.266-.038-.8-.374-.541Z" transform="translate(-13.97 -1.203)" fill="#4f9638"/>
      </g>
    </g>
    <g id="Grupo_901346" data-name="Grupo 901346" transform="translate(1244.165 5186.195) rotate(-11)">
      <path id="Trazado_122906" data-name="Trazado 122906" d="M32.586,39.621A87.177,87.177,0,0,1,20.5,35.242,114.763,114.763,0,0,1,8.822,29.215a18.945,18.945,0,0,1-4.444-3.478A26.011,26.011,0,0,0,.433,21.624c-.87-.6-.326-2.216.72-1.869.133.043.248.111.376.164,3.653-1.712,7.176-3.836,10.684-5.875,3.282-1.908,6.623-3.679,9.792-5.809,5.281-3.55,11.5-8.719,18.065-8.2,2.9.231,5.564,1.882,7.821,3.8,2.607,2.214,4.58,5.738,7.977,6.533,5.749,1.345,11.472-1.92,17.211-1.931,3.589-.005,9.237.454,10.435,5.051C84.9,18.8,80.577,23.758,76.585,25.81a41.942,41.942,0,0,1-7.564,2.736,21.6,21.6,0,0,0-8.283,3.927c-2.5,2.055-4.7,4.519-7.271,6.489a14.5,14.5,0,0,1-9.291,3C40.289,41.91,36.321,40.69,32.586,39.621Z" transform="translate(0.599 0)" fill="#add031"/>
      <g id="Grupo_86435" data-name="Grupo 86435" transform="translate(0 15.524)">
        <path id="Trazado_122907" data-name="Trazado 122907" d="M82.434.739c-4.985,1.28-9.814,3.115-14.854,4.2A142.005,142.005,0,0,1,51.818,7.27c-5.486.544-11,.525-16.5.872a102.772,102.772,0,0,1-16.593-.164C12.628,7.386,6.575,6.914.557,5.757c-.724-.138-.76-1.39,0-1.5,2.364-.336,4.784.64,7.129.913,2.824.327,5.639.507,8.471.743a117.842,117.842,0,0,0,16.2.613C43.282,5.95,54.363,6.066,65.191,4.3,70.982,3.363,76.5,1.232,82.233.01c.473-.1.676.607.2.729Z" transform="translate(0 0)" fill="#36753c"/>
      </g>
      <g id="Grupo_86436" data-name="Grupo 86436" transform="translate(20.669 2.747)">
        <path id="Trazado_122908" data-name="Trazado 122908" d="M23.474.671A75.84,75.84,0,0,0,5.5,13.311c-.834.8-1.642,1.621-2.448,2.448a9.828,9.828,0,0,1-2.6,2.276c-.211.1-.525-.068-.432-.332a6.943,6.943,0,0,1,1.745-2.383c.887-.929,1.835-1.806,2.787-2.669,1.829-1.659,3.71-3.261,5.666-4.768A64.548,64.548,0,0,1,23.1.036c.424-.19.8.424.371.635Z" transform="translate(0 0)" fill="#36753c"/>
      </g>
      <g id="Grupo_86437" data-name="Grupo 86437" transform="translate(29.883 24.876)">
        <path id="Trazado_122909" data-name="Trazado 122909" d="M.541.067A82.866,82.866,0,0,0,11.023,7.023,42.822,42.822,0,0,0,16.91,9.614c2.031.714,4.15,1.171,6.138,1.991a.285.285,0,0,1-.075.557,17.4,17.4,0,0,1-6.231-1.224,45.1,45.1,0,0,1-6.052-2.6A40.8,40.8,0,0,1,.1.644C-.181.357.194-.19.541.067Z" transform="translate(0 0)" fill="#36753c"/>
      </g>
      <g id="Grupo_86438" data-name="Grupo 86438" transform="translate(62.587 11.236)">
        <path id="Trazado_122910" data-name="Trazado 122910" d="M12.6.625A31.584,31.584,0,0,0,6.045,4.256c-1.032.715-2.012,1.486-2.967,2.3-.482.41-.956.828-1.428,1.249a3.712,3.712,0,0,1-1.291.958c-.272.083-.424-.213-.332-.431a3.938,3.938,0,0,1,1.2-1.244q.721-.621,1.457-1.224c.992-.811,2-1.609,3.038-2.365A23.185,23.185,0,0,1,12.433.017c.393-.124.539.466.168.608Z" transform="translate(0 0)" fill="#36753c"/>
      </g>
      <g id="Grupo_86439" data-name="Grupo 86439" transform="translate(50.945 22.354)">
        <path id="Trazado_122911" data-name="Trazado 122911" d="M19.153,2.884c-3.38.048-6.756.324-10.131.052A26.731,26.731,0,0,1,4.31,2.2,21.212,21.212,0,0,1,1.886,1.4,4.645,4.645,0,0,1,.065.432C-.068.281.009-.015.243,0a8.707,8.707,0,0,1,2,.671A21.255,21.255,0,0,0,4.559,1.3a40.306,40.306,0,0,0,4.932.727c3.219.277,6.435.379,9.662.421a.221.221,0,0,1,0,.441Z" transform="translate(0 0)" fill="#36753c"/>
      </g>
    </g>
    <g id="Grupo_1004782" data-name="Grupo 1004782" transform="translate(265 5160.815) rotate(-1)">
      <path id="Trazado_122890" data-name="Trazado 122890" d="M14.523.077c-3.657.6-4.673,5.084-4.254,9.287.36,3.612,2.224,7.093,2.052,10.775-.122,2.615-2.179,1.939-3.566,1.478-1.754-.583-3.574-1.4-5.409-1.222A3.7,3.7,0,0,0,.1,23.371a4.683,4.683,0,0,0,1.214,4.064c2.57,3.011,6.515,4.3,9.664,5.844,1.168.573,4.817,1.2,5.114,3.028.207,1.278-1.941,1.354-2.564,1.413-2.32.222-4.634-.173-6.953-.1-1.525.045-5.372.3-5.026,3.361.237,2.086,1.97,3.715,3.252,4.679a36.242,36.242,0,0,0,6,3.626,42.858,42.858,0,0,0,8.048,2.743,47.057,47.057,0,0,0,7.96,1.533c1.226.1,2.452.071,3.677.207a.785.785,0,0,0,.445.679A33.248,33.248,0,0,0,38.1,56.658c1.917.32,4.009.278,5.625-1.29,1.836-1.78,2.905-4.781,4.2-7.171a45.941,45.941,0,0,0,3.486-6.752c.877-2.537,1.737-6.928-.6-8.634-2.973-2.166-6.45,1.758-9.386,2.16-.716.1-1.935.013-2.238-1.072a3.375,3.375,0,0,1,.514-2.2,23.475,23.475,0,0,1,3.357-4.668c2.07-2.451,4.569-5.173,3.3-9.263-1.448-4.654-6.168-4.894-8.965-2.279A13.884,13.884,0,0,0,34.1,21.4,27.22,27.22,0,0,0,33.33,24.4c-.352,1.728-1.219,2.567-2.544,1.453-2.024-1.7-2.7-5.693-3.483-8.423A57,57,0,0,0,24.1,8.389C21.952,3.938,18.989-.655,14.523.077Z" transform="translate(0 0)" fill="#add031"/>
      <g id="Grupo_86419" data-name="Grupo 86419" transform="translate(14.127 5.829)">
        <path id="Trazado_122891" data-name="Trazado 122891" d="M0,.549a47.3,47.3,0,0,0,1.4,8.4,72.339,72.339,0,0,0,2.562,7.41,95.714,95.714,0,0,0,6.881,13.879,84.938,84.938,0,0,0,8.845,12.018c1.5,1.717,3.06,3.368,4.652,4.938,1.661,1.637,3.52,3.661,5.566,4.274.269.081.514-.379.285-.659-1.451-1.766-3.322-2.944-4.92-4.465-1.671-1.591-3.293-3.29-4.864-5.056a76.923,76.923,0,0,1-8.288-11.441,96.534,96.534,0,0,1-6.68-13.5A68.137,68.137,0,0,1,.825.4C.742-.217-.059-.083,0,.549Z" transform="translate(0 0)" fill="#4f9638"/>
      </g>
      <g id="Grupo_86420" data-name="Grupo 86420" transform="translate(38.907 40.273)">
        <path id="Trazado_122892" data-name="Trazado 122892" d="M.6,11.14C1.783,9.3,2.9,7.412,4.1,5.584c.588-.893,1.2-1.771,1.846-2.62.683-.893,1.475-1.73,2.074-2.681.094-.149-.1-.362-.252-.252a11.334,11.334,0,0,0-2.2,2.336c-.682.884-1.321,1.8-1.935,2.729C2.4,6.977,1.262,8.921.051,10.819c-.221.347.329.666.549.322Z" transform="translate(0 0)" fill="#4f9638"/>
      </g>
      <g id="Grupo_86421" data-name="Grupo 86421" transform="translate(21.021 4.372)">
        <path id="Trazado_122893" data-name="Trazado 122893" d="M2.9,18.364c1.073-2.909.849-6.218.333-9.217A37.678,37.678,0,0,0,2.026,4.158,13.778,13.778,0,0,0,.33.077C.219-.071-.052.005.009.213.4,1.515,1.07,2.744,1.5,4.044A37.97,37.97,0,0,1,2.735,8.87c.568,3.031,1.012,6.465.04,9.459-.027.083.1.115.13.035Z" transform="translate(0 0)" fill="#4f9638"/>
      </g>
      <g id="Grupo_86422" data-name="Grupo 86422" transform="translate(1.289 25.221)">
        <path id="Trazado_122894" data-name="Trazado 122894" d="M19.468,3.479c-1.745-.162-3.455-.223-5.194-.465-1.66-.23-3.337-.318-4.994-.578A44.351,44.351,0,0,1,4.267,1.384C2.9,1,1.606.077.179,0A.186.186,0,0,0,.085.344c2.742,1.749,6.2,2.373,9.374,2.807,1.57.214,3.153.341,4.73.485,1.768.162,3.512.03,5.279.128.184.01.18-.268,0-.285Z" transform="translate(0 0)" fill="#4f9638"/>
      </g>
      <g id="Grupo_86423" data-name="Grupo 86423" transform="translate(4.533 41.843)">
        <path id="Trazado_122895" data-name="Trazado 122895" d="M.129.485A35.549,35.549,0,0,0,11.936,3.351a44.421,44.421,0,0,0,6.563.078c1.062-.051,2.124-.119,3.186-.166a6.654,6.654,0,0,0,2.877-.331.27.27,0,0,0,0-.463,4.7,4.7,0,0,0-2.422-.2c-1.062.043-2.124.1-3.186.148a52.06,52.06,0,0,1-6.374-.047A54.365,54.365,0,0,1,.329.012C.053-.076-.14.358.129.485Z" transform="translate(0 0)" fill="#4f9638"/>
      </g>
      <g id="Grupo_86424" data-name="Grupo 86424" transform="translate(30.383 18.751)">
        <path id="Trazado_122896" data-name="Trazado 122896" d="M.25,18.371c.789-1.921,1.607-3.8,2.563-5.646A33.7,33.7,0,0,1,6.128,7.717a25.039,25.039,0,0,1,4.242-4.1c.7-.57,1.341-1.208,2.05-1.766A20.036,20.036,0,0,0,14.5.452a.262.262,0,0,0-.115-.434c-1.462-.229-3.054,1.855-4.02,2.7C9.62,3.38,8.8,3.938,8.074,4.629c-.8.772-1.5,1.639-2.262,2.454a20.686,20.686,0,0,0-3.556,5.141A53.91,53.91,0,0,0,.008,18.3c-.053.155.182.212.242.066Z" transform="translate(0 0)" fill="#4f9638"/>
      </g>
    </g>
    <g id="Grupo_1004783" data-name="Grupo 1004783" transform="translate(336.136 5209.858) rotate(146)">
      <path id="Trazado_122897" data-name="Trazado 122897" d="M39.413,23.277a4.83,4.83,0,0,0,1.162-3.648,6.262,6.262,0,0,0-2.053-3.868,10.776,10.776,0,0,0-1.446-1.242h0a14.567,14.567,0,0,0-1.415-.907h0c-.528-.3-1.076-.577-1.632-.844-.892-.426-1.8-.8-2.7-1.208a4.636,4.636,0,0,1-2.206-1.792c-.479-.8-.792-1.7-1.227-2.516l-.167-.3a4.356,4.356,0,0,0-1.29-1.441c-1.442-.986-3.074-.851-4.73-.774a7.954,7.954,0,0,1-3.117-.323,6.1,6.1,0,0,1-2.2-1.524c-.056-.047-.106-.1-.157-.153-.071-.07-.137-.143-.208-.213a13.544,13.544,0,0,0-1.6-1.53,4.97,4.97,0,0,0-2.419-.9A29.335,29.335,0,0,0,6.04.3c-.454.035-.911.053-1.355.132A.276.276,0,0,0,4.432.253a2.626,2.626,0,0,0-1.8.9A7.989,7.989,0,0,0,1.625,2.269a7.191,7.191,0,0,0-.436.649v0A8.5,8.5,0,0,0,0,7.525,7.48,7.48,0,0,0,4.817,14.47c.116.039.236.079.361.114h0c.137.036.275.073.421.1a23.267,23.267,0,0,0,2.815.222,9.562,9.562,0,0,1,3.123.715,4.019,4.019,0,0,1,.835.507,4.843,4.843,0,0,1,.656.611s0,0,0,0a16.123,16.123,0,0,1,1.792,2.631,6.413,6.413,0,0,0,3.184,3.136c1.725.6,3.672.1,5.425-.122.172-.02.34-.04.511-.056.146-.018.292-.032.437-.045a10.48,10.48,0,0,1,2.1.01,9.571,9.571,0,0,1,2.911.966,23.373,23.373,0,0,0,3.795,1.552c.146.038.292.075.438.1a7.423,7.423,0,0,0,1.144.162A5.936,5.936,0,0,0,39.413,23.277Z" transform="translate(0.023 0)" fill="#36753c"/>
      <g id="Grupo_86426" data-name="Grupo 86426" transform="translate(0 1.973)">
        <path id="Trazado_122898" data-name="Trazado 122898" d="M39.447,19.834c-.547-.339-1.016-.805-1.534-1.186-1.125-.827-2.315-1.577-3.485-2.338C30.74,13.913,27,11.587,23.2,9.367c-1.439-.841-2.875-1.685-4.384-2.394-1.231-.579-2.484-1.11-3.741-1.629C12.14,4.132,9.174,3,6.2,1.89,4.9,1.409,3.6.9,2.274.488,1.841.354,1.407.217.964.117A4.663,4.663,0,0,0,.5.03C.411.019.144-.023.33.017.026-.049-.145.41.162.478.13.471.28.529.341.559c.11.054.22.107.332.158.344.156.7.29,1.049.428,1.075.419,2.167.793,3.25,1.19,2.935,1.078,5.863,2.175,8.765,3.339a73.37,73.37,0,0,1,7.619,3.473q6.059,3.274,11.858,6.979A61.007,61.007,0,0,0,39.4,19.932c.057.028.106-.065.051-.1Z" transform="translate(0 0)" fill="#4f9638"/>
      </g>
      <g id="Grupo_86427" data-name="Grupo 86427" transform="translate(25.215 12.399)">
        <path id="Trazado_122899" data-name="Trazado 122899" d="M.58.481a1.345,1.345,0,0,1-.489,0A.1.1,0,0,1,.055.289.52.52,0,0,1,.166.234,4.56,4.56,0,0,1,1.885.018,19.962,19.962,0,0,1,3.968.039a29.189,29.189,0,0,1,4.31.612q1.1.244,2.183.562h0a14.564,14.564,0,0,1,1.415.907,33.917,33.917,0,0,0-3.72-1.057A29.227,29.227,0,0,0,3.935.436,19.387,19.387,0,0,0,1.951.363C1.588.372,1.229.4.868.44.77.449.675.467.58.481Z" transform="translate(0 0)" fill="#4f9638"/>
      </g>
      <g id="Grupo_86428" data-name="Grupo 86428" transform="translate(18.822 9.417)">
        <path id="Trazado_122900" data-name="Trazado 122900" d="M5.148,12.918c-.089-.114-.177-.231-.265-.345a22.313,22.313,0,0,1-2.5-3.812C1.125,6.255-.127,3.3.01.434c0-.1.012-.2.02-.3a.153.153,0,0,1,.3.025C.328.3.325.439.326.584c-.005,2.769,1.18,5.592,2.4,8.01a23.564,23.564,0,0,0,2.492,3.8c.123.159.246.318.365.481C5.44,12.886,5.294,12.9,5.148,12.918Z" transform="translate(0 0)" fill="#4f9638"/>
      </g>
      <g id="Grupo_86429" data-name="Grupo 86429" transform="translate(29.32 15.403)">
        <path id="Trazado_122901" data-name="Trazado 122901" d="M4.333,9.519c-.147-.029-.293-.066-.438-.1a21.635,21.635,0,0,1-1.582-2.55A17.437,17.437,0,0,1,1,3.713C.664,2.583.414,1.432.05.309.037.261.019.217.006.169c-.044-.14.16-.242.209-.1S.319.356.366.5A43.317,43.317,0,0,0,2.353,6.311,22.026,22.026,0,0,0,4.119,9.225C4.191,9.325,4.259,9.424,4.333,9.519Z" transform="translate(0 0)" fill="#4f9638"/>
      </g>
      <g id="Grupo_86430" data-name="Grupo 86430" transform="translate(17.762 6.914)">
        <path id="Trazado_122902" data-name="Trazado 122902" d="M10.148.336a31.3,31.3,0,0,0-4.691.2,26.236,26.236,0,0,0-2.71.471,11.387,11.387,0,0,0-1.452.43c-.272.1-.53.233-.8.339-.106.042-.215.08-.324.114-.157.043-.228-.172-.127-.265l.041-.035A5.574,5.574,0,0,1,2.491.6,21.064,21.064,0,0,1,5.383.142a31.977,31.977,0,0,1,4.6-.1Z" transform="translate(0 0)" fill="#4f9638"/>
      </g>
      <g id="Grupo_86431" data-name="Grupo 86431" transform="translate(11.284 6.331)">
        <path id="Trazado_122903" data-name="Trazado 122903" d="M1.77,10.411A4.843,4.843,0,0,0,1.114,9.8a23.444,23.444,0,0,1-.92-4.252A14.779,14.779,0,0,1,.25.448C.277.322.309.2.344.081.381-.056.623-.007.595.136S.542.412.522.551a14.542,14.542,0,0,0-.117,2.1,23.223,23.223,0,0,0,1.108,6.99C1.595,9.9,1.68,10.156,1.77,10.411Z" transform="translate(0 0)" fill="#4f9638"/>
      </g>
      <g id="Grupo_86432" data-name="Grupo 86432" transform="translate(7.91 2.52)">
        <path id="Trazado_122904" data-name="Trazado 122904" d="M.016,2.147a1.339,1.339,0,0,1,.078-.125A4.679,4.679,0,0,1,2.34.878,19.184,19.184,0,0,1,4.972.218,16.267,16.267,0,0,1,8.128,0c.071.07.137.143.208.213.051.051.1.106.157.153a.091.091,0,0,1-.034,0A16.6,16.6,0,0,0,4.985.627a19.008,19.008,0,0,0-2.679.721,10.5,10.5,0,0,0-1.194.5c-.2.1-.393.227-.6.329h0a1.943,1.943,0,0,1-.378.148C.024,2.356-.029,2.229.016,2.147Z" transform="translate(0 0)" fill="#36753c"/>
      </g>
      <g id="Grupo_86433" data-name="Grupo 86433" transform="translate(3.815 3.813)">
        <path id="Trazado_122905" data-name="Trazado 122905" d="M1.385,10.771c-.125-.036-.245-.075-.361-.114C.852,9.949.715,9.232.591,8.511A34.754,34.754,0,0,1,.074,4.386,12.308,12.308,0,0,1,.29.184.664.664,0,0,1,.319.093C.376-.086.648.018.591.2A.589.589,0,0,0,.567.283,7.328,7.328,0,0,0,.347,2.4c0,.783.017,1.563.072,2.346.09,1.241.291,2.474.5,3.7C1.052,9.23,1.2,10.007,1.385,10.771Z" transform="translate(0 0)" fill="#36753c"/>
      </g>
    </g>
  </g>
</svg>
