<svg xmlns="http://www.w3.org/2000/svg" xmlns:xlink="http://www.w3.org/1999/xlink" width="133.624" height="157.353" viewBox="0 0 133.624 157.353">
  <defs>
    <clipPath id="clip-path">
      <rect id="Rectángulo_351323" data-name="Rectángulo 351323" width="133.624" height="157.353" fill="none"/>
    </clipPath>
  </defs>
  <g id="Grupo_1014100" data-name="Grupo 1014100" transform="translate(-294 -249.647)">
    <g id="Grupo_1014099" data-name="Grupo 1014099" transform="translate(294 249.647)" clip-path="url(#clip-path)">
      <path id="Trazado_713795" data-name="Trazado 713795" d="M71.344,310.824c-.456-.269-45.751-26.874-50.413-29.754-4.1-2.534-14.171-1.819-18.976-1.5v-2.284l.976-.039c5.405-.365,14.455-.974,19.164,1.935,4.642,2.867,49.915,29.46,50.372,29.728Z" transform="translate(-1.511 -214.11)" fill="#cda9b1"/>
      <path id="Trazado_713796" data-name="Trazado 713796" d="M291.865,401.81a1.087,1.087,0,0,0-1.281.01,4.267,4.267,0,0,0-1.782,3.4,1.544,1.544,0,0,0,.639,1.439l-.035.079L347.46,440.17,350,435.407Z" transform="translate(-223.285 -310.498)" fill="#42292d"/>
      <path id="Trazado_713797" data-name="Trazado 713797" d="M545.427,553.558c0,1.312.8,1.915,1.782,1.347a4.268,4.268,0,0,0,1.782-3.4c0-1.312-.8-1.915-1.782-1.347a4.268,4.268,0,0,0-1.782,3.4" transform="translate(-421.69 -425.179)" fill="#51353a"/>
      <path id="Trazado_713798" data-name="Trazado 713798" d="M551.5,559.248c0,.4.242.58.54.408a1.292,1.292,0,0,0,.539-1.031c0-.4-.242-.58-.539-.408a1.292,1.292,0,0,0-.54,1.031" transform="translate(-426.388 -431.529)" fill="#f13812"/>
      <path id="Trazado_713799" data-name="Trazado 713799" d="M.887,279.641c0,.631-.2,1.142-.444,1.142S0,280.272,0,279.641.2,278.5.444,278.5s.444.511.444,1.142" transform="translate(0 -215.318)" fill="#b68e99"/>
      <path id="Trazado_713800" data-name="Trazado 713800" d="M310.3,217.175V300.36c0,5.99,8.629,10.847,19.273,10.847s19.273-4.857,19.273-10.847V217.175Z" transform="translate(-239.901 -167.906)" fill="#42292d"/>
      <path id="Trazado_713801" data-name="Trazado 713801" d="M329.567,290.9c-10.645,0-19.273-4.857-19.273-10.847V334c0,5.99,8.629,10.847,19.273,10.847s19.273-4.857,19.273-10.847V280.052c0,5.991-8.629,10.847-19.273,10.847" transform="translate(-239.9 -216.519)" fill="#ff4a2c"/>
      <path id="Trazado_713802" data-name="Trazado 713802" d="M343.758,484.918a27.7,27.7,0,0,1-14.19,3.525c-10.644,0-19.273-4.857-19.273-10.847V480.3c0,5.99,8.629,10.847,19.273,10.847a27.7,27.7,0,0,0,14.19-3.525Z" transform="translate(-239.901 -369.248)" fill="#fff"/>
      <path id="Trazado_713803" data-name="Trazado 713803" d="M343.758,317.549a27.7,27.7,0,0,1-14.19,3.525c-10.644,0-19.273-4.857-19.273-10.847v2.706c0,5.99,8.629,10.847,19.273,10.847a27.7,27.7,0,0,0,14.19-3.525Z" transform="translate(-239.901 -239.848)" fill="#fff"/>
      <path id="Trazado_713804" data-name="Trazado 713804" d="M348.841,180.208c0,5.991-8.629,10.847-19.273,10.847s-19.273-4.857-19.273-10.847,8.629-10.848,19.273-10.848,19.273,4.857,19.273,10.848" transform="translate(-239.9 -130.939)" fill="#51353a"/>
      <path id="Trazado_713805" data-name="Trazado 713805" d="M336.857,169.36v8.681c0,4.131,5.95,7.48,13.29,7.48s13.29-3.349,13.29-7.48V169.36Z" transform="translate(-260.437 -130.939)" fill="#42292d"/>
      <path id="Trazado_713806" data-name="Trazado 713806" d="M363.438,143.868c0,4.131-5.95,7.48-13.29,7.48s-13.29-3.349-13.29-7.48,5.95-7.48,13.29-7.48,13.29,3.349,13.29,7.48" transform="translate(-260.437 -105.447)" fill="#51353a"/>
      <path id="Trazado_713807" data-name="Trazado 713807" d="M381.848,111.047v12.822c0,.923,1.33,1.672,2.971,1.672s2.971-.748,2.971-1.672v-9.162Z" transform="translate(-295.221 -85.855)" fill="#ff4a2c"/>
      <path id="Trazado_713808" data-name="Trazado 713808" d="M353.118,32.857a8.788,8.788,0,0,1-4.374-1.284l-8.1-4.677c-5.188-2.993-9.25-10.66-9.25-17.457,0-3.981,1.454-7.1,3.984-8.566,2.227-1.293,4.947-1.146,7.641.414l8.1,4.676c5.185,2.995,9.246,10.662,9.246,17.458,0,3.981-1.451,7.1-3.984,8.564a6.448,6.448,0,0,1-3.264.871m-2-5.4c.677.39,1.949.961,2.886.413.993-.572,1.609-2.277,1.609-4.45,0-5.083-3.146-11.192-6.871-13.344l-8.1-4.676c-.671-.39-1.949-.961-2.889-.413-.993.572-1.609,2.278-1.609,4.45,0,5.081,3.146,11.192,6.874,13.342Z" transform="translate(-256.214 0)" fill="#ff4a2c"/>
      <path id="Trazado_713809" data-name="Trazado 713809" d="M340.409,397.041a6.183,6.183,0,0,1-1.506-1.732c.1-.358-.024-.72-.29-.763a3.939,3.939,0,0,0-.8.04c-.013-.08-.024-.156-.038-.237a20.669,20.669,0,0,0-.539-2.263,1.093,1.093,0,0,0,.415-.213,12.9,12.9,0,0,0,1.617,2.033c1.032,1,2.325,1.056,2.357.537.027-.436-1.205-.654-2.163-1.312a6.185,6.185,0,0,1-1.506-1.732c.1-.358-.024-.72-.29-.762a4.449,4.449,0,0,0-.891.051c-.3-.83-.545-1.354-.564-1.393l.011-.005a6.648,6.648,0,0,0-.206-.9,6.188,6.188,0,0,0-.513-1.242,3.237,3.237,0,0,1,.766-.546,3.666,3.666,0,0,0,1.87-1.739,8.548,8.548,0,0,0,.562-2.391c.016-.747-.44-.771-.44-.078a4.816,4.816,0,0,1-.95,2.729,5.185,5.185,0,0,1-2.435,1.185,2.339,2.339,0,0,0-1.247-.666,2.006,2.006,0,0,0-.818.011,1.543,1.543,0,0,0-.386.154,8.3,8.3,0,0,1-2.254-1.943,6.539,6.539,0,0,1-.95-3.064c0-.693-.456-.831-.44-.078a10.648,10.648,0,0,0,.562,2.589,6.1,6.1,0,0,0,1.87,2.4,5.423,5.423,0,0,1,.622.635,4.3,4.3,0,0,0-.622,2.062,13.124,13.124,0,0,0-.577,1.229,6.287,6.287,0,0,0-.99-.412c-.266-.051-.39.267-.29.661a3.685,3.685,0,0,1-1.506,1.2c-.958.32-2.19.1-2.163.549.032.529,1.326.931,2.357.294a7.658,7.658,0,0,0,1.617-1.463,1.79,1.79,0,0,0,.51.419,16.092,16.092,0,0,0-.526,2.032c-.016.086-.028.168-.043.253a5.657,5.657,0,0,0-.9-.371c-.266-.051-.39.267-.29.66a3.683,3.683,0,0,1-1.505,1.2c-.958.32-2.19.1-2.163.549.032.529,1.326.931,2.358.294a7.664,7.664,0,0,0,1.617-1.463,1.792,1.792,0,0,0,.511.42,1.194,1.194,0,0,0,.172.079q-.112.931-.15,1.788l0-.005s0,.011,0,.031c0,0,0,.01,0,.015a4.871,4.871,0,0,0-.952-.026c-.25.051-.246.415-.022.768a4.016,4.016,0,0,1-.891,1.771c-.722.685-1.872.941-1.692,1.374.213.514,1.48.418,2.156-.61a8.514,8.514,0,0,0,.9-2.074,1.572,1.572,0,0,0,.491.2c.014.774.063,1.5.14,2.169v0a4.471,4.471,0,0,0,.135.99c.109.692.237,1.32.361,1.887a8.042,8.042,0,0,0,.973,2.26,4.959,4.959,0,0,0,2.789,2.406v0l.029.007.052.007.052.011.029,0v0c2.037.248,3.473-2.126,3.762-3.339.136-.571.275-1.216.39-1.944a4.178,4.178,0,0,0,.119-.865h0c.071-.613.115-1.289.128-2.018a1.193,1.193,0,0,0,.381-.039,12.246,12.246,0,0,0,.9,2.39c.676,1.267,1.943,1.81,2.156,1.371.18-.37-.97-1.031-1.692-1.971a5.954,5.954,0,0,1-.891-2.085c.224-.274.228-.636-.021-.775a4.956,4.956,0,0,0-.836-.279c0-.033,0-.056,0-.056l-.012.029c-.026-.6-.077-1.23-.155-1.9.023,0,.043,0,.067-.007a1.122,1.122,0,0,0,.51-.24,12.909,12.909,0,0,0,1.617,2.033c1.032,1,2.325,1.056,2.357.537.027-.437-1.205-.654-2.163-1.312" transform="translate(-251.067 -293.959)" fill="#42292d"/>
      <path id="Trazado_713810" data-name="Trazado 713810" d="M335.583,397.91a14.558,14.558,0,0,0-2.074-2.845c-.4-.434-1.825-1.714-1.937-1.806-3.631-2.971-8.58-4.788-13.188-3.884-6.269,1.23-7.522,7.413-5.535,14.466,2.039,7.24,9.736,14.16,18.16,11.194,7.3-2.569,7.734-11.347,4.574-17.125m-20.907-4.852c1.824-2.671,6.391-3.062,8.552-2.521a16.472,16.472,0,0,1,7.458,3.717c-5.2,3.684-10.114,8.1-14.95,12.211-2.04-3.824-3.358-10.04-1.06-13.406m17.451,19.781c-5.678,3.624-12.469-.413-15.673-5.145-.006-.008-.011-.019-.016-.028,5.142-3.838,10.636-7.987,15.086-12.6a18.153,18.153,0,0,1,1.662,1.965c3.218,4.5,4.455,12.29-1.059,15.81" transform="translate(-241.204 -300.86)" fill="#fff"/>
      <path id="Trazado_713811" data-name="Trazado 713811" d="M470.33,501.664c-.045-.157-.312-.181-.342,0-.106.644-.081,1.3-.144,1.956a23.922,23.922,0,0,1-.423,2.418.355.355,0,0,0,.684.189,9.07,9.07,0,0,0,.225-4.562" transform="translate(-362.921 -387.758)" fill="#f13812"/>
      <path id="Trazado_713812" data-name="Trazado 713812" d="M460.66,517.914a.174.174,0,0,0-.34.046,10.69,10.69,0,0,1-.173,2.522,4.914,4.914,0,0,0-.42,1.847.27.27,0,0,0,.394.16c.616-.39.7-1.223.79-1.9a5.5,5.5,0,0,0-.25-2.672" transform="translate(-355.418 -400.326)" fill="#f13812"/>
      <path id="Trazado_713813" data-name="Trazado 713813" d="M439.514,536.832c-.491.277-.9.648-1.42.887a5.683,5.683,0,0,1-1.744.469c-.15.014-.261.246-.087.322a2.646,2.646,0,0,0,2.138.09,2.428,2.428,0,0,0,1.546-1.437.3.3,0,0,0-.432-.332" transform="translate(-337.223 -415.017)" fill="#f13812"/>
      <path id="Trazado_713814" data-name="Trazado 713814" d="M450.631,316.5a11.861,11.861,0,0,0-1.687,1.04,16.213,16.213,0,0,1-2.137.931.209.209,0,0,0,.055.408c1.38.117,3.552-.664,4.045-2.1a.226.226,0,0,0-.277-.277" transform="translate(-345.331 -244.687)" fill="#f13812"/>
      <path id="Trazado_713815" data-name="Trazado 713815" d="M466.351,317.075a.148.148,0,0,0-.269.035,12.048,12.048,0,0,1-.514,2.154c-.265.647-.812,1.17-1,1.825-.068.233.177.537.431.431,1.438-.6,1.915-3.134,1.355-4.446" transform="translate(-359.164 -245.087)" fill="#f13812"/>
      <path id="Trazado_713816" data-name="Trazado 713816" d="M463.963,382.464a3.608,3.608,0,0,0-.821-1.989.105.105,0,0,0-.177.074,8.692,8.692,0,0,0,.234,2.071,16.219,16.219,0,0,0,.15,2.119.332.332,0,0,0,.634,0,4.578,4.578,0,0,0-.019-2.275" transform="translate(-357.921 -294.136)" fill="#f13812"/>
      <path id="Trazado_713817" data-name="Trazado 713817" d="M465.582,450.706a.081.081,0,0,0-.094.012c-.4.316-.316,1.141-.465,1.616-.214.682-.656,1.233-.906,1.891-.1.265.245.5.47.361a3.2,3.2,0,0,0,1.2-2.042c.107-.489.327-1.544-.2-1.839" transform="translate(-358.813 -348.45)" fill="#f13812"/>
      <path id="Trazado_713818" data-name="Trazado 713818" d="M324.994,526.623c-.742-.473-1.64-.618-2.4-1.073a4.494,4.494,0,0,1-1.565-1.807.123.123,0,0,0-.221.029c-.39,1.99,2.4,3.438,4.025,3.431a.314.314,0,0,0,.157-.58" transform="translate(-248.003 -404.882)" fill="#f13812"/>
      <path id="Trazado_713819" data-name="Trazado 713819" d="M319.139,311.6a3.257,3.257,0,0,1-2-1.081c-.448-.568-.748-1.223-1.228-1.771a.1.1,0,0,0-.177.074c.051,1.538,1.584,4.12,3.467,3.277a.275.275,0,0,0-.065-.5" transform="translate(-244.108 -238.681)" fill="#f13812"/>
      <path id="Trazado_713820" data-name="Trazado 713820" d="M341.455,325.736a10.954,10.954,0,0,1-1.866-.955c-.48-.408-.78-1.016-1.271-1.388a.152.152,0,0,0-.222.09c-.149.744.512,1.547,1.043,1.991a2.8,2.8,0,0,0,2.244.815.306.306,0,0,0,.072-.553" transform="translate(-261.378 -250.01)" fill="#f13812"/>
      <path id="Trazado_713821" data-name="Trazado 713821" d="M366.254,82.313c-.027-.095-.189-.081-.179.024a11.674,11.674,0,0,1-1.781,7.881c-1.429,2.086-3.885,3.907-6.556,3.211a24.379,24.379,0,0,1-4.564-2.2,40.736,40.736,0,0,1-8.087-5.212,27.424,27.424,0,0,1-5.414-6.976.269.269,0,0,0-.49.207c2.273,7.112,11.433,12.393,17.98,14.761,6.413,2.319,10.529-6.618,9.09-11.693" transform="translate(-262.226 -61.011)" fill="#f13812"/>
      <path id="Trazado_713822" data-name="Trazado 713822" d="M358.582,22.974c-1.528-1.327-5.116-3.816-6.85-1.557-1.839,2.4-1.044,6.55.216,8.978.041.08.146.02.134-.056-.4-2.682-1.359-5.045-.2-7.739,1.367-3.183,4.537-.35,6.677.418a.026.026,0,0,0,.025-.043" transform="translate(-271.099 -15.854)" fill="#f13812"/>
      <path id="Trazado_713823" data-name="Trazado 713823" d="M334.915,226.881c0,.248-.357.449-.8.449s-.8-.2-.8-.449.357-.449.8-.449.8.2.8.449" transform="translate(-257.703 -175.063)" fill="#f13812"/>
      <path id="Trazado_713824" data-name="Trazado 713824" d="M252.5,294.5a65.377,65.377,0,0,1-6.891-.376c-13.268-1.41-40.876-4.342-49.456-37.463-6.834-26.376.946-53.637,6.191-67.54,3.733-9.888,10.3-12.457,15.2-11.563a11.477,11.477,0,0,1,9.28,11.408h-1.661a9.818,9.818,0,0,0-7.916-9.774c-5.5-1-10.486,2.929-13.35,10.516-5.177,13.718-12.857,40.6-6.138,66.537,8.291,32.007,35.127,34.858,48.023,36.227,20.39,2.174,32.528-5.541,35.194-13.616,1.721-5.206-.511-10.3-6.177-13.639l.72-1.435c6.388,3.763,9.018,9.593,7.035,15.6-2.545,7.705-12.892,15.122-30.056,15.123" transform="translate(-149.585 -137.151)" fill="#f13812"/>
      <path id="Trazado_713825" data-name="Trazado 713825" d="M357.021,182.063a20.9,20.9,0,0,1-10.055.579c-3.1-.687-7.416-2.05-8.668-5.2a.061.061,0,0,0-.118.032c.662,3.175,4.053,4.7,6.822,5.583a16.966,16.966,0,0,0,12.081-.845c.083-.04.024-.169-.061-.146" transform="translate(-261.459 -137.152)" fill="#fff"/>
      <path id="Trazado_713826" data-name="Trazado 713826" d="M326.464,237.711a29.831,29.831,0,0,1-8.956-3.012c-1.931-1.145-3.075-2.748-4.618-4.293-.047-.047-.144,0-.118.069,1.468,3.785,7.013,6.895,13.564,7.559.635.064.562-.252.128-.323" transform="translate(-241.813 -178.122)" fill="#fff"/>
    </g>
  </g>
</svg>
