<svg xmlns="http://www.w3.org/2000/svg" xmlns:xlink="http://www.w3.org/1999/xlink" width="96" height="95" viewBox="0 0 96 95">
  <defs>
    <linearGradient id="linear-gradient" x1="0.5" x2="0.5" y2="1" gradientUnits="objectBoundingBox">
      <stop offset="0" stop-color="#fff"/>
      <stop offset="1" stop-color="#e9e9e9"/>
    </linearGradient>
    <filter id="Elipse_7972" x="0" y="0" width="96" height="95" filterUnits="userSpaceOnUse">
      <feOffset dy="3" input="SourceAlpha"/>
      <feGaussianBlur stdDeviation="3" result="blur"/>
      <feFlood flood-opacity="0.161"/>
      <feComposite operator="in" in2="blur"/>
      <feComposite in="SourceGraphic"/>
    </filter>
  </defs>
  <g id="Grupo_1017127" data-name="Grupo 1017127" transform="translate(-644 -4072)">
    <g transform="matrix(1, 0, 0, 1, 644, 4072)" filter="url(#Elipse_7972)">
      <ellipse id="Elipse_7972-2" data-name="Elipse 7972" cx="39" cy="38.5" rx="39" ry="38.5" transform="translate(9 6)" fill="url(#linear-gradient)"/>
    </g>
    <g id="cortisol" transform="translate(660.049 4084.549)">
      <path id="Trazado_716423" data-name="Trazado 716423" d="M63.9,31.951a32.22,32.22,0,0,1-.314,4.5c-.017.124-.5.16-.522.284q-.077.5-.17,1c-.031.166.4.419.371.584A32,32,0,0,1,42.034,62.279c-.159.053-.4-.517-.557-.467q-.412.13-.83.249c-.188.053-.3.726-.485.776A31.954,31.954,0,1,1,49.54,5.272c.138.091-.424.346-.288.44q.829.566,1.619,1.182c.175.136,1.047.111,1.219.251A31.889,31.889,0,0,1,63.9,31.951Z" transform="translate(0 0)" fill="#fed2a4"/>
      <path id="Trazado_716424" data-name="Trazado 716424" d="M131.6,96.364a23.929,23.929,0,1,1-23.929-23.929A23.929,23.929,0,0,1,131.6,96.364Z" transform="translate(-73.288 -63.394)" fill="#ffe5c2"/>
      <path id="Trazado_716425" data-name="Trazado 716425" d="M53.534,73.422l-8.147-14.11.043-.074a.936.936,0,0,0,0-.936l-.043-.074,8.147-14.11h5.28q-1.226-1-2.551-1.872h-3.27a.936.936,0,0,0-.811.468L44.306,56.355,36.43,42.713a.936.936,0,0,0-.811-.468h-18a.936.936,0,0,0-.811.468l-9,15.589a.936.936,0,0,0,0,.936l8.366,14.49a.937.937,0,0,0-.118,1.1l9,15.589a.936.936,0,0,0,.811.468H43.393l3.492,5.972V99.81q.948-.251,1.872-.559V96.6a.937.937,0,0,0-.128-.473L44.981,89.89l8.426-14.6H69.991q.188-.927.321-1.872H53.534ZM9.7,58.77l8.46-14.653H35.079l8.1,14.022a.937.937,0,0,0-.118,1.1l.106.184-8.084,14H18.16ZM43.5,88.717a.941.941,0,0,0-.466.294H26.407L18.488,75.295H35.619a.936.936,0,0,0,.811-.468l7.813-13.533,7.543,13.065Z" transform="translate(-6.724 -36.972)" fill="#ffa78f"/>
      <path id="Trazado_716426" data-name="Trazado 716426" d="M6.967,80.521a2.5,2.5,0,1,1-3.378-3.333c.045-.023-.075.583-.075.942a2.5,2.5,0,0,0,2.5,2.5c.358,0,.974-.14.957-.105ZM29.385,68.688a2.5,2.5,0,0,1-2.5-2.5c0-.358.12-.965.075-.942a2.5,2.5,0,1,0,3.378,3.333c.017-.035-.6.105-.957.105Zm1.6-30.875a2.5,2.5,0,0,1-2.5-2.5c0-.358.12-.965.075-.942a2.5,2.5,0,1,0,3.378,3.333c.017-.035-.6.105-.957.105Zm21.068,6.834a2.5,2.5,0,0,1-2.5-2.5c0-.358.12-.965.075-.942a2.5,2.5,0,1,0,3.378,3.333c.017-.035-.6.105-.957.105ZM4.731,53.181c.017-.035-.6.105-.957.105a2.5,2.5,0,0,1-2.5-2.5c0-.358.12-.965.075-.942a2.5,2.5,0,1,0,3.378,3.333Z" transform="translate(0 -30.084)" fill="#a44f3e"/>
      <path id="Trazado_716427" data-name="Trazado 716427" d="M38.4,65.535a2.485,2.485,0,0,1-.264,1.119A2.5,2.5,0,0,1,34.79,63.3,2.5,2.5,0,0,1,38.4,65.535ZM12.534,74.979a2.486,2.486,0,0,0-1.119.264,2.5,2.5,0,0,0,3.351,3.351,2.5,2.5,0,0,0-2.232-3.615ZM37.508,32.164a2.486,2.486,0,0,0-1.119.264,2.5,2.5,0,0,0,3.351,3.351,2.5,2.5,0,0,0-2.232-3.615ZM58.576,39a2.486,2.486,0,0,0-1.119.264,2.5,2.5,0,0,0,3.351,3.351A2.5,2.5,0,0,0,58.576,39ZM12.53,51.253A2.5,2.5,0,0,0,9.179,47.9a2.5,2.5,0,0,0,3.351,3.351Z" transform="translate(-7.802 -28.15)" fill="#bb5d4c"/>
      <path id="Trazado_716428" data-name="Trazado 716428" d="M382.089,370.827a.936.936,0,0,1-.936.936H374.8a.936.936,0,1,1,0-1.872h6.351A.936.936,0,0,1,382.089,370.827Zm-3.439,2.808H374.8a.936.936,0,1,0,0,1.872h3.848a.936.936,0,0,0,0-1.872Z" transform="translate(-327.204 -323.725)" fill="#bb5d4c"/>
      <path id="Trazado_716429" data-name="Trazado 716429" d="M105.347,58.768a.936.936,0,0,1-.936.936H89.517l-7.344,12.72a.936.936,0,0,1-1.621-.936l7.242-12.544L79.9,43.608a.936.936,0,1,1,1.664-.857l7.766,15.081h15.084A.936.936,0,0,1,105.347,58.768Z" transform="translate(-69.834 -36.97)" fill="#ffbfab"/>
      <path id="Trazado_716430" data-name="Trazado 716430" d="M102.29,157.668A8.738,8.738,0,1,1,90.467,146c.156-.08-.263,2.042-.263,3.3a8.737,8.737,0,0,0,8.737,8.737C100.195,158.036,102.351,157.545,102.29,157.668Zm24.2-18.38a8.738,8.738,0,1,1-11.823-11.664c.156-.081-.263,2.042-.263,3.3a8.737,8.737,0,0,0,8.737,8.737c1.254,0,3.41-.49,3.349-.368Zm-24.735-13.746a8.738,8.738,0,1,1-11.823-11.664c.156-.081-.263,2.042-.263,3.3a8.737,8.737,0,0,0,8.737,8.737C99.659,125.91,101.815,125.419,101.754,125.541Z" transform="translate(-74.562 -99.662)" fill="#ff4343"/>
      <path id="Trazado_716431" data-name="Trazado 716431" d="M130.514,147a8.7,8.7,0,0,1-.925,3.917,8.74,8.74,0,0,1-12.654-7.812,8.469,8.469,0,0,1,.842-3.875,9.085,9.085,0,0,1,4-.967A8.737,8.737,0,0,1,130.514,147Zm24.2-18.38a8.7,8.7,0,0,1-.925,3.917,8.74,8.74,0,0,1-12.654-7.812,8.47,8.47,0,0,1,.842-3.875,9.085,9.085,0,0,1,4-.967A8.737,8.737,0,0,1,154.713,128.625Zm-24.735-13.746a8.7,8.7,0,0,1-.925,3.917,8.74,8.74,0,0,1-12.654-7.812,8.469,8.469,0,0,1,.842-3.875,9.085,9.085,0,0,1,4-.967A8.737,8.737,0,0,1,129.979,114.879Z" transform="translate(-101.872 -92.894)" fill="#ff5757"/>
      <path id="Trazado_716432" data-name="Trazado 716432" d="M119.014,187.517a.931.931,0,0,1-.447-.114,7.544,7.544,0,0,0-6.372,0,.936.936,0,0,1-.9-1.644,9.375,9.375,0,0,1,8.164,0,.936.936,0,0,1-.449,1.758Zm-4.321-6.734a.936.936,0,0,0-.734-1.1l-3.212-.642a.936.936,0,1,0-.367,1.836l3.212.642a.935.935,0,0,0,1.1-.734Zm2.478.734,3.212-.642a.936.936,0,1,0-.367-1.836l-3.212.642a.936.936,0,1,0,.367,1.836Zm26.865-12.868a.936.936,0,0,0-.374-1.27,9.374,9.374,0,0,0-8.164,0,.936.936,0,0,0,.9,1.644,7.544,7.544,0,0,1,6.372,0,.935.935,0,0,0,1.27-.374Zm-5.144-6.246a.936.936,0,0,0-.734-1.1l-3.212-.642a.936.936,0,1,0-.367,1.836l3.212.642a.935.935,0,0,0,1.1-.734Zm2.478.734,3.212-.642a.936.936,0,1,0-.367-1.836L141,161.3a.936.936,0,1,0,.367,1.836ZM119.3,154.9a.936.936,0,0,0-.374-1.27,9.374,9.374,0,0,0-8.164,0,.936.936,0,1,0,.9,1.644,7.546,7.546,0,0,1,6.372,0,.935.935,0,0,0,1.27-.374Zm-5.144-6.246a.936.936,0,0,0-.734-1.1l-3.212-.642a.936.936,0,0,0-.367,1.836l3.212.642a.935.935,0,0,0,1.1-.734Zm2.478.734,3.212-.642a.936.936,0,0,0-.367-1.836l-3.212.642a.936.936,0,1,0,.367,1.836Z" transform="translate(-95.475 -128.561)" fill="#cb2222"/>
      <path id="Trazado_716433" data-name="Trazado 716433" d="M64.93,58.823a3.745,3.745,0,1,1-5.067-5c.067-.035-.113.875-.113,1.412a3.744,3.744,0,0,0,3.744,3.744C64.032,58.981,64.956,58.771,64.93,58.823Zm24.515-14.8A3.744,3.744,0,0,1,85.7,40.279c0-.537.18-1.447.113-1.412a3.745,3.745,0,1,0,5.067,5C90.906,43.813,89.982,44.023,89.444,44.023Zm18.993,4.788a3.744,3.744,0,0,1-3.744-3.744c0-.537.18-1.447.113-1.412a3.745,3.745,0,1,0,5.067,5c.026-.052-.9.158-1.435.158ZM61.169,30.389a3.744,3.744,0,0,0,3.353-2.075c.026-.052-.9.158-1.435.158a3.744,3.744,0,0,1-3.744-3.744c0-.537.18-1.447.113-1.412a3.745,3.745,0,0,0,1.714,7.074Z" transform="translate(-50.258 -20.405)" fill="#54469d"/>
      <path id="Trazado_716434" data-name="Trazado 716434" d="M77.026,54.252a3.728,3.728,0,0,1-.4,1.679A3.746,3.746,0,0,1,71.6,50.9a3.746,3.746,0,0,1,5.423,3.348Zm22.206-18.7a3.728,3.728,0,0,0-1.679.4,3.746,3.746,0,0,0,5.026,5.026,3.746,3.746,0,0,0-3.348-5.423Zm18.993,4.788a3.728,3.728,0,0,0-1.679.4,3.746,3.746,0,0,0,5.026,5.026,3.746,3.746,0,0,0-3.348-5.423ZM74.543,25.818a3.728,3.728,0,0,0,1.679-.4A3.746,3.746,0,0,0,71.2,20.4a3.746,3.746,0,0,0,3.348,5.423Z" transform="translate(-61.963 -17.503)" fill="#6e61b7"/>
    </g>
  </g>
</svg>
