<svg xmlns="http://www.w3.org/2000/svg" xmlns:xlink="http://www.w3.org/1999/xlink" width="96" height="95" viewBox="0 0 96 95">
  <defs>
    <linearGradient id="linear-gradient" x1="0.5" x2="0.5" y2="1" gradientUnits="objectBoundingBox">
      <stop offset="0" stop-color="#fff"/>
      <stop offset="1" stop-color="#e9e9e9"/>
    </linearGradient>
    <filter id="Elipse_7973" x="0" y="0" width="96" height="95" filterUnits="userSpaceOnUse">
      <feOffset dy="3" input="SourceAlpha"/>
      <feGaussianBlur stdDeviation="3" result="blur"/>
      <feFlood flood-opacity="0.161"/>
      <feComposite operator="in" in2="blur"/>
      <feComposite in="SourceGraphic"/>
    </filter>
  </defs>
  <g id="Grupo_1017128" data-name="Grupo 1017128" transform="translate(-959 -4072)">
    <g transform="matrix(1, 0, 0, 1, 959, 4072)" filter="url(#Elipse_7973)">
      <ellipse id="Elipse_7973-2" data-name="Elipse 7973" cx="39" cy="38.5" rx="39" ry="38.5" transform="translate(9 6)" fill="url(#linear-gradient)"/>
    </g>
    <g id="sustancia" transform="translate(974.598 4084.549)">
      <path id="Trazado_716498" data-name="Trazado 716498" d="M63.9,31.951A31.951,31.951,0,1,1,31.951,0,31.951,31.951,0,0,1,63.9,31.951Z" fill="#c4e2ff"/>
      <path id="Trazado_716499" data-name="Trazado 716499" d="M204.992,13.729a2.5,2.5,0,1,1-2.5-2.5A2.5,2.5,0,0,1,204.992,13.729Zm6.24-7.489a2.5,2.5,0,1,0,2.5,2.5A2.5,2.5,0,0,0,211.233,6.24ZM205.575,0a2.5,2.5,0,1,0,2.5,2.5A2.5,2.5,0,0,0,205.575,0Z" transform="translate(-175.038)" fill="#8ec0f1"/>
      <path id="Trazado_716500" data-name="Trazado 716500" d="M96.956,153.147a31.957,31.957,0,0,1-52.907,0l20.213-20.213v-9.942h-.749a1.248,1.248,0,0,1-1.248-1.248v-2.5A1.248,1.248,0,0,1,63.513,118H77.492a1.248,1.248,0,0,1,1.248,1.248v2.5a1.248,1.248,0,0,1-1.248,1.248h-.749v9.942Z" transform="translate(-38.551 -103.273)" fill="#b4d7dc"/>
      <path id="Trazado_716501" data-name="Trazado 716501" d="M111.771,153.147h0a31.952,31.952,0,0,1-50.794,2.773l21.1-21.244v-7.951a1.248,1.248,0,0,1,1.251-1.248l4.989.012a1.248,1.248,0,0,0,1.245-1.331,1.276,1.276,0,0,0-1.288-1.165H82.325a1.248,1.248,0,0,1-1.245-1.248v-2.5A1.248,1.248,0,0,1,82.328,118h9.979a1.248,1.248,0,0,1,1.248,1.248v2.5a1.248,1.248,0,0,1-1.248,1.248h-.749v9.942Z" transform="translate(-53.367 -103.273)" fill="#d5ecf2"/>
      <path id="Trazado_716502" data-name="Trazado 716502" d="M103.493,321.1l12.853,12.853a31.947,31.947,0,0,1-46.457,0L79,324.841a3.744,3.744,0,0,1,2.648-1.1h4.332a6.392,6.392,0,0,0,4.52-1.872h0A6.392,6.392,0,0,1,95.016,320h5.829A3.744,3.744,0,0,1,103.493,321.1Z" transform="translate(-61.166 -280.061)" fill="#3caf96"/>
      <path id="Trazado_716503" data-name="Trazado 716503" d="M161.256,321.1a3.744,3.744,0,0,0-2.648-1.1h-5.829a6.392,6.392,0,0,0-4.52,1.872,6.392,6.392,0,0,1-4.52,1.872h-4.332a3.744,3.744,0,0,0-2.648,1.1l-.871.871a31.9,31.9,0,0,0,16.743,9.353c0-.03,0-.059,0-.088a2.5,2.5,0,1,1,4.889.708q.8.039,1.6.041a31.825,31.825,0,0,0,13.692-3.076Zm-11.125,10.136a2.5,2.5,0,1,1,2.5-2.5A2.5,2.5,0,0,1,150.131,331.233Z" transform="translate(-118.929 -280.061)" fill="#5ac3a5"/>
    </g>
  </g>
</svg>
