<svg xmlns="http://www.w3.org/2000/svg" width="102.904" height="102.939" viewBox="0 0 102.904 102.939">
  <g id="empleado-del-mes" transform="translate(-0.088)">
    <g id="Grupo_901524" data-name="Grupo 901524" transform="translate(0.088 0)">
      <g id="Grupo_901520" data-name="Grupo 901520" transform="translate(0)">
        <ellipse id="Elipse_5263" data-name="Elipse 5263" cx="45.287" cy="45.217" rx="45.287" ry="45.217" fill="#cee284"/>
      </g>
      <g id="Grupo_901521" data-name="Grupo 901521" transform="translate(0 43.301)">
        <path id="Trazado_625583" data-name="Trazado 625583" d="M19.989,254.6l2.226-.639-1.826-2.828A45.292,45.292,0,0,1,.126,215.274,45.255,45.255,0,0,0,19.989,254.6Z" transform="translate(-0.088 -215.274)" fill="#adce32"/>
        <path id="Trazado_625584" data-name="Trazado 625584" d="M361.7,215.275a45.277,45.277,0,0,1-21.045,36.359l-1.23,2.871,1.537.67a45.259,45.259,0,0,0,20.738-39.9Z" transform="translate(-271.167 -215.275)" fill="#adce32"/>
      </g>
      <path id="Trazado_625585" data-name="Trazado 625585" d="M131.262,317.6H119.845a19.24,19.24,0,0,0-18.835,15.273l2.264,3.327c15.594,7.341,28.985,8.4,45.049.246l1.872-3.068A19.237,19.237,0,0,0,131.262,317.6Z" transform="translate(-80.71 -253.713)" fill="#8bcaff"/>
      <path id="Trazado_625586" data-name="Trazado 625586" d="M99.427,393.527a19.222,19.222,0,0,0-.4,3.466,45.1,45.1,0,0,0,18.258,7.2l6.685-1.252,6.706,1.38a45.128,45.128,0,0,0,18.243-6.751v-.108a19.285,19.285,0,0,0-.307-3.433A45.4,45.4,0,0,1,99.427,393.527Z" transform="translate(-79.126 -314.371)" fill="#60b8ff"/>
      <path id="Trazado_625587" data-name="Trazado 625587" d="M206.551,324.354l-3.5,1.81-3.5-1.81-1.528-6.758h10.062Z" transform="translate(-158.205 -253.713)" fill="#c61926"/>
      <path id="Trazado_625588" data-name="Trazado 625588" d="M194.005,368.567l9.77.129,1.2-1.847-2.6-15.654h-7.006l-2.577,15.54Z" transform="translate(-154.036 -280.554)" fill="#ff4755"/>
      <path id="Trazado_625589" data-name="Trazado 625589" d="M190.4,428.451l-.6,3.643a45.616,45.616,0,0,0,13.391.129l-.607-3.657A45.615,45.615,0,0,1,190.4,428.451Z" transform="translate(-151.636 -342.27)" fill="#fc2b3a"/>
      <path id="Trazado_625590" data-name="Trazado 625590" d="M125.757,212.48l-1.81-3.574a5.288,5.288,0,0,0-.538-.028,4.222,4.222,0,1,0-1.091,8.366l1.629-1.734Z" transform="translate(-94.719 -166.864)" fill="#f4b184"/>
      <path id="Trazado_625591" data-name="Trazado 625591" d="M122.041,228.765a5.207,5.207,0,0,1-4.859-3.33,5.2,5.2,0,0,0,4.859,7.067,5.258,5.258,0,0,0,.694-.046l1.873-2.1-2.029-1.618A5.116,5.116,0,0,1,122.041,228.765Z" transform="translate(-93.351 -180.09)" fill="#eaa678"/>
      <path id="Trazado_625592" data-name="Trazado 625592" d="M291.665,212.48l1.81-3.574a5.289,5.289,0,0,1,.538-.028,4.222,4.222,0,1,1,1.091,8.366l-1.629-1.734Z" transform="translate(-233.016 -166.864)" fill="#f4b184"/>
      <path id="Trazado_625593" data-name="Trazado 625593" d="M293.148,228.765a5.207,5.207,0,0,0,4.859-3.33,5.2,5.2,0,0,1-4.859,7.067,5.258,5.258,0,0,1-.694-.046l-1.873-2.1,2.029-1.618A5.116,5.116,0,0,0,293.148,228.765Z" transform="translate(-232.15 -180.09)" fill="#eaa678"/>
      <path id="Trazado_625594" data-name="Trazado 625594" d="M145.4,138.725v20.446a15.616,15.616,0,0,0,31.231,0V138.725Z" transform="translate(-116.169 -110.821)" fill="#ffc89f"/>
      <path id="Trazado_625595" data-name="Trazado 625595" d="M161.013,246.384A15.6,15.6,0,0,1,145.4,230.792v3.737a15.616,15.616,0,0,0,31.231,0v-3.737A15.6,15.6,0,0,1,161.013,246.384Z" transform="translate(-116.169 -184.369)" fill="#f7bc94"/>
      <path id="Trazado_625596" data-name="Trazado 625596" d="M148.144,80.473a9.064,9.064,0,0,0-3.138-6.529,10.724,10.724,0,0,0-6.662-2.224c-1.7-1.511-7.279-5.724-14.765-3.575a29.812,29.812,0,0,0-7.631,3.579c-3.147,1.906-5.633,3.413-10.723,2.767a1.559,1.559,0,0,0-1.753,1.651,7.935,7.935,0,0,0,4.7,6.8,8.576,8.576,0,0,1-4.525.975,1.625,1.625,0,0,0-.213.009s-.015,5.182,8.553,7.07c3.726.821,9.663-.58,13.775-3.086a4.811,4.811,0,0,0,5.149,2.107c2.417-.6,4.65-2.838,6.34-4.066A17,17,0,0,0,142.346,91a1.563,1.563,0,0,0,1.7-.116C144.242,90.737,148.508,85.128,148.144,80.473Z" transform="translate(-82.648 -53.96)" fill="#7b7179"/>
      <g id="Grupo_901522" data-name="Grupo 901522" transform="translate(19.394 26.401)">
        <path id="Trazado_625597" data-name="Trazado 625597" d="M119.87,151.616l.009-.042a.884.884,0,0,0-1.387-.912,20.521,20.521,0,0,1-11.573,3.906l-.2,0a4.587,4.587,0,0,1-1.194-.189c-3.185-.948-6.117-3.746-7.627-5.386A1.555,1.555,0,0,0,96.84,151.5c.168.215,4.177,5.274,8.689,6.616a4.58,4.58,0,0,0,1.194.189l.2,0a20.478,20.478,0,0,0,13.311-5.331A1.555,1.555,0,0,1,119.87,151.616Z" transform="translate(-96.508 -145.423)" fill="#726a71"/>
        <path id="Trazado_625598" data-name="Trazado 625598" d="M236.811,131.252c-.6,5.9-3.92,8.472-4.087,8.6a1.563,1.563,0,0,1-1.7.116,16.565,16.565,0,0,1-4.608-4.416.894.894,0,0,0-1.335-.106c-3.641,3.568-9.085,3.853-9.33,3.875a1.563,1.563,0,0,1-1.308-.516,4.35,4.35,0,0,1,.388,2.6,1.556,1.556,0,0,0,1.667,1.885,14.909,14.909,0,0,0,9.287-4.864,18.25,18.25,0,0,0,5.239,5.282,1.563,1.563,0,0,0,1.7-.116c.2-.149,4.874-3.774,4.089-12.335Z" transform="translate(-190.722 -131.252)" fill="#726a71"/>
      </g>
      <path id="Trazado_625599" data-name="Trazado 625599" d="M363.019,341.847a18.745,18.745,0,0,0-37.249.386c-.064.63-.1,18.849,18.646,18.849C363.238,361.081,363.111,342.6,363.019,341.847Z" transform="translate(-260.255 -259.952)" fill="#ff4755"/>
      <path id="Trazado_625600" data-name="Trazado 625600" d="M344.06,426.171A18.745,18.745,0,0,1,325.41,409.3q-.091.922-.093,1.869a18.743,18.743,0,1,0,37.486,0q0-.946-.093-1.869A18.745,18.745,0,0,1,344.06,426.171Z" transform="translate(-259.899 -326.969)" fill="#fc2b3a"/>
      <path id="Trazado_625601" data-name="Trazado 625601" d="M381.573,368.412l1.622,3.286a1.775,1.775,0,0,0,1.337.971l3.626.527a1.775,1.775,0,0,1,.984,3.028l-2.624,2.558a1.776,1.776,0,0,0-.511,1.571l.523,3.049h-13.1l.523-3.049a1.775,1.775,0,0,0-.51-1.571l-2.624-2.558a1.775,1.775,0,0,1,.984-3.028l3.626-.527a1.775,1.775,0,0,0,1.337-.971l1.622-3.286A1.775,1.775,0,0,1,381.573,368.412Z" transform="translate(-295.82 -293.517)" fill="#fff5f5"/>
      <g id="Grupo_901523" data-name="Grupo 901523" transform="translate(77.488 86.672)">
        <path id="Trazado_625602" data-name="Trazado 625602" d="M398.546,434.107l-5.723-3.008a1.775,1.775,0,0,0-1.652,0l-5.723,3.008-.1.563a1.775,1.775,0,0,0,2.576,1.871l3.243-1.705a1.775,1.775,0,0,1,1.652,0l3.243,1.705a1.775,1.775,0,0,0,2.576-1.871Z" transform="translate(-385.325 -430.894)" fill="#efe2dd"/>
      </g>
    </g>
    <g id="Grupo_901526" data-name="Grupo 901526" transform="translate(35.747 42.305)">
      <path id="Trazado_625603" data-name="Trazado 625603" d="M200.083,261a6.42,6.42,0,0,0,6.02-3.241,1.56,1.56,0,0,0-1.363-2.331,1.567,1.567,0,0,0-1.433.932c-.724,1.5-3.121,1.52-3.223,1.52s-2.5-.018-3.225-1.522a1.567,1.567,0,0,0-3,.633,1.551,1.551,0,0,0,.2.77A6.421,6.421,0,0,0,200.083,261Z" transform="translate(-190.542 -246.356)" fill="#ff4755"/>
      <g id="Grupo_901525" data-name="Grupo 901525">
        <path id="Trazado_625604" data-name="Trazado 625604" d="M178.932,210.32a1.562,1.562,0,0,0-1.565,1.56v3.5a1.565,1.565,0,0,0,3.13,0v-3.5A1.563,1.563,0,0,0,178.932,210.32Z" transform="translate(-177.367 -210.32)" fill="#726a71"/>
        <path id="Trazado_625605" data-name="Trazado 625605" d="M254.434,216.943a1.563,1.563,0,0,0,1.565-1.56v-3.5a1.565,1.565,0,0,0-3.13,0v3.5A1.563,1.563,0,0,0,254.434,216.943Z" transform="translate(-237.682 -210.32)" fill="#726a71"/>
      </g>
    </g>
  </g>
</svg>
