<svg xmlns="http://www.w3.org/2000/svg" width="1114" height="300" viewBox="0 0 1114 300">
  <g id="Grupo_1017163" data-name="Grupo 1017163" transform="translate(9337 6099.5)">
    <g id="Grupo_1017162" data-name="Grupo 1017162">
      <text id="Alimentos_Los_productos_de_cosecha_como_lo_son_alimentos_deben_estar_almacenados_e_identificados_para_que_no_constituyan_un_riesgo_para_la_inocuidad._" data-name="Alimentos
Los productos de cosecha como lo son alimentos deben estar almacenados e identificados para que no constituyan un riesgo para la inocuidad. 
" transform="translate(-9303 -6014.848)" fill="#12263f" font-size="16" font-family="Roboto-Bold, Roboto" font-weight="700"><tspan x="0" y="17">Alimentos</tspan><tspan font-family="Roboto-Regular, Roboto" font-weight="400"><tspan x="0" y="41">Los productos de cosecha </tspan><tspan x="0" y="65">como lo son alimentos </tspan><tspan x="0" y="89">deben estar almacenados e </tspan><tspan x="0" y="113">identificados para que no </tspan><tspan x="0" y="137">constituyan un riesgo para </tspan><tspan x="0" y="161">la inocuidad. </tspan><tspan x="0" y="185"></tspan></tspan></text>
      <text id="Vacunas_Los_productos_biológicos_vacunas_y_medicamentos_que_requieran_refrigeración_deben_ser_almacenados_y_transportados_con_su_respectivo_rotulado_deben_mantener_a_temperatura_recomendada_por_el_laboratorio_fabricante_y_llevar_un_registro_de_control_de_" data-name="Vacunas
Los productos biológicos vacunas y medicamentos que requieran refrigeración deben ser almacenados y transportados con su respectivo rotulado, deben mantener a temperatura recomendada por el laboratorio fabricante y llevar un registro de control de " transform="translate(-8800 -6014.848)" fill="#12263f" font-size="16" font-family="Roboto-Bold, Roboto" font-weight="700"><tspan x="0" y="17">Vacunas</tspan><tspan font-family="Roboto-Regular, Roboto" font-weight="400"><tspan x="0" y="41">Los productos biológicos vacunas y </tspan><tspan x="0" y="65">medicamentos que requieran refrigeración </tspan><tspan x="0" y="89">deben ser almacenados y transportados con </tspan><tspan x="0" y="113">su respectivo rotulado, deben mantener a </tspan><tspan x="0" y="137">temperatura recomendada por el laboratorio </tspan><tspan x="0" y="161">fabricante y llevar un registro de control de </tspan><tspan x="0" y="185">temperatura diario. </tspan></tspan></text>
      <text id="Medicamentos_especiales_Los_medicamentos_especiales_deben_contar_con_recetario_oficial_de_Comvezcol._" data-name="Medicamentos especiales
Los medicamentos especiales deben contar con recetario oficial de Comvezcol. 
" transform="translate(-9027 -6014.848)" fill="#12263f" font-size="16" font-family="Roboto-Bold, Roboto" font-weight="700"><tspan x="0" y="17">Medicamentos </tspan><tspan x="0" y="41">especiales</tspan><tspan font-family="Roboto-Regular, Roboto" font-weight="400"><tspan x="0" y="65">Los medicamentos </tspan><tspan x="0" y="89">especiales deben </tspan><tspan x="0" y="113">contar con recetario </tspan><tspan x="0" y="137">oficial de Comvezcol. </tspan><tspan x="0" y="161"></tspan></tspan></text>
      <text id="Animales_enfermos_Los_animales_tratados_con_enfermedades_infectocontagiosas_se_deben_aislar._" data-name="Animales enfermos
Los animales tratados con enfermedades infectocontagiosas se deben aislar.
" transform="translate(-8409.5 -6014.848)" fill="#12263f" font-size="16" font-family="Roboto-Bold, Roboto" font-weight="700"><tspan x="0" y="17">Animales enfermos</tspan><tspan font-family="Roboto-Regular, Roboto" font-weight="400"><tspan x="0" y="41">Los animales tratados </tspan><tspan x="0" y="65">con enfermedades </tspan><tspan x="0" y="89">infectocontagiosas se </tspan><tspan x="0" y="113">deben aislar.</tspan><tspan x="0" y="137"></tspan></tspan></text>
      <g id="Rectángulo_351583" data-name="Rectángulo 351583" transform="translate(-9337 -6099.5)" fill="none" stroke="#ffa686" stroke-width="1">
        <rect width="265" height="300" rx="26" stroke="none"/>
        <rect x="0.5" y="0.5" width="264" height="299" rx="25.5" fill="none"/>
      </g>
      <g id="Rectángulo_351584" data-name="Rectángulo 351584" transform="translate(-9054 -6099.5)" fill="none" stroke="#ffa686" stroke-width="1">
        <rect width="212" height="300" rx="26" stroke="none"/>
        <rect x="0.5" y="0.5" width="211" height="299" rx="25.5" fill="none"/>
      </g>
      <g id="Rectángulo_351585" data-name="Rectángulo 351585" transform="translate(-8827 -6099.5)" fill="none" stroke="#ffa686" stroke-width="1">
        <rect width="375" height="300" rx="26" stroke="none"/>
        <rect x="0.5" y="0.5" width="374" height="299" rx="25.5" fill="none"/>
      </g>
      <g id="Rectángulo_351586" data-name="Rectángulo 351586" transform="translate(-8432 -6099.5)" fill="none" stroke="#ffa686" stroke-width="1">
        <rect width="209" height="300" rx="26" stroke="none"/>
        <rect x="0.5" y="0.5" width="208" height="299" rx="25.5" fill="none"/>
      </g>
      <g id="Grupo_1014143" data-name="Grupo 1014143" transform="translate(-8543 -6088.5)">
        <g id="Grupo_1014142" data-name="Grupo 1014142">
          <circle id="Elipse_7928" data-name="Elipse 7928" cx="36.5" cy="36.5" r="36.5" fill="#00ddc1"/>
        </g>
      </g>
      <path id="Trazado_713903" data-name="Trazado 713903" d="M93.743,158.568l14.294,14.294a36.587,36.587,0,0,0,45.335-38.71l-16.56-16.561Z" transform="translate(-8623.347 -6189.286)" fill="#00baa0"/>
      <g id="Grupo_1014146" data-name="Grupo 1014146" transform="translate(-8529.604 -6039.908)">
        <g id="Grupo_1014144" data-name="Grupo 1014144">
          <path id="Trazado_713904" data-name="Trazado 713904" d="M97.785,349.215H93.743l9.189-9.189,2.021,2.021Z" transform="translate(-93.743 -340.026)" fill="#eef4ff"/>
        </g>
        <g id="Grupo_1014145" data-name="Grupo 1014145" transform="translate(2.021 1.011)">
          <path id="Trazado_713905" data-name="Trazado 713905" d="M109.907,355.276h-2.021l8.178-8.179,1.011,1.01Z" transform="translate(-107.886 -347.097)" fill="#d6e9f8"/>
        </g>
      </g>
      <g id="Grupo_1014147" data-name="Grupo 1014147" transform="translate(-8521.228 -6070.726)">
        <path id="Trazado_713906" data-name="Trazado 713906" d="M0,0H17.721V29.868H0Z" transform="translate(21.116 0) rotate(45)" fill="#eef4ff"/>
        <path id="Trazado_713907" data-name="Trazado 713907" d="M0,0H8.789V29.868H0Z" transform="translate(27.432 6.315) rotate(45)" fill="#d6e9f8"/>
      </g>
      <g id="Grupo_1014148" data-name="Grupo 1014148" transform="translate(-8518.538 -6066.475)">
        <path id="Trazado_713908" data-name="Trazado 713908" d="M0,0H24.646V13.148H0Z" transform="translate(26.72 9.295) rotate(135)" fill="#d6e9f8"/>
        <path id="Trazado_713909" data-name="Trazado 713909" d="M0,0H24.646V6.5H0Z" transform="translate(26.721 9.296) rotate(135)" fill="#b2d7f3"/>
      </g>
      <g id="Grupo_1014149" data-name="Grupo 1014149" transform="translate(-8523.35 -6043.847)">
        <path id="Trazado_713910" data-name="Trazado 713910" d="M0,0H6.288V6.288H0Z" transform="translate(4.446 0) rotate(45)" fill="#7a3eb4"/>
        <path id="Trazado_713911" data-name="Trazado 713911" d="M0,0H3.144V6.288H0Z" transform="translate(6.669 2.223) rotate(45)" fill="#613393"/>
      </g>
      <g id="Grupo_1014150" data-name="Grupo 1014150" transform="translate(-8521.659 -6050.667)">
        <path id="Trazado_713912" data-name="Trazado 713912" d="M156.3,277.485l-6.962-6.962.429-4.718,1.065-1.065,9.106,9.106Z" transform="translate(-149.334 -264.74)" fill="#eef4ff"/>
        <path id="Trazado_713913" data-name="Trazado 713913" d="M182.592,316.644l-4.071-4.071,3.639-3.639,5.2,5.2-.055,2.076Z" transform="translate(-174.35 -302.618)" fill="#d6e9f8"/>
      </g>
      <g id="Grupo_1014151" data-name="Grupo 1014151" transform="translate(-8519.619 -6054.56)">
        <path id="Trazado_713914" data-name="Trazado 713914" d="M0,0H9.3V13.148H0Z" transform="translate(0 6.575) rotate(-45)" fill="#ff6379"/>
        <path id="Trazado_713915" data-name="Trazado 713915" d="M0,0H9.3V6.5H0Z" transform="translate(4.698 11.273) rotate(-45)" fill="#ff415b"/>
      </g>
      <g id="Grupo_1014152" data-name="Grupo 1014152" transform="translate(-8513.743 -6055.375)">
        <path id="Trazado_713916" data-name="Trazado 713916" d="M0,0H8.041V2.144H0Z" transform="translate(1.516 0) rotate(45)" fill="#b2d7f3"/>
        <path id="Trazado_713917" data-name="Trazado 713917" d="M0,0H6.5V2.144H0Z" transform="translate(6.214 4.698) rotate(45)" fill="#8bbbff"/>
      </g>
      <g id="Grupo_1014153" data-name="Grupo 1014153" transform="translate(-8509.658 -6071.149)">
        <path id="Trazado_713918" data-name="Trazado 713918" d="M0,0H28.11V3.716H0Z" transform="translate(0 19.874) rotate(-45)" fill="#b2d7f3"/>
        <path id="Trazado_713919" data-name="Trazado 713919" d="M0,0H28.11V1.786H0Z" transform="translate(1.364 21.238) rotate(-45)" fill="#8bbbff"/>
      </g>
      <g id="Grupo_1014154" data-name="Grupo 1014154" transform="translate(-8496.476 -6078.002)">
        <path id="Trazado_713920" data-name="Trazado 713920" d="M0,0H17.721V5.145H0Z" transform="translate(3.637 0) rotate(45)" fill="#d6e9f8"/>
        <path id="Trazado_713921" data-name="Trazado 713921" d="M0,0H8.789V5.145H0Z" transform="translate(9.953 6.315) rotate(45)" fill="#b2d7f3"/>
      </g>
      <g id="Grupo_1014155" data-name="Grupo 1014155" transform="translate(-8502.739 -6070.728)">
        <path id="Trazado_713922" data-name="Trazado 713922" d="M0,0H8.932V3.716H0Z" transform="translate(2.627 0) rotate(45)" fill="#eef4ff"/>
        <path id="Trazado_713923" data-name="Trazado 713923" d="M0,0H8.789V3.716H0Z" transform="translate(8.943 6.314) rotate(45)" fill="#d6e9f8"/>
      </g>
      <g id="Grupo_1014157" data-name="Grupo 1014157" transform="translate(-8934.402 -6085.356)">
        <path id="Trazado_713924" data-name="Trazado 713924" d="M16.859,131.3A34.846,34.846,0,0,0,11,150.691a35.252,35.252,0,0,0,.468,5.719h5.392Z" transform="translate(-11 -115.678)" fill="#99e6fc"/>
        <g id="Grupo_1014156" data-name="Grupo 1014156" transform="translate(18.478)">
          <path id="Trazado_713925" data-name="Trazado 713925" d="M159.321,22.089c-.822-.058-1.651-.089-2.487-.089A34.855,34.855,0,0,0,140.3,26.144H156A13.6,13.6,0,0,1,159.321,22.089Z" transform="translate(-140.299 -22)" fill="#99e6fc"/>
          <path id="Trazado_713926" data-name="Trazado 713926" d="M344,92.5c0,.143.008.286.008.429a13.427,13.427,0,0,1-.973,5.04,9.107,9.107,0,0,0-11.45,8.421c-.365.029-.728.044-1.082.044-.167,0-.334,0-.5-.01v12.3h16.872a1.365,1.365,0,0,1,1.363,1.363v3.07h5.734A35.039,35.039,0,0,0,344,92.5Z" transform="translate(-302.89 -82.421)" fill="#99e6fc"/>
        </g>
      </g>
      <g id="Grupo_1014158" data-name="Grupo 1014158" transform="translate(-8933.958 -6044.767)">
        <path id="Trazado_713927" data-name="Trazado 713927" d="M443.806,306.021v1.592a1.365,1.365,0,0,1-1.364,1.363H441.5v14.336a34.88,34.88,0,0,0,8.058-17.292Z" transform="translate(-380.426 -306.021)" fill="#01d0fb"/>
        <path id="Trazado_713928" data-name="Trazado 713928" d="M139.21,463.3a1.741,1.741,0,0,1-1.739-1.739V460.6l-.17.033a1.3,1.3,0,0,1-.247.024h-30.67a35.022,35.022,0,0,0,38.807,2.648H139.21Z" transform="translate(-93.197 -438.507)" fill="#01d0fb"/>
        <path id="Trazado_713929" data-name="Trazado 713929" d="M19.521,306.021H14.106a34.809,34.809,0,0,0,5.415,13.814Z" transform="translate(-14.106 -306.021)" fill="#01d0fb"/>
      </g>
      <path id="Trazado_713930" data-name="Trazado 713930" d="M89.065,82.3h1.949V70A13.5,13.5,0,0,1,79.538,50H52.429A1.429,1.429,0,0,0,51,51.429v48.758a35.2,35.2,0,0,0,8.1,8.691H89.585a1.429,1.429,0,0,0,.417-.062V89.543h-.937A1.365,1.365,0,0,1,87.7,88.18V83.661A1.365,1.365,0,0,1,89.065,82.3Z" transform="translate(-8979.686 -6131.354)" fill="#f2fbff"/>
      <g id="Grupo_1014160" data-name="Grupo 1014160" transform="translate(-8928.686 -6081.354)">
        <g id="Grupo_1014159" data-name="Grupo 1014159">
          <path id="Trazado_713931" data-name="Trazado 713931" d="M59,51.429A1.429,1.429,0,0,1,60.432,50h-8A1.429,1.429,0,0,0,51,51.429v48.758a35.2,35.2,0,0,0,8,8.615Z" transform="translate(-51 -50)" fill="#dff6fd"/>
        </g>
      </g>
      <g id="Grupo_1014167" data-name="Grupo 1014167" transform="translate(-8892.128 -6049.2)">
        <g id="Grupo_1014161" data-name="Grupo 1014161" transform="translate(2.301 7.23)">
          <path id="Trazado_713932" data-name="Trazado 713932" d="M340.007,345.854V325.6h-17.09v20.259a1.882,1.882,0,0,0,1.882,1.882h13.326A1.882,1.882,0,0,0,340.007,345.854Z" transform="translate(-322.917 -325.595)" fill="#ffc344"/>
        </g>
        <g id="Grupo_1014162" data-name="Grupo 1014162" transform="translate(2.301 7.23)">
          <path id="Trazado_713933" data-name="Trazado 713933" d="M322.917,325.6v20.326A1.883,1.883,0,0,0,324.8,347.8H328V325.6Z" transform="translate(-322.917 -325.595)" fill="#f6ab31"/>
        </g>
        <g id="Grupo_1014163" data-name="Grupo 1014163" transform="translate(9.942 10.459)">
          <path id="Trazado_713934" data-name="Trazado 713934" d="M377.517,362.651h8.319V348.19h-8.319a1.13,1.13,0,0,0-1.13,1.13v12.2A1.13,1.13,0,0,0,377.517,362.651Z" transform="translate(-376.387 -348.19)" fill="#fff"/>
        </g>
        <path id="Trazado_713935" data-name="Trazado 713935" d="M380.029,361.521v-12.2a1.13,1.13,0,0,1,1.13-1.13h-3.643a1.13,1.13,0,0,0-1.13,1.13v12.2a1.13,1.13,0,0,0,1.13,1.13h3.643A1.13,1.13,0,0,1,380.029,361.521Z" transform="translate(-366.444 -337.731)" fill="#f2fbff"/>
        <g id="Grupo_1014164" data-name="Grupo 1014164" transform="translate(9.942 19.408)">
          <path id="Trazado_713936" data-name="Trazado 713936" d="M376.387,415.192a1.13,1.13,0,0,0,1.13,1.13h8.319V410.81h-9.449Z" transform="translate(-376.387 -410.81)" fill="#dff6fd"/>
        </g>
        <path id="Trazado_713937" data-name="Trazado 713937" d="M380.029,415.192V410.81h-3.643v4.382a1.13,1.13,0,0,0,1.13,1.13h3.643A1.13,1.13,0,0,1,380.029,415.192Z" transform="translate(-366.444 -391.402)" fill="#c8effe"/>
        <g id="Grupo_1014165" data-name="Grupo 1014165">
          <path id="Trazado_713938" data-name="Trazado 713938" d="M327,275H308.324a1.506,1.506,0,0,0-1.506,1.506v4.519a1.506,1.506,0,0,0,1.506,1.506H327a1.506,1.506,0,0,0,1.506-1.506v-4.519A1.506,1.506,0,0,0,327,275Z" transform="translate(-306.818 -275)" fill="#fff0ad"/>
        </g>
        <g id="Grupo_1014166" data-name="Grupo 1014166" transform="translate(0 0)">
          <path id="Trazado_713939" data-name="Trazado 713939" d="M314.35,279.82a1.506,1.506,0,0,1-1.506-1.506V275h-4.519a1.506,1.506,0,0,0-1.506,1.506v4.519a1.506,1.506,0,0,0,1.506,1.506H327a1.506,1.506,0,0,0,1.506-1.506V279.82Z" transform="translate(-306.818 -275)" fill="#ffe177"/>
        </g>
      </g>
      <g id="Grupo_1014202" data-name="Grupo 1014202" transform="translate(-8922.97 -6076.353)">
        <g id="Grupo_1014168" data-name="Grupo 1014168">
          <path id="Trazado_713940" data-name="Trazado 713940" d="M107.577,87.858H91.429A.429.429,0,0,1,91,87.429v-2A.429.429,0,0,1,91.429,85h16.149a.429.429,0,0,1,.429.429v2A.429.429,0,0,1,107.577,87.858Z" transform="translate(-91 -85)" fill="#8ebac5"/>
        </g>
        <g id="Grupo_1014169" data-name="Grupo 1014169" transform="translate(0 5.145)">
          <path id="Trazado_713941" data-name="Trazado 713941" d="M107.577,122.429H91.429A.429.429,0,0,1,91,122v-.572a.429.429,0,0,1,.429-.429h16.149a.429.429,0,0,1,.429.429V122A.429.429,0,0,1,107.577,122.429Z" transform="translate(-91 -121)" fill="#8ebac5"/>
        </g>
        <g id="Grupo_1014175" data-name="Grupo 1014175" transform="translate(0 10.004)">
          <g id="Grupo_1014170" data-name="Grupo 1014170">
            <path id="Trazado_713942" data-name="Trazado 713942" d="M107.577,156.429H91.429A.429.429,0,0,1,91,156v-.572a.429.429,0,0,1,.429-.429h16.149a.429.429,0,0,1,.429.429V156A.429.429,0,0,1,107.577,156.429Z" transform="translate(-91 -155)" fill="#a8d3d8"/>
          </g>
          <g id="Grupo_1014171" data-name="Grupo 1014171" transform="translate(0 4.287)">
            <path id="Trazado_713943" data-name="Trazado 713943" d="M107.577,186.429H91.429A.429.429,0,0,1,91,186v-.572a.429.429,0,0,1,.429-.429h16.149a.429.429,0,0,1,.429.429V186A.429.429,0,0,1,107.577,186.429Z" transform="translate(-91 -185)" fill="#a8d3d8"/>
          </g>
          <g id="Grupo_1014172" data-name="Grupo 1014172" transform="translate(0 8.574)">
            <path id="Trazado_713944" data-name="Trazado 713944" d="M107.577,216.429H91.429A.429.429,0,0,1,91,216v-.572a.429.429,0,0,1,.429-.429h16.149a.429.429,0,0,1,.429.429V216A.429.429,0,0,1,107.577,216.429Z" transform="translate(-91 -215)" fill="#a8d3d8"/>
          </g>
          <g id="Grupo_1014173" data-name="Grupo 1014173" transform="translate(0 12.862)">
            <path id="Trazado_713945" data-name="Trazado 713945" d="M107.577,246.429H91.429A.429.429,0,0,1,91,246v-.572a.429.429,0,0,1,.429-.429h16.149a.429.429,0,0,1,.429.429V246A.429.429,0,0,1,107.577,246.429Z" transform="translate(-91 -245)" fill="#a8d3d8"/>
          </g>
          <g id="Grupo_1014174" data-name="Grupo 1014174" transform="translate(0 17.149)">
            <path id="Trazado_713946" data-name="Trazado 713946" d="M107.577,276.429H91.429A.429.429,0,0,1,91,276v-.572a.429.429,0,0,1,.429-.429h16.149a.429.429,0,0,1,.429.429V276A.429.429,0,0,1,107.577,276.429Z" transform="translate(-91 -275)" fill="#a8d3d8"/>
          </g>
        </g>
        <g id="Grupo_1014181" data-name="Grupo 1014181" transform="translate(20.436 10.004)">
          <g id="Grupo_1014176" data-name="Grupo 1014176">
            <path id="Trazado_713947" data-name="Trazado 713947" d="M235.572,156.429h-1.143A.429.429,0,0,1,234,156v-.572a.429.429,0,0,1,.429-.429h1.143a.429.429,0,0,1,.429.429V156A.429.429,0,0,1,235.572,156.429Z" transform="translate(-234 -155)" fill="#a8d3d8"/>
          </g>
          <g id="Grupo_1014177" data-name="Grupo 1014177" transform="translate(0 4.287)">
            <path id="Trazado_713948" data-name="Trazado 713948" d="M235.572,186.429h-1.143A.429.429,0,0,1,234,186v-.572a.429.429,0,0,1,.429-.429h1.143a.429.429,0,0,1,.429.429V186A.429.429,0,0,1,235.572,186.429Z" transform="translate(-234 -185)" fill="#a8d3d8"/>
          </g>
          <g id="Grupo_1014178" data-name="Grupo 1014178" transform="translate(0 8.574)">
            <path id="Trazado_713949" data-name="Trazado 713949" d="M235.572,216.429h-1.143A.429.429,0,0,1,234,216v-.572a.429.429,0,0,1,.429-.429h1.143a.429.429,0,0,1,.429.429V216A.429.429,0,0,1,235.572,216.429Z" transform="translate(-234 -215)" fill="#a8d3d8"/>
          </g>
          <g id="Grupo_1014179" data-name="Grupo 1014179" transform="translate(0 12.862)">
            <path id="Trazado_713950" data-name="Trazado 713950" d="M235.572,246.429h-1.143A.429.429,0,0,1,234,246v-.572a.429.429,0,0,1,.429-.429h1.143a.429.429,0,0,1,.429.429V246A.429.429,0,0,1,235.572,246.429Z" transform="translate(-234 -245)" fill="#a8d3d8"/>
          </g>
          <g id="Grupo_1014180" data-name="Grupo 1014180" transform="translate(0 17.149)">
            <path id="Trazado_713951" data-name="Trazado 713951" d="M235.572,276.429h-1.143A.429.429,0,0,1,234,276v-.572a.429.429,0,0,1,.429-.429h1.143a.429.429,0,0,1,.429.429V276A.429.429,0,0,1,235.572,276.429Z" transform="translate(-234 -275)" fill="#a8d3d8"/>
          </g>
        </g>
        <g id="Grupo_1014186" data-name="Grupo 1014186" transform="translate(25.866 14.291)">
          <g id="Grupo_1014182" data-name="Grupo 1014182">
            <path id="Trazado_713952" data-name="Trazado 713952" d="M273.572,186.429h-1.143A.429.429,0,0,1,272,186v-.572a.429.429,0,0,1,.429-.429h1.143a.429.429,0,0,1,.429.429V186A.429.429,0,0,1,273.572,186.429Z" transform="translate(-272 -185)" fill="#a8d3d8"/>
          </g>
          <g id="Grupo_1014183" data-name="Grupo 1014183" transform="translate(0 4.287)">
            <path id="Trazado_713953" data-name="Trazado 713953" d="M273.572,216.429h-1.143A.429.429,0,0,1,272,216v-.572a.429.429,0,0,1,.429-.429h1.143a.429.429,0,0,1,.429.429V216A.429.429,0,0,1,273.572,216.429Z" transform="translate(-272 -215)" fill="#a8d3d8"/>
          </g>
          <g id="Grupo_1014184" data-name="Grupo 1014184" transform="translate(0 8.574)">
            <path id="Trazado_713954" data-name="Trazado 713954" d="M273.572,246.429h-1.143A.429.429,0,0,1,272,246v-.572a.429.429,0,0,1,.429-.429h1.143a.429.429,0,0,1,.429.429V246A.429.429,0,0,1,273.572,246.429Z" transform="translate(-272 -245)" fill="#a8d3d8"/>
          </g>
          <g id="Grupo_1014185" data-name="Grupo 1014185" transform="translate(0 12.862)">
            <path id="Trazado_713955" data-name="Trazado 713955" d="M273.572,276.429h-1.143A.429.429,0,0,1,272,276v-.572a.429.429,0,0,1,.429-.429h1.143a.429.429,0,0,1,.429.429V276A.429.429,0,0,1,273.572,276.429Z" transform="translate(-272 -275)" fill="#a8d3d8"/>
          </g>
        </g>
        <g id="Grupo_1014191" data-name="Grupo 1014191" transform="translate(0 33.583)">
          <g id="Grupo_1014187" data-name="Grupo 1014187">
            <path id="Trazado_713956" data-name="Trazado 713956" d="M107.577,321.429H91.429A.429.429,0,0,1,91,321v-.572a.429.429,0,0,1,.429-.429h16.149a.429.429,0,0,1,.429.429V321A.429.429,0,0,1,107.577,321.429Z" transform="translate(-91 -320)" fill="#a8d3d8"/>
          </g>
          <g id="Grupo_1014188" data-name="Grupo 1014188" transform="translate(0 4.287)">
            <path id="Trazado_713957" data-name="Trazado 713957" d="M107.577,351.429H91.429A.429.429,0,0,1,91,351v-.572a.429.429,0,0,1,.429-.429h16.149a.429.429,0,0,1,.429.429V351A.429.429,0,0,1,107.577,351.429Z" transform="translate(-91 -350)" fill="#a8d3d8"/>
          </g>
          <g id="Grupo_1014189" data-name="Grupo 1014189" transform="translate(0 8.574)">
            <path id="Trazado_713958" data-name="Trazado 713958" d="M107.577,381.429H91.429A.429.429,0,0,1,91,381v-.572a.429.429,0,0,1,.429-.429h16.149a.429.429,0,0,1,.429.429V381A.429.429,0,0,1,107.577,381.429Z" transform="translate(-91 -380)" fill="#a8d3d8"/>
          </g>
          <g id="Grupo_1014190" data-name="Grupo 1014190" transform="translate(0 12.862)">
            <path id="Trazado_713959" data-name="Trazado 713959" d="M107.577,411.429H91.429A.429.429,0,0,1,91,411v-.572a.429.429,0,0,1,.429-.429h16.149a.429.429,0,0,1,.429.429V411A.429.429,0,0,1,107.577,411.429Z" transform="translate(-91 -410)" fill="#a8d3d8"/>
          </g>
        </g>
        <g id="Grupo_1014196" data-name="Grupo 1014196" transform="translate(20.436 33.583)">
          <g id="Grupo_1014192" data-name="Grupo 1014192">
            <path id="Trazado_713960" data-name="Trazado 713960" d="M235.572,321.429h-1.143A.429.429,0,0,1,234,321v-.572a.429.429,0,0,1,.429-.429h1.143a.429.429,0,0,1,.429.429V321A.429.429,0,0,1,235.572,321.429Z" transform="translate(-234 -320)" fill="#a8d3d8"/>
          </g>
          <g id="Grupo_1014193" data-name="Grupo 1014193" transform="translate(0 4.287)">
            <path id="Trazado_713961" data-name="Trazado 713961" d="M235.572,351.429h-1.143A.429.429,0,0,1,234,351v-.572a.429.429,0,0,1,.429-.429h1.143a.429.429,0,0,1,.429.429V351A.429.429,0,0,1,235.572,351.429Z" transform="translate(-234 -350)" fill="#a8d3d8"/>
          </g>
          <g id="Grupo_1014194" data-name="Grupo 1014194" transform="translate(0 8.574)">
            <path id="Trazado_713962" data-name="Trazado 713962" d="M235.572,381.429h-1.143A.429.429,0,0,1,234,381v-.572a.429.429,0,0,1,.429-.429h1.143a.429.429,0,0,1,.429.429V381A.429.429,0,0,1,235.572,381.429Z" transform="translate(-234 -380)" fill="#a8d3d8"/>
          </g>
          <g id="Grupo_1014195" data-name="Grupo 1014195" transform="translate(0 12.862)">
            <path id="Trazado_713963" data-name="Trazado 713963" d="M235.572,411.429h-1.143A.429.429,0,0,1,234,411v-.572a.429.429,0,0,1,.429-.429h1.143a.429.429,0,0,1,.429.429V411A.429.429,0,0,1,235.572,411.429Z" transform="translate(-234 -410)" fill="#a8d3d8"/>
          </g>
        </g>
        <g id="Grupo_1014201" data-name="Grupo 1014201" transform="translate(25.866 33.583)">
          <g id="Grupo_1014197" data-name="Grupo 1014197">
            <path id="Trazado_713964" data-name="Trazado 713964" d="M273.572,321.429h-1.143A.429.429,0,0,1,272,321v-.572a.429.429,0,0,1,.429-.429h1.143a.429.429,0,0,1,.429.429V321A.429.429,0,0,1,273.572,321.429Z" transform="translate(-272 -320)" fill="#a8d3d8"/>
          </g>
          <g id="Grupo_1014198" data-name="Grupo 1014198" transform="translate(0 4.287)">
            <path id="Trazado_713965" data-name="Trazado 713965" d="M273.572,351.429h-1.143A.429.429,0,0,1,272,351v-.572a.429.429,0,0,1,.429-.429h1.143a.429.429,0,0,1,.429.429V351A.429.429,0,0,1,273.572,351.429Z" transform="translate(-272 -350)" fill="#a8d3d8"/>
          </g>
          <g id="Grupo_1014199" data-name="Grupo 1014199" transform="translate(0 8.574)">
            <path id="Trazado_713966" data-name="Trazado 713966" d="M273.572,381.429h-1.143A.429.429,0,0,1,272,381v-.572a.429.429,0,0,1,.429-.429h1.143a.429.429,0,0,1,.429.429V381A.429.429,0,0,1,273.572,381.429Z" transform="translate(-272 -380)" fill="#a8d3d8"/>
          </g>
          <g id="Grupo_1014200" data-name="Grupo 1014200" transform="translate(0 12.862)">
            <path id="Trazado_713967" data-name="Trazado 713967" d="M273.572,411.429h-1.143A.429.429,0,0,1,272,411v-.572a.429.429,0,0,1,.429-.429h1.143a.429.429,0,0,1,.429.429V411A.429.429,0,0,1,273.572,411.429Z" transform="translate(-272 -410)" fill="#a8d3d8"/>
          </g>
        </g>
      </g>
      <g id="Grupo_1014209" data-name="Grupo 1014209" transform="translate(-8901.962 -6088.5)">
        <path id="Trazado_713968" data-name="Trazado 713968" d="M261.824,18.518a8.933,8.933,0,0,1,2.44.34A13.649,13.649,0,1,0,251.648,27.3c.412,0,.819-.019,1.221-.055A8.97,8.97,0,0,1,261.824,18.518Z" transform="translate(-238)" fill="#01c0fa"/>
        <path id="Trazado_713969" data-name="Trazado 713969" d="M253.062,25.6a13.65,13.65,0,0,1,2.587-25,13.649,13.649,0,1,0-4,26.7c.412,0,.818-.02,1.221-.056A8.945,8.945,0,0,1,253.062,25.6Z" transform="translate(-238 0)" fill="#08a9f1"/>
        <path id="Trazado_713970" data-name="Trazado 713970" d="M282,40.28a10.042,10.042,0,1,0-6.532,4.808A8.985,8.985,0,0,1,282,40.28Z" transform="translate(-259.639 -21.639)" fill="#dff6fd"/>
        <path id="Trazado_713971" data-name="Trazado 713971" d="M271.951,25.885a10.038,10.038,0,0,0,0,19.9,13.639,13.639,0,0,1,0-19.9Z" transform="translate(-259.639 -22.186)" fill="#c8effe"/>
        <g id="Grupo_1014208" data-name="Grupo 1014208" transform="translate(8.506 8.506)">
          <g id="Grupo_1014203" data-name="Grupo 1014203" transform="translate(0 3.259)">
            <path id="Trazado_713972" data-name="Trazado 713972" d="M302.066,88.57l2.479-2.479-.12-.293L301.131,82.5l-.351-.178L298.3,84.805a2.662,2.662,0,0,0,3.765,3.765Z" transform="translate(-297.522 -82.326)" fill="#fe76a8"/>
          </g>
          <g id="Grupo_1014205" data-name="Grupo 1014205" transform="translate(0 3.259)">
            <g id="Grupo_1014204" data-name="Grupo 1014204">
              <path id="Trazado_713973" data-name="Trazado 713973" d="M299.177,89.154a2.663,2.663,0,0,1,.583-2.889l2.479-2.479-1.458-1.458L298.3,84.806a2.663,2.663,0,0,0,.876,4.348Z" transform="translate(-297.522 -82.327)" fill="#fe5694"/>
            </g>
          </g>
          <g id="Grupo_1014206" data-name="Grupo 1014206" transform="translate(3.259)">
            <path id="Trazado_713974" data-name="Trazado 713974" d="M324.092,66.546l2.479-2.479a2.662,2.662,0,0,0-3.765-3.765l-2.479,2.479Z" transform="translate(-320.327 -59.522)" fill="#62dbfb"/>
          </g>
          <g id="Grupo_1014207" data-name="Grupo 1014207" transform="translate(3.259)">
            <path id="Trazado_713975" data-name="Trazado 713975" d="M321.785,64.239l2.479-2.479a2.663,2.663,0,0,1,2.889-.583,2.663,2.663,0,0,0-4.348-.876l-2.479,2.479Z" transform="translate(-320.327 -59.522)" fill="#01d0fb"/>
          </g>
        </g>
      </g>
      <g id="Grupo_1014213" data-name="Grupo 1014213" transform="translate(-8887.242 -6070.125)">
        <g id="Grupo_1014210" data-name="Grupo 1014210">
          <ellipse id="Elipse_7929" data-name="Elipse 7929" cx="9.105" cy="9.105" rx="9.105" ry="9.105" fill="#05e39c"/>
        </g>
        <g id="Grupo_1014211" data-name="Grupo 1014211">
          <path id="Trazado_713976" data-name="Trazado 713976" d="M346.788,137.687A9.106,9.106,0,0,1,353,129.054a9.1,9.1,0,1,0,0,17.264A9.106,9.106,0,0,1,346.788,137.687Z" transform="translate(-341 -128.582)" fill="#0ed290"/>
        </g>
        <g id="Grupo_1014212" data-name="Grupo 1014212" transform="translate(4.138 6.01)">
          <path id="Trazado_713977" data-name="Trazado 713977" d="M374.164,177.431a1.068,1.068,0,0,1-.758-.314l-3.136-3.136a1.072,1.072,0,0,1,1.516-1.516l2.378,2.378,3.9-3.9a1.072,1.072,0,0,1,1.516,1.516l-4.653,4.653a1.068,1.068,0,0,1-.758.314Z" transform="translate(-369.956 -170.634)" fill="#fff"/>
        </g>
      </g>
      <g id="Grupo_1014214" data-name="Grupo 1014214" transform="translate(-8880.098 -6036.767)">
        <path id="Trazado_713978" data-name="Trazado 713978" d="M393.858,363.429h-2.429A.429.429,0,0,1,391,363v-.572a.429.429,0,0,1,.429-.429h2.429a.429.429,0,0,1,.429.429V363A.429.429,0,0,1,393.858,363.429Z" transform="translate(-391 -362)" fill="#a8d3d8"/>
      </g>
      <g id="Grupo_1014215" data-name="Grupo 1014215" transform="translate(-8880.098 -6033.909)">
        <path id="Trazado_713979" data-name="Trazado 713979" d="M393.858,383.429h-2.429A.429.429,0,0,1,391,383v-.572a.429.429,0,0,1,.429-.429h2.429a.429.429,0,0,1,.429.429V383A.429.429,0,0,1,393.858,383.429Z" transform="translate(-391 -382)" fill="#a8d3d8"/>
      </g>
      <path id="Trazado_713980" data-name="Trazado 713980" d="M46.011,22A35.013,35.013,0,0,0,11,57.009c0,.079,0,.157,0,.236L65.153,86.328A35.014,35.014,0,0,0,46.011,22Z" transform="translate(-9172.4 -6107.353)" fill="#02c0fc"/>
      <path id="Trazado_713984" data-name="Trazado 713984" d="M212.618,259.006c-8.031,3.811-9.572-3.46-9.572-3.46l-13.879-10q-.288.34-.611.652l1.431,20.893c-.206.5-1.677,4.344.149,7.738,1.292,2.4,3.919,3.968,7.809,4.656a8.934,8.934,0,0,1,6.146,3.642,34.8,34.8,0,0,0,13.245-5.2,31.252,31.252,0,0,0,5.078-10.814,25.915,25.915,0,0,0,.482-3.3C216.883,263.265,219.519,255.731,212.618,259.006Z" transform="translate(-9324.584 -6298.959)" fill="#bc6b58"/>
      <path id="Trazado_713985" data-name="Trazado 713985" d="M45.817,281.97c-12.1-2.144-7.778-12.147-7.778-12.147l-1.448-21.132a8.722,8.722,0,0,1-2.733,1.909c-6.284,2.822-16.631,1.884-22.839.943a34.972,34.972,0,0,0,1.716,10.616l8.353,13.715a35.061,35.061,0,0,0,31.071,9.909A9.049,9.049,0,0,0,45.817,281.97Z" transform="translate(-9172.418 -6301.651)" fill="#9e533b"/>
      <path id="Trazado_713986" data-name="Trazado 713986" d="M223.176,81.241l.059,0a1.239,1.239,0,0,0,1.058-1.72,17.33,17.33,0,0,0-2.5-4.09,6.1,6.1,0,0,1-7.626.818,8.052,8.052,0,0,1-3.647-6.958c-.122-4.048,2.226-6.383,5.713-6.993a3.381,3.381,0,0,1,1.4-.361c.243-.009.47-.03.685-.058a5.573,5.573,0,0,0-.649-.153,2.866,2.866,0,0,1-2.2-1.29,3.17,3.17,0,0,1,.007-2.452l.013-.029,0-.031c.109-.914-.349-2.8-2.86-3.413a1.7,1.7,0,0,1-1.331-.956c-.365-1,.641-2.389.652-2.4l.108-.158A7.385,7.385,0,0,0,206.486,54a12.592,12.592,0,0,1-3.462,3.28c-8.416,5.455-6.418,16.261-11.254,21.687l14.03,10.1s1.541,7.271,9.572,3.46c6.892-3.271,4.272,4.241,10.257,4.81a21.909,21.909,0,0,0-3.4-14.183,1.237,1.237,0,0,1,.948-1.921Z" transform="translate(-9327.339 -6132.202)" fill="#d18171"/>
      <path id="Trazado_713988" data-name="Trazado 713988" d="M325.757,135.239a4.3,4.3,0,0,1,3.478-1.3c-3.059-2.621-.472-6.37-.472-6.37s-7.55-.044-7.327,7.36a8.242,8.242,0,0,0,3.745,7.131,6.308,6.308,0,0,0,1.255.625A4.893,4.893,0,0,1,325.757,135.239Z" transform="translate(-9438.47 -6197.842)" fill="#ff0363"/>
      <path id="Trazado_713990" data-name="Trazado 713990" d="M77.161,260.691c-2.783-1.363-4.546-3.214-5.241-5.5a9.275,9.275,0,0,1,.177-5.436,14.621,14.621,0,0,1-3.542.986l-.125.019c-2.469,1.672-3.008,3.293-2.948,4.471a1.733,1.733,0,0,1-1.2,1.756c-2.772.856-4.118,2.291-3.791,4.041a1.732,1.732,0,0,1-.81,1.816c-1.48.865-3.755,2.827-2.372,6.249a1.7,1.7,0,0,1-.281,1.717,13.759,13.759,0,0,0-1.15,1.61,35.21,35.21,0,0,0,3.661,4.371c.086.017.173.031.259.049,4.682.977,9.342,3.013,14.922,3.013a15.924,15.924,0,0,0,3.005-.294c-.018-.024-.037-.048-.055-.073-2.849-3.977-.848-7.357.918-10.34,1.148-1.939,2.233-3.771,1.727-5.465C79.974,262.542,78.942,261.563,77.161,260.691Z" transform="translate(-9210.865 -6302.561)" fill="#d18171"/>
      <path id="Trazado_713991" data-name="Trazado 713991" d="M30.687,261.635a1.907,1.907,0,0,1-1.627,1.7c-1.782.245-4.185.97-4.137,3.1a1.9,1.9,0,0,1-1.21,1.833,7.51,7.51,0,0,0-.715.317,34.9,34.9,0,0,0,4.836,9.548,13.362,13.362,0,0,1,1.177-1.665,1.914,1.914,0,0,0,.315-1.935c-1.3-3.212.737-5.081,2.282-5.984a1.939,1.939,0,0,0,.912-2.041c-.4-2.132,1.895-3.257,3.643-3.8a1.941,1.941,0,0,0,1.354-1.972c-.058-1.151.5-2.818,3.256-4.545-.131.023-.263.045-.4.066-7.84,1.18-9.5,3.715-9.689,5.376Z" transform="translate(-9182.687 -6308.082)" fill="#bc6b58"/>
      <path id="Trazado_713992" data-name="Trazado 713992" d="M186.993,241.318a13.8,13.8,0,0,0-3.169-8.53,12.6,12.6,0,0,0-16.712-2.741,14.225,14.225,0,0,1-2.343,1.2c-.847,2.813-1.225,7.861,5.232,11.024,9.333,4.571-5.564,10.345.421,18.718C178.761,259.506,186.993,251.577,186.993,241.318Z" transform="translate(-9303.799 -6283.948)" fill="#e2978a"/>
      <path id="Trazado_713993" data-name="Trazado 713993" d="M349.783,177.188c.932-1.667.934-3.484-2.174-4.553a7.753,7.753,0,0,1-2.785-1.55,4.315,4.315,0,0,0-3.617,1.284c-2.031,2.062-1.964,5.379.76,7.514A6.26,6.26,0,0,0,349.783,177.188Z" transform="translate(-9454.204 -6235.115)" fill="#fe3d97"/>
      <ellipse id="Elipse_7930" data-name="Elipse 7930" cx="2.388" cy="2.388" rx="2.388" ry="2.388" transform="translate(-9108.554 -6062.139)" fill="#fd77a6"/>
      <g id="Grupo_1014217" data-name="Grupo 1014217" transform="translate(-9160.656 -6084.845)">
        <path id="Trazado_713994" data-name="Trazado 713994" d="M446.226,155.039c-4.61,5.042-8.78,13.65,3.195,22.833a35.143,35.143,0,0,0-3.195-22.833Z" transform="translate(-380.809 -136.538)" fill="#2fd0e2"/>
        <path id="Trazado_713995" data-name="Trazado 713995" d="M16.222,52.861l.114.04c16.99,5.82,22.167-4.627,26.946-15.428,2.241-5.065,2.052-9.07,1.219-11.895A35.047,35.047,0,0,0,16.222,52.861Z" transform="translate(-16.222 -25.578)" fill="#2fd0e2"/>
      </g>
      <g id="Grupo_1014223" data-name="Grupo 1014223" transform="translate(-8317.351 -6088.5)">
        <g id="Grupo_1014222" data-name="Grupo 1014222">
          <g id="Grupo_1014221" data-name="Grupo 1014221">
            <g id="Grupo_1014220" data-name="Grupo 1014220">
              <g id="Grupo_1014219" data-name="Grupo 1014219">
                <g id="Grupo_1014218" data-name="Grupo 1014218">
                  <circle id="Elipse_7931" data-name="Elipse 7931" cx="36.5" cy="36.5" r="36.5" transform="translate(0.351)" fill="#2fddd0"/>
                </g>
              </g>
            </g>
          </g>
        </g>
      </g>
      <path id="Trazado_713996" data-name="Trazado 713996" d="M120.954,84.368a36.987,36.987,0,0,0-.229-4.115L104.305,63.834l-3.541,3.594L89.087,55.751l-9.436,4.287,14.3,14.3-6.422,6.518-18.5-18.5L62.1,68.767,80.908,87.58,74.486,94.1,60.039,79.65l-4.287,9.436L67.676,101.01,64.134,104.6l16.12,16.12a37.018,37.018,0,0,0,4.115.229,36.584,36.584,0,0,0,36.585-36.585Z" transform="translate(-8365.135 -6136.284)" fill="#11bfae"/>
      <path id="Trazado_713997" data-name="Trazado 713997" d="M332.382,97.73l-6.672-6.672-3.032,3.032,1.82,1.82-6.883,6.883,3.032,3.032,6.883-6.883,1.82,1.82Z" transform="translate(-8589.576 -6166.545)" fill="#c10000"/>
      <path id="Trazado_713998" data-name="Trazado 713998" d="M105.825,320.648l-3.032-3.032L95.911,324.5l-1.82-1.82-3.032,3.032,6.672,6.672,3.032-3.032-1.82-1.82Z" transform="translate(-8395.396 -6360.726)" fill="#f92814"/>
      <path id="Trazado_713999" data-name="Trazado 713999" d="M329.351,322.678l-1.82,1.82-6.883-6.883-3.032,3.032,6.883,6.883-1.82,1.82,3.032,3.032,6.672-6.672Z" transform="translate(-8589.576 -6360.726)" fill="#c10000"/>
      <path id="Trazado_714000" data-name="Trazado 714000" d="M105.825,102.793l-6.883-6.883,1.82-1.82-3.032-3.032-6.672,6.672,3.032,3.032,1.82-1.82,6.883,6.883Z" transform="translate(-8395.396 -6166.546)" fill="#f92814"/>
      <g id="Grupo_1014229" data-name="Grupo 1014229" transform="translate(-8306.843 -6077.985)">
        <g id="Grupo_1014228" data-name="Grupo 1014228">
          <g id="Grupo_1014227" data-name="Grupo 1014227">
            <g id="Grupo_1014226" data-name="Grupo 1014226">
              <g id="Grupo_1014225" data-name="Grupo 1014225">
                <g id="Grupo_1014224" data-name="Grupo 1014224">
                  <circle id="Elipse_7932" data-name="Elipse 7932" cx="18.436" cy="18.436" r="18.436" transform="translate(0 26.069) rotate(-45)" fill="#ff583e"/>
                </g>
              </g>
            </g>
          </g>
        </g>
      </g>
      <g id="Grupo_1014235" data-name="Grupo 1014235" transform="translate(-8280.766 -6070.352)">
        <g id="Grupo_1014234" data-name="Grupo 1014234">
          <g id="Grupo_1014233" data-name="Grupo 1014233">
            <g id="Grupo_1014232" data-name="Grupo 1014232">
              <g id="Grupo_1014231" data-name="Grupo 1014231">
                <g id="Grupo_1014230" data-name="Grupo 1014230">
                  <path id="Trazado_714001" data-name="Trazado 714001" d="M274.436,145.427A18.436,18.436,0,0,0,256,126.991v36.873A18.436,18.436,0,0,0,274.436,145.427Z" transform="translate(-256 -126.991)" fill="#f92814"/>
                </g>
              </g>
            </g>
          </g>
        </g>
      </g>
      <path id="Trazado_714002" data-name="Trazado 714002" d="M232.422,55.751h-9.436v4.287h2.574v9.734h4.287V60.038h2.574Z" transform="translate(-8508.47 -6136.284)" fill="#f92814"/>
      <path id="Trazado_714003" data-name="Trazado 714003" d="M260.718,55.751H256V69.772h2.144V60.038h2.574Z" transform="translate(-8536.766 -6136.284)" fill="#c10000"/>
      <path id="Trazado_714004" data-name="Trazado 714004" d="M229.848,367.872v-9.734H225.56v9.734h-2.574v4.287h9.436v-4.287Z" transform="translate(-8508.47 -6395.457)" fill="#f92814"/>
      <path id="Trazado_714005" data-name="Trazado 714005" d="M258.144,367.872v-9.734H256v14.021h4.718v-4.287Z" transform="translate(-8536.766 -6395.457)" fill="#c10000"/>
      <path id="Trazado_714006" data-name="Trazado 714006" d="M367.872,222.987v2.574h-9.734v4.287h9.734v2.574h4.287v-9.436Z" transform="translate(-8624.308 -6279.62)" fill="#c10000"/>
      <path id="Trazado_714007" data-name="Trazado 714007" d="M69.773,225.561H60.039v-2.574H55.752v9.436h4.287v-2.574h9.733Z" transform="translate(-8365.135 -6279.62)" fill="#f92814"/>
      <g id="Grupo_1014238" data-name="Grupo 1014238" transform="translate(-8291.046 -6062.196)">
        <g id="Grupo_1014236" data-name="Grupo 1014236">
          <ellipse id="Elipse_7933" data-name="Elipse 7933" cx="3.017" cy="3.017" rx="3.017" ry="3.017" fill="#f92814"/>
        </g>
        <g id="Grupo_1014237" data-name="Grupo 1014237" transform="translate(14.526 14.526)">
          <ellipse id="Elipse_7934" data-name="Elipse 7934" cx="3.017" cy="3.017" rx="3.017" ry="3.017" fill="#c10000"/>
        </g>
      </g>
      <g id="Grupo_1014243" data-name="Grupo 1014243" transform="translate(-8291.046 -6062.196)">
        <g id="Grupo_1014239" data-name="Grupo 1014239" transform="translate(14.526)">
          <ellipse id="Elipse_7935" data-name="Elipse 7935" cx="3.017" cy="3.017" rx="3.017" ry="3.017" fill="#c10000"/>
        </g>
        <g id="Grupo_1014240" data-name="Grupo 1014240" transform="translate(6.006 6.014)">
          <circle id="Elipse_7936" data-name="Elipse 7936" cx="3.017" cy="3.017" r="3.017" transform="translate(0 4.266) rotate(-45)" fill="#f92814"/>
        </g>
        <g id="Grupo_1014241" data-name="Grupo 1014241" transform="translate(10.28 7.263)">
          <path id="Trazado_714008" data-name="Trazado 714008" d="M256,234.887v6.034a3.017,3.017,0,0,0,0-6.034Z" transform="translate(-256 -234.887)" fill="#c10000"/>
        </g>
        <g id="Grupo_1014242" data-name="Grupo 1014242" transform="translate(0 14.526)">
          <ellipse id="Elipse_7937" data-name="Elipse 7937" cx="3.017" cy="3.017" rx="3.017" ry="3.017" fill="#f92814"/>
        </g>
      </g>
    </g>
  </g>
</svg>
